<?xml version="1.0" encoding="UTF-8" standalone="no"?>
<svg
   version="1.1"
   width="1000"
   height="1000"
   id="svg2"
   sodipodi:docname="lang_hin.svg"
   inkscape:export-filename="lang_hin_black.png"
   inkscape:export-xdpi="24.576"
   inkscape:export-ydpi="24.576"
   inkscape:version="1.4.2 (ebf0e940, 2025-05-08)"
   xmlns:inkscape="http://www.inkscape.org/namespaces/inkscape"
   xmlns:sodipodi="http://sodipodi.sourceforge.net/DTD/sodipodi-0.dtd"
   xmlns="http://www.w3.org/2000/svg"
   xmlns:svg="http://www.w3.org/2000/svg">
  <defs
     id="defs2" />
  <sodipodi:namedview
     id="namedview2"
     pagecolor="#ffffff"
     bordercolor="#000000"
     borderopacity="0.25"
     inkscape:showpageshadow="2"
     inkscape:pageopacity="0.0"
     inkscape:pagecheckerboard="0"
     inkscape:deskcolor="#d1d1d1"
     inkscape:zoom="0.12546701"
     inkscape:cx="-816.94779"
     inkscape:cy="1171.6227"
     inkscape:window-width="1712"
     inkscape:window-height="1046"
     inkscape:window-x="0"
     inkscape:window-y="66"
     inkscape:window-maximized="0"
     inkscape:current-layer="svg2" />
  <path
     d="m 319.67155,246.01442 c 1.75263,-0.003 3.50526,-0.009 5.2579,-0.0161 4.77688,-0.014 9.55354,-0.007 14.33044,0.003 5.16707,0.008 10.3341,-0.004 15.50117,-0.0134 10.10746,-0.0151 20.21483,-0.0119 30.32229,-0.002 8.21922,0.008 16.43844,0.009 24.65767,0.004 1.17195,-5.2e-4 2.3439,-0.001 3.55135,-0.001 2.38119,-0.001 4.76237,-0.002 7.14355,-0.003 22.30577,-0.0102 44.61148,0.001 66.91724,0.0197 19.11478,0.0152 38.2295,0.0125 57.34427,-0.003 22.22505,-0.0182 44.45006,-0.0253 66.67512,-0.015 2.37287,0.001 4.74575,0.002 7.11863,0.003 1.16733,5.4e-4 2.33467,0.001 3.53739,0.001 8.20255,0.003 16.40509,-0.002 24.60764,-0.0102 10.00612,-0.009 20.01213,-0.007 30.01824,0.0113 5.09948,0.009 10.19882,0.0125 15.29831,0.001 4.67854,-0.0102 9.3568,-0.004 14.03532,0.0134 1.68211,0.003 3.36424,0.002 5.04633,-0.007 16.55212,-0.0756 33.07399,1.05161 46.052,12.33682 7.48711,8.80837 7.59315,16.61934 6.93768,27.75071 -1.21663,5.4301 -4.23422,9.50311 -7.92878,13.59219 -3.51308,2.20784 -3.51308,2.20784 -7.50402,4.17677 -1.29949,0.6585 -2.59897,1.31699 -3.93783,1.99546 -9.04064,3.92875 -18.53572,4.35086 -28.25789,4.27908 -1.79221,5e-4 -1.79221,5e-4 -3.62062,0.001 -3.91001,-0.001 -7.81978,-0.0191 -11.72976,-0.0369 -2.72648,-0.004 -5.45295,-0.008 -8.17943,-0.0102 -7.1467,-0.009 -14.2933,-0.0308 -21.43996,-0.056 -7.3044,-0.0232 -14.60882,-0.0336 -21.91324,-0.045 -14.31047,-0.0242 -28.62088,-0.0624 -42.9313,-0.11066 0.29992,1.14626 0.29992,1.14626 0.60589,2.31569 0.91585,3.52064 1.81867,7.04452 2.72137,10.56856 0.31465,1.20166 0.6293,2.40332 0.95348,3.64139 2.69908,10.60118 3.81988,20.79819 3.8383,31.71068 0.004,0.87858 0.009,1.75715 0.0143,2.66235 0.0113,2.80859 0.0113,5.61695 0.008,8.42555 -4.6e-4,1.4399 -4.6e-4,1.4399 -9.3e-4,2.9089 -0.0209,14.09847 -0.29891,28.01669 -2.4768,41.97364 -0.10931,0.7576 -0.21866,1.51522 -0.33129,2.29578 -2.21329,14.88971 -6.69719,30.97305 -18.92431,40.74614 -3.67111,1.97929 -7.32198,3.38649 -11.32682,4.53072 -0.69638,0.19912 -1.39276,0.39825 -2.11024,0.60341 -2.57715,0.56353 -4.86732,0.67589 -7.50429,0.67971 -1.55213,0.003 -1.55213,0.003 -3.13562,0.007 -1.14225,-0.006 -2.2845,-0.0102 -3.46137,-0.0155 -1.22037,-0.002 -2.44073,-0.004 -3.69809,-0.007 -10.61264,-0.0529 -21.21583,-0.3266 -31.82394,-0.6221 -65.96272,-5.24319 -65.96272,-5.24319 -124.00916,19.64541 -8.5133,9.63157 -8.25547,20.72798 -7.7518,32.94512 0.85858,6.80349 3.63169,13.21363 6.79609,19.2556 0.24849,0.76107 0.49697,1.52216 0.75299,2.30629 1.28964,3.05175 2.31612,4.65892 4.91042,6.75517 5.41325,1.0824 10.66753,1.03152 16.1711,0.90682 4.62146,-0.097 9.2409,-0.0317 13.86267,0.0223 0.92227,0.008 1.84455,0.0159 2.79477,0.024 38.23034,0.48157 73.92157,13.69923 101.60667,40.10656 23.36623,24.18252 33.84262,54.49313 33.5994,87.81439 -0.41471,19.11422 -4.165,42.08495 -17.38789,56.88575 -7.43804,6.7632 -14.13418,9.70369 -24.24647,9.48621 -2.9379,-0.42475 -2.9379,-0.42475 -6.33594,-2.76091 -2.49965,-3.67135 -4.15089,-7.07856 -5.66341,-11.25602 -0.59134,-1.62072 -0.59134,-1.62072 -1.19463,-3.27416 -1.80801,-6.43131 -1.45859,-13.17623 -1.56629,-19.80425 -0.67417,-24.88827 -4.2355,-49.58903 -21.92359,-68.66442 -19.08495,-17.32848 -44.3103,-21.98792 -69.32811,-21.87935 -0.76769,0.002 -1.53536,0.004 -2.32632,0.008 -35.25881,0.17918 -66.50902,8.79732 -92.46502,33.6191 -11.60475,11.97186 -19.25898,26.50794 -23.9987,42.4048 -0.23015,0.77102 -0.4603,1.54204 -0.69742,2.33644 -6.8705,24.59995 -4.75035,56.16601 1.68852,80.56173 0.20606,0.78754 0.41211,1.57508 0.62441,2.38648 9.19803,33.64393 31.50594,58.31889 61.38993,75.41462 16.66143,9.20011 33.87701,15.35845 52.38655,19.60956 1.41192,0.33583 2.82382,0.67165 4.27853,1.01765 13.59556,3.0892 26.9858,4.65788 40.88717,5.14131 17.0939,0.62882 38.94545,1.54311 52.01047,13.81341 1.74738,1.97924 2.47494,3.29145 2.60162,5.94658 -0.49863,7.339 -2.71557,12.01326 -8.03053,17.12297 -19.3989,14.68483 -44.05329,15.36774 -67.3238,15.22042 -1.72596,-0.006 -1.72596,-0.006 -3.48678,-0.0102 -17.53957,-0.0777 -34.40959,-0.82457 -51.5191,-5.01583 -1.01695,-0.24275 -2.03392,-0.48548 -3.08169,-0.73558 -53.53798,-13.14531 -101.34027,-45.27918 -130.43764,-92.57795 -26.25149,-44.04484 -35.27007,-99.99526 -23.14864,-150.01237 11.34878,-43.69021 37.71697,-81.81442 76.72539,-105.19067 10.42606,-6.05491 21.03704,-10.96247 32.36993,-15.07439 -0.38547,-0.4833 -0.77093,-0.96659 -1.16807,-1.46453 -17.8486,-23.02279 -29.23931,-50.60995 -26.0163,-80.08859 3.67516,-19.95674 17.2696,-35.99419 33.58668,-47.40894 23.05101,-14.86301 47.46305,-23.4667 74.36683,-27.96116 2.04677,-0.34876 4.08819,-0.73037 6.12301,-1.14319 11.49547,-2.13558 22.96721,-1.94447 34.62203,-1.8749 3.53355,0.0206 7.06676,0.0232 10.60036,0.023 11.45404,0.0197 22.88866,0.21118 34.33222,0.71457 0.99209,0.043 1.98417,0.0861 3.00632,0.13034 8.90209,0.43489 17.6854,1.46245 26.50093,2.76331 -0.18717,-16.0973 -1.66337,-31.91066 -3.75201,-47.85582 -0.17116,-1.33712 -0.17116,-1.33712 -0.34577,-2.70126 -1.30134,-10.08014 -2.92183,-20.02253 -5.06627,-29.95959 -0.20869,-0.97862 -0.41738,-1.95723 -0.63239,-2.96551 -0.5075,-2.37803 -1.01855,-4.7553 -1.53038,-7.13239 -1.76905,0.003 -1.76905,0.003 -3.57386,0.007 -28.72093,0.0503 -57.44187,0.0876 -86.16284,0.11099 -13.88933,0.0117 -27.77865,0.0275 -41.66799,0.0534 -12.10849,0.0227 -24.21697,0.0371 -36.32549,0.0422 -6.409,0.003 -12.81795,0.0102 -19.22693,0.0263 -6.03833,0.0154 -12.07656,0.0201 -18.11489,0.0168 -2.21035,6.1e-4 -4.42068,0.006 -6.631,0.0138 -17.98333,0.0674 -34.03244,-0.31964 -48.81389,-12.02161 -6.82562,-8.95863 -8.0681,-16.56347 -6.79609,-27.8923 2.26891,-8.83456 9.27652,-14.18004 16.63627,-18.97242 11.90762,-4.49428 23.67367,-5.30821 36.25846,-5.24617 z"
     fill="#1f1f1f"
     id="path2"
     style="fill:#000000;fill-opacity:1;stroke-width:1.13268" />
</svg>
