<?xml version="1.0" encoding="UTF-8" standalone="no"?>
<svg
   version="1.1"
   width="1000"
   height="1000"
   id="svg2"
   sodipodi:docname="lang_eng.svg"
   inkscape:export-filename="lang_eng_black.png"
   inkscape:export-xdpi="24.576"
   inkscape:export-ydpi="24.576"
   inkscape:version="1.4.2 (ebf0e940, 2025-05-08)"
   xmlns:inkscape="http://www.inkscape.org/namespaces/inkscape"
   xmlns:sodipodi="http://sodipodi.sourceforge.net/DTD/sodipodi-0.dtd"
   xmlns="http://www.w3.org/2000/svg"
   xmlns:svg="http://www.w3.org/2000/svg">
  <defs
     id="defs2" />
  <sodipodi:namedview
     id="namedview2"
     pagecolor="#ffffff"
     bordercolor="#000000"
     borderopacity="0.25"
     inkscape:showpageshadow="2"
     inkscape:pageopacity="0.0"
     inkscape:pagecheckerboard="0"
     inkscape:deskcolor="#d1d1d1"
     inkscape:zoom="0.28541428"
     inkscape:cx="278.54248"
     inkscape:cy="434.45619"
     inkscape:window-width="1712"
     inkscape:window-height="1046"
     inkscape:window-x="0"
     inkscape:window-y="66"
     inkscape:window-maximized="0"
     inkscape:current-layer="svg2" />
  <path
     d="m 678.3095,131.63249 c 0.99007,-0.0107 1.98011,-0.0254 2.97005,-0.0453 6.91875,-0.13141 14.9716,0.0684 20.77384,4.39005 3.01636,3.5055 3.82301,7.38605 4.47098,11.8356 0.0829,0.53162 0.16601,1.06324 0.25153,1.61097 0.17983,1.15297 0.35717,2.30635 0.53227,3.46006 0.48044,3.15939 0.98179,6.31543 1.48501,9.47126 0.10561,0.66309 0.21121,1.32619 0.32002,2.00939 1.10579,6.86606 2.37643,13.69933 3.65942,20.5341 3.91497,20.86958 7.81266,41.84246 8.04565,63.13535 0.0116,0.67145 0.0234,1.34288 0.0353,2.03466 -0.005,5.0622 -0.52238,9.94439 -3.59989,14.10807 -3.99039,2.94942 -7.77779,4.52015 -12.79843,4.2559 -3.1712,-0.49517 -5.14537,-1.58466 -7.06629,-4.07744 -2.92735,-4.67317 -4.62333,-9.61873 -6.28119,-14.83573 -0.49599,-1.55945 -1.00238,-3.11519 -1.51169,-4.67034 -0.69457,-2.12221 -1.3862,-4.24531 -2.07483,-6.36944 -8.00049,-24.64815 -17.2918,-45.97721 -41.5168,-58.33527 -8.34811,-4.06962 -17.22551,-6.6624 -26.3446,-8.31719 -0.64531,-0.11872 -1.29062,-0.23743 -1.95548,-0.35975 -7.0025,-1.14296 -13.91764,-1.15053 -20.99618,-1.15218 -1.36859,-0.005 -2.73716,-0.0106 -4.10574,-0.0164 -3.69211,-0.0143 -7.3842,-0.0202 -11.07635,-0.0235 -2.31162,-0.003 -4.62323,-0.006 -6.93485,-0.0111 -8.07796,-0.0159 -16.15589,-0.0246 -24.23386,-0.027 -7.50935,-0.003 -15.01852,-0.0221 -22.52781,-0.0494 -6.4672,-0.0228 -12.93432,-0.0329 -19.40154,-0.0333 -3.85394,-5.2e-4 -7.70769,-0.006 -11.56159,-0.025 -3.62457,-0.0173 -7.24882,-0.0186 -10.87342,-0.009 -1.32389,9.6e-4 -2.64777,-0.003 -3.97162,-0.0136 -10.03588,-0.0747 -17.71724,1.41284 -26.49295,6.55408 -0.43866,0.2505 -0.87735,0.501 -1.32932,0.75909 -2.95682,1.7328 -5.56139,3.64698 -8.00702,6.0652 -0.9065,0.79638 -0.9065,0.79638 -2.21758,0.79638 -0.26493,0.55392 -0.26493,0.55392 -0.53519,1.11903 -1.10021,2.13143 -2.41052,4.12121 -3.70278,6.14059 -2.93519,5.59403 -3.25643,10.6519 -3.22713,16.91549 -0.003,0.9166 -0.006,1.8332 -0.0107,2.74981 -0.01,2.50653 -0.006,5.01295 -0.002,7.5195 0.003,2.70804 -0.005,5.41605 -0.0117,8.12408 -0.0112,5.30058 -0.0117,10.60112 -0.009,15.90171 0.003,4.30945 0.002,8.61889 -0.002,12.92834 -4.9e-4,0.6139 -6.5e-4,1.22777 -9.6e-4,1.86026 -9.6e-4,1.2472 -0.002,2.49439 -0.003,3.74161 -0.01,11.69018 -0.005,23.38033 0.002,35.07052 0.006,10.68786 -0.002,21.37564 -0.0177,32.0635 -0.0159,10.98215 -0.0224,21.96427 -0.018,32.94644 0.002,6.16251 6.6e-4,12.32494 -0.0106,18.48743 -0.01,5.24613 -0.0104,10.49217 9.6e-4,15.73829 0.006,2.67487 0.007,5.34957 -0.003,8.02444 -0.01,2.45219 -0.006,4.90407 0.006,7.35624 0.004,1.29978 -0.005,2.59955 -0.0154,3.89928 0.0587,7.14526 1.63148,12.98629 6.2424,18.55532 2.12752,2.0613 4.53948,3.33185 7.21608,4.55295 0.43265,0.21633 0.8653,0.43266 1.31107,0.65554 1.43904,0.0661 2.88016,0.0885 4.3207,0.0921 0.44916,0.002 0.89834,0.004 1.3611,0.006 1.51295,0.006 3.02586,0.006 4.53881,0.007 1.08227,0.003 2.16451,0.006 3.24676,0.01 2.94934,0.009 5.89866,0.0129 8.84803,0.0157 1.84732,0.002 3.69465,0.004 5.54198,0.007 5.79247,0.01 11.58493,0.0152 17.37741,0.0179 6.66056,0.003 13.32106,0.0144 19.9816,0.0334 5.16049,0.0143 10.32093,0.0207 15.48142,0.0215 3.07485,6.5e-4 6.14961,0.004 9.22442,0.0162 28.72105,0.97089 28.72105,0.97089 53.64152,-11.37218 9.86988,-10.95043 14.43092,-25.19263 18.43712,-39.0867 2.44024,-8.36826 5.76148,-17.06114 13.66652,-21.71482 3.79239,-1.56591 7.18503,-1.37061 10.95728,0.16387 3.94128,2.63373 6.98768,6.17429 8.07137,10.81646 0.16868,2.58372 0.15299,5.15541 0.12291,7.74358 -4.2e-4,0.68321 -6.5e-4,1.36641 -9.6e-4,2.07033 -0.0164,2.92265 -0.0908,5.78313 -0.43579,8.68626 -0.38542,3.30846 -0.53947,6.60948 -0.66915,9.93652 -0.0267,0.6361 -0.0532,1.27219 -0.0806,1.92757 -0.0844,2.01968 -0.16591,4.03947 -0.24712,6.05928 -0.10785,2.6504 -0.21726,5.30073 -0.32775,7.95101 -0.0268,0.65007 -0.0533,1.30012 -0.0807,1.96988 -0.14804,3.50406 -0.34817,6.99576 -0.60806,10.49311 -0.51812,7.96055 -0.42181,15.9432 -0.41739,23.91704 -4.4e-4,0.8884 -6.5e-4,1.7768 -9.6e-4,2.66518 -0.003,13.53237 0.28842,27.03622 0.7799,40.55965 0.80451,22.27502 0.80451,22.27502 0.85191,31.2928 0.005,0.96597 0.0143,1.93194 0.027,2.89785 0.1567,13.08468 0.1567,13.08468 -3.82874,17.26939 -2.90455,1.59752 -5.58423,1.97754 -8.84981,1.55692 -7.4459,-2.56083 -11.24552,-8.16658 -14.69336,-14.92895 -2.78738,-5.96803 -4.90299,-12.09882 -6.5684,-18.46626 -2.05012,-7.8362 -4.61432,-15.0869 -8.23765,-22.32588 -0.33716,-0.69123 -0.67433,-1.38247 -1.02172,-2.09466 -4.73418,-9.21176 -10.99043,-15.69857 -20.61117,-19.53822 -0.47745,-0.21888 -0.95489,-0.43774 -1.4468,-0.66323 -6.26135,-2.21555 -12.62292,-2.15418 -19.18374,-2.1494 -1.08082,-0.004 -2.16164,-0.009 -3.24246,-0.0134 -2.92042,-0.0115 -5.84079,-0.0147 -8.76124,-0.0154 -1.83021,-6.6e-4 -3.66042,-0.004 -5.49062,-0.007 -6.4013,-0.0122 -12.80257,-0.0176 -19.20386,-0.0165 -5.94007,6.6e-4 -11.87999,-0.0131 -17.82002,-0.0338 -5.12099,-0.0173 -10.24197,-0.0242 -15.36301,-0.0234 -3.04907,3.4e-4 -6.09798,-0.003 -9.14701,-0.0173 -2.87287,-0.0129 -5.74547,-0.0128 -8.61835,-0.003 -1.04504,9.6e-4 -2.09008,-9.6e-4 -3.13508,-0.01 -9.01929,-0.0647 -20.06171,0.53519 -27.33996,6.46055 -4.87827,4.86628 -5.75965,12.29213 -5.80866,18.86748 0.0109,1.19885 0.0109,1.19885 0.0219,2.42189 -9.6e-4,0.88102 -0.004,1.76205 -0.009,2.64305 -0.007,2.39605 0.002,4.7918 0.014,7.18782 0.0104,2.59359 0.004,5.18715 9.6e-4,7.78075 -0.004,5.07064 0.006,10.14117 0.0202,15.21179 0.0162,5.91134 0.018,11.82265 0.0193,17.734 0.003,10.55008 0.0173,21.10009 0.0393,31.65015 0.0212,10.226 0.0351,20.45195 0.0402,30.67796 3.1e-4,0.63007 6.3e-4,1.26015 6.6e-4,1.9093 9.6e-4,2.53298 0.003,5.06598 0.004,7.59897 0.005,9.76224 0.0153,19.52449 0.0265,29.28673 0.003,2.94481 0.006,5.88962 0.01,8.83443 0.006,6.1893 0.0137,12.37861 0.0273,18.5679 0.006,2.55801 0.0105,5.11601 0.0122,7.67401 0.002,2.34524 0.006,4.69046 0.0138,7.03566 0.003,1.24225 0.003,2.48457 0.003,3.72683 0.0256,6.59959 0.42192,13.0129 1.89958,19.45524 0.1146,0.50325 0.22921,1.00652 0.34729,1.52505 2.94191,12.44823 7.97206,23.78058 19.02449,30.99089 5.21563,3.06446 10.53519,5.18736 16.35527,6.77561 0.46725,0.13026 0.93449,0.26044 1.41591,0.39464 8.63455,2.2057 17.60361,2.58887 26.47088,2.56108 0.97832,0 1.95664,0.006 2.93495,0.007 2.62272,0.006 5.24538,0.006 7.86809,-5.2e-4 2.77676,0 5.55349,-2e-4 8.33024,0 4.66809,0 9.33615,-6.7e-4 14.00423,-0.007 5.34305,-0.007 10.68604,-0.006 16.02909,0 4.63299,0.006 9.26594,0.006 13.89895,0.006 2.74654,0 5.49308,0 8.23962,0 13.27112,0.0183 26.3879,-0.35339 39.61909,-1.48979 0.62473,-0.0525 1.24945,-0.10475 1.8931,-0.15869 28.83238,-2.44144 54.56979,-12.53713 73.92957,-34.69256 14.15067,-17.17959 24.96686,-36.94676 35.52988,-56.44831 8.17326,-15.05353 8.17326,-15.05353 14.51155,-17.52038 3.88138,-0.83717 7.12514,0.0396 10.43234,2.16892 3.12928,2.53741 4.93482,5.03165 5.50329,9.12221 1.11236,14.13169 -2.61212,28.10747 -5.73375,41.76675 -0.12248,0.53736 -0.24496,1.0747 -0.37113,1.62831 -1.51308,6.59764 -3.20273,13.11103 -5.16562,19.58963 -0.67935,2.24871 -1.32702,4.50371 -1.96102,6.76553 -0.46241,1.61217 -0.92683,3.22362 -1.39303,4.83461 -0.13256,0.46222 -0.26513,0.92452 -0.40171,1.40071 -2.56024,8.86404 -5.46068,17.61336 -8.41664,26.3518 -0.42378,1.2534 -0.84615,2.50733 -1.26696,3.76176 -9.48398,28.22517 -9.48398,28.22517 -16.13638,34.03995 -2.55688,1.25746 -4.65563,1.48534 -7.4896,1.51194 -0.42142,0.006 -0.84283,0.0106 -1.277,0.0163 -1.43874,0.0157 -2.87727,0.0216 -4.31607,0.0261 -1.07251,0.007 -2.14502,0.0144 -3.21752,0.0217 -3.70323,0.0209 -7.40638,0.0216 -11.10966,0.0216 -0.65501,0 -1.31003,0 -1.9849,0 -33.09616,0.0327 -66.17408,-0.91356 -99.25539,-1.80483 -0.68619,-0.0184 -1.37239,-0.0368 -2.07937,-0.0558 -21.77127,-0.58559 -43.54201,-1.1902 -65.31266,-1.7984 -39.30798,-1.09777 -78.60483,-2.05414 -117.92988,-2.11524 -2.43223,-0.006 -4.86443,-0.0125 -7.29665,-0.0204 -18.1768,-0.0538 -36.17298,0.38874 -54.28237,1.99272 -3.58146,0.31663 -7.16674,0.57609 -10.75276,0.83476 -1.54761,0.11663 -3.09509,0.23495 -4.64257,0.35336 -1.02487,0.0781 -2.04981,0.15554 -3.07478,0.23237 -1.56577,0.11742 -3.13138,0.23678 -4.69698,0.35662 -0.67684,0.0506 -0.67684,0.0506 -1.36736,0.10143 -2.79342,0.21685 -5.54511,0.57884 -8.31725,0.97918 -10.67011,0.87791 -21.47764,0.73723 -32.1757,0.77111 -1.42747,0.006 -2.85494,0.0117 -4.2824,0.0209 -23.31461,0.13556 -23.31461,0.13556 -29.69533,-5.09921 -2.36591,-2.5005 -3.39707,-4.61895 -3.33403,-8.1482 1.78741,-5.75946 6.01921,-9.01265 11.14421,-11.79974 1.68111,-0.6863 3.34404,-1.32782 5.05485,-1.92823 0.48632,-0.17083 0.97265,-0.34167 1.4737,-0.51762 4.8654,-1.65517 9.80157,-2.76966 14.83033,-3.79983 19.56695,-4.03152 40.03369,-9.74044 55.33955,-23.25372 0.40815,-0.34645 0.81631,-0.69291 1.23683,-1.04985 9.97066,-9.09684 13.25336,-22.86722 15.15173,-35.66052 0.11159,-0.73336 0.2232,-1.46677 0.33818,-2.22242 0.45571,-3.70086 0.40925,-7.39721 0.40351,-11.12101 0.002,-1.21786 0.002,-1.21786 0.004,-2.46032 0.003,-2.25276 0.003,-4.50541 0.002,-6.75813 -4.6e-4,-2.4513 0.003,-4.90262 0.006,-7.35392 0.005,-4.86163 0.006,-9.72324 0.006,-14.58487 6.1e-4,-5.82369 0.005,-11.64739 0.01,-17.47109 0.0106,-14.07681 0.0144,-28.1536 0.0176,-42.2304 9.6e-4,-6.66188 0.004,-13.32375 0.006,-19.98562 0.009,-22.81223 0.0155,-45.62446 0.0178,-68.4367 1.4e-4,-1.43191 3e-4,-2.86382 4.4e-4,-4.29574 1.5e-4,-1.43535 2.9e-4,-2.8707 4.3e-4,-4.30604 2.9e-4,-2.87947 5.8e-4,-5.75894 6.6e-4,-8.63841 6e-5,-0.71395 1.5e-4,-1.42788 2.2e-4,-2.16345 0.003,-23.13809 0.0128,-46.27615 0.0281,-69.41423 0.016,-24.47262 0.0251,-48.94522 0.0258,-73.41785 1.3e-4,-2.68852 2.7e-4,-5.37705 4.2e-4,-8.06558 4e-5,-0.66197 7e-5,-1.32395 1.2e-4,-2.00599 6.6e-4,-10.63708 0.009,-21.27416 0.0176,-31.91123 0.01,-10.70046 0.0115,-21.40091 0.006,-32.10138 -0.003,-6.35015 -4.2e-4,-12.70025 0.0105,-19.05039 0.006,-4.25106 0.006,-8.50208 -6.5e-4,-12.75313 -0.003,-2.41612 -0.004,-4.83214 0.004,-7.24824 0.0599,-18.56359 -0.17661,-39.58858 -12.57404,-54.71931 -0.78614,-1.06271 -0.78614,-1.06271 -1.44168,-3.02932 -0.86174,-0.46084 -1.73832,-0.89424 -2.62218,-1.31109 -0.94126,-0.7771 -1.86863,-1.5712 -2.78605,-2.37635 -7.72706,-6.23804 -17.39068,-9.59357 -26.71333,-12.70113 -0.62818,-0.21051 -1.25638,-0.42102 -1.90357,-0.63793 -5.22604,-1.68391 -10.49449,-2.85624 -15.87144,-3.91788 -25.74967,-5.12926 -25.74967,-5.12926 -33.28047,-14.65976 -1.85418,-2.80073 -2.45706,-5.66384 -2.04345,-8.97274 2.81971,-5.22167 6.3328,-6.86902 11.77671,-8.63216 3.24528,-0.88963 6.33671,-1.28305 9.69839,-1.28579 0.73572,-0.002 1.47145,-0.004 2.22947,-0.006 1.19273,0.002 1.19273,0.002 2.40957,0.004 0.84034,-6.6e-4 1.68068,-0.002 2.5465,-0.003 2.28822,-0.002 4.57643,6.6e-4 6.86465,0.005 1.43691,0.003 2.87381,0.004 4.31072,0.006 25.76401,0.0294 51.51941,0.33841 77.25781,1.5548 20.26492,0.95386 40.51272,1.24845 60.79727,1.23429 3.23909,-0.002 6.47816,-1e-4 9.71724,6.5e-4 5.44524,9.6e-4 10.89047,-3.4e-4 16.33571,-0.003 5.50169,-0.003 11.00338,-0.003 16.50507,0 28.22393,0.0158 56.43501,-0.006 84.65329,-0.62668 6.33783,-0.13668 12.67554,-0.20232 19.01455,-0.2526 1.03092,-0.009 2.06181,-0.0175 3.09272,-0.0262 0.50586,-0.004 1.01172,-0.009 1.53291,-0.0131 0.50496,-0.004 1.00992,-0.009 1.53016,-0.0131 0.75715,-0.006 0.75715,-0.006 1.52958,-0.0131 23.5669,-0.20243 47.10543,-0.79615 70.65597,-1.68225 11.25744,-0.4233 22.51845,-0.83668 33.78418,-0.94074 z"
     fill="#1f1f1f"
     id="path2"
     style="fill:#000000;fill-opacity:1;stroke-width:0.655541" />
</svg>
