<?xml version="1.0" encoding="UTF-8" standalone="no"?>
<svg
   version="1.1"
   width="1000"
   height="1000"
   id="svg3"
   sodipodi:docname="lang_pun.svg"
   inkscape:version="1.4.2 (ebf0e940, 2025-05-08)"
   inkscape:export-filename="lang_pun_black.png"
   inkscape:export-xdpi="49.152"
   inkscape:export-ydpi="49.152"
   xmlns:inkscape="http://www.inkscape.org/namespaces/inkscape"
   xmlns:sodipodi="http://sodipodi.sourceforge.net/DTD/sodipodi-0.dtd"
   xmlns="http://www.w3.org/2000/svg"
   xmlns:svg="http://www.w3.org/2000/svg">
  <defs
     id="defs3" />
  <sodipodi:namedview
     id="namedview3"
     pagecolor="#ffffff"
     bordercolor="#000000"
     borderopacity="0.25"
     inkscape:showpageshadow="2"
     inkscape:pageopacity="0.0"
     inkscape:pagecheckerboard="0"
     inkscape:deskcolor="#d1d1d1"
     inkscape:zoom="0.16613984"
     inkscape:cx="-111.35198"
     inkscape:cy="704.22602"
     inkscape:window-width="1712"
     inkscape:window-height="1046"
     inkscape:window-x="0"
     inkscape:window-y="66"
     inkscape:window-maximized="0"
     inkscape:current-layer="svg3" />
  <path
     d="m 209.18849,266.32211 c 1.08672,-0.0374 2.17482,-0.0425 3.26198,-0.0226 0.60097,-0.012 1.20193,-0.0241 1.82113,-0.0363 2.01386,-0.033 4.02534,-0.024 6.03943,-0.0149 1.44381,-0.0146 2.88756,-0.0318 4.33129,-0.0508 3.51517,-0.0393 7.02941,-0.0511 10.54472,-0.0483 2.85911,0.002 5.71803,-0.006 8.57707,-0.021 8.99804,-0.0457 17.99548,-0.0575 26.99359,-0.043 7.0883,0.01 14.17517,-0.0321 21.26315,-0.0983 7.28579,-0.0676 14.57094,-0.0981 21.85708,-0.0893 4.08759,0.004 8.17385,-0.007 12.26113,-0.0565 3.84708,-0.0467 7.69165,-0.0413 11.53894,-0.002 1.40863,0.007 2.81749,-0.004 4.22588,-0.0323 10.34589,-0.19573 10.34589,-0.19573 13.45061,2.22852 2.16053,2.31958 3.69471,4.90402 5.1186,7.72142 0.97073,1.85307 2.15468,3.50831 3.36035,5.21666 0.83566,1.24783 1.66922,2.49706 2.50071,3.74767 0.2215,0.33298 0.44304,0.66599 0.67123,1.00906 22.21062,33.42713 40.80017,69.91559 50.13616,109.14065 0.20028,0.8377 0.20028,0.8377 0.40463,1.69231 5.28898,22.72635 7.89983,47.4861 4.26396,70.67085 -0.0879,0.59175 -0.17584,1.18349 -0.26643,1.7932 -5.1977,34.28681 -20.05452,66.35954 -41.75087,93.32933 -0.63192,0.78988 -0.63192,0.78988 -1.2766,1.59571 -2.43436,3.00821 -4.92877,5.96501 -7.44055,8.90863 -0.29304,0.34402 -0.5861,0.68802 -0.88804,1.04246 -1.43547,1.67291 -2.89056,3.31399 -4.41428,4.90725 -0.27462,0.28963 -0.54925,0.57925 -0.83219,0.87764 -0.74892,0.78342 -1.50706,1.55803 -2.26577,2.33201 -1.07385,1.21896 -1.07385,1.21896 -1.00757,2.45967 0.91452,1.80542 2.12262,3.33792 3.38974,4.90339 0.28992,0.36123 0.5798,0.72244 0.8785,1.09463 0.9173,1.13525 1.8423,2.26385 2.76886,3.3916 0.26759,0.33023 0.53523,0.66049 0.81093,1.00073 4.39471,5.39421 9.24043,10.33888 14.14314,15.26639 0.30867,0.31173 0.61736,0.62349 0.93538,0.94468 4.03783,4.06893 8.19189,7.83616 12.70565,11.38332 0.64599,0.52112 1.29188,1.04237 1.93764,1.5638 18.35548,14.36735 39.83849,24.71557 62.83905,28.78203 0.56019,0.10471 1.12041,0.20952 1.69759,0.3174 6.52628,1.09058 13.03822,1.08095 19.63933,1.06859 0.90812,-2e-4 0.90812,-2e-4 1.83457,-3.5e-4 13.83688,-0.0279 27.17544,-1.31093 40.43806,-5.47066 0.81978,-0.25291 0.81978,-0.25291 1.65611,-0.51092 14.78983,-4.60568 29.51477,-10.75595 42.11191,-19.91415 0.83616,-0.59805 0.83616,-0.59805 1.68919,-1.20817 10.41197,-7.61455 20.86864,-16.58028 28.0731,-27.38695 0.17471,-1.11711 0.17471,-1.11711 0.14868,-2.35033 0.004,-0.48073 0.007,-0.96149 0.01,-1.4568 -0.004,-0.7936 -0.004,-0.7936 -0.007,-1.60322 0.002,-0.56363 0.004,-1.12726 0.007,-1.70798 0.007,-1.90681 0.004,-3.81357 0.004,-5.7204 0.004,-1.37356 0.007,-2.74714 0.0101,-4.12072 0.007,-2.99574 0.0109,-5.99146 0.012,-8.98718 5.8e-4,-4.45458 0.007,-8.90914 0.0169,-13.36371 0.0147,-7.49262 0.024,-14.98518 0.0302,-22.47781 0.006,-7.42103 0.0148,-14.84201 0.0263,-22.26306 8.6e-4,-0.69153 8.6e-4,-0.69153 0.002,-1.39705 0.004,-2.34124 0.007,-4.68246 0.011,-7.02371 0.0265,-16.59266 0.0479,-33.18533 0.066,-49.77799 0.0176,-16.12181 0.0376,-32.24361 0.061,-48.36541 0.002,-1.0134 0.004,-2.0268 0.004,-3.04017 0.0121,-8.23399 0.0241,-16.46799 0.0361,-24.70197 0.0561,-38.09317 0.0994,-76.18637 0.14474,-114.27956 52.95933,0 105.91866,0 160.4828,0 5.48853,14.15458 5.48853,14.15458 11.08793,28.59511 3.55636,9.00902 3.55636,9.00902 7.13225,18.01016 1.10079,4.43851 -0.7605,7.49413 -2.46368,11.7521 -34.4717,0 -68.9434,0 -104.45969,0 0.0549,23.01142 0.0549,23.01142 0.11102,46.48772 0.0233,10.24226 0.0467,20.48456 0.0685,30.72683 0,0.65062 0.006,1.30123 0.006,1.97155 0.0467,21.89477 0.0833,43.78952 0.11269,65.68431 0,0.71435 0,1.4287 0,2.1647 0.0211,15.52358 0.0403,31.04714 0.0584,46.57073 0.008,7.6124 0.018,15.2248 0.0268,22.83722 0,0.75753 0,1.51506 0,2.29556 0.0298,24.56805 0.0826,49.13592 0.14687,73.70388 0.066,25.24009 0.10922,50.48017 0.12338,75.72039 0,3.56237 0.006,7.12481 0.007,10.68719 6e-4,1.05175 6e-4,1.05175 0,2.12478 0.007,11.30106 0.0412,22.60198 0.0822,33.903 0.0415,11.35265 0.0571,22.70516 0.0467,34.05789 -0.006,6.75072 0.008,13.5007 0.0513,20.25123 0.0263,4.50502 0.0268,9.00956 0.007,13.51459 -0.01,2.57005 -0.01,5.13882 0.0216,7.70883 0.0285,2.33716 0.0243,4.67202 -0.006,7.00919 -0.006,0.84122 0,1.68258 0.0216,2.52354 0.0565,2.54526 -0.007,4.78221 -0.891,7.1825 -2.08596,2.0186 -4.21824,3.26862 -7.00287,4.08504 -2.50331,-0.21148 -4.31613,-0.86073 -6.51964,-2.04252 -0.60231,-0.31805 -1.20456,-0.63613 -1.82513,-0.96383 -0.66452,-0.35599 -1.32903,-0.71189 -2.0137,-1.07869 -1.50707,-0.7964 -3.01685,-1.58753 -4.52727,-2.37758 -0.41754,-0.21867 -0.83507,-0.43732 -1.26529,-0.66261 -6.98466,-3.64259 -14.05561,-7.11829 -21.10962,-10.62406 -16.19559,-8.05012 -16.19559,-8.05012 -23.43106,-12.01299 -0.68936,-0.29897 -1.37867,-0.59794 -2.08891,-0.90594 -1.09662,-0.63493 -1.09662,-0.63493 -1.9961,-1.42835 -0.42792,-1.81755 -0.55127,-3.0445 -0.51339,-4.86671 -0.008,-0.74295 -0.008,-0.74295 -0.018,-1.5009 -0.0146,-1.66265 -3.3e-4,-3.32379 0.0138,-4.98645 -0.004,-1.19044 -0.0109,-2.38093 -0.0189,-3.57142 -0.0168,-3.23485 -0.008,-6.46928 0.004,-9.7042 0.008,-3.37947 -0.004,-6.75882 -0.0163,-10.13831 -0.0182,-6.40082 -0.0157,-12.80145 -0.006,-19.20227 0.01,-7.28647 -0.002,-14.57288 -0.0172,-21.85938 -0.03,-14.9901 -0.0304,-29.98007 -0.0122,-44.97012 -0.39102,0.35503 -0.78205,0.71014 -1.18494,1.07596 -0.51814,0.46874 -1.03624,0.93753 -1.57006,1.42043 -0.51142,0.46341 -1.02282,0.92684 -1.54971,1.40426 -28.66244,25.30148 -68.96379,33.25047 -106.16263,31.03397 -38.21786,-2.72091 -75.44813,-19.40394 -106.03854,-41.93754 -0.59649,-0.43538 -0.59649,-0.43538 -1.20505,-0.87962 -5.08817,-3.71905 -9.99881,-7.58871 -14.76059,-11.71681 -1.0138,-0.87384 -2.03581,-1.73727 -3.05976,-2.59928 -3.47604,-2.93457 -6.85824,-5.88401 -10.00282,-9.17984 -1.14369,-1.12991 -2.31388,-2.16871 -3.53335,-3.21423 -2.41294,-2.09449 -4.59377,-4.34657 -6.7567,-6.69517 -0.37888,-0.40826 -0.75773,-0.81646 -1.14806,-1.23712 -1.10296,-1.19025 -2.20248,-2.38361 -3.30171,-3.57737 -0.55913,-0.60264 -1.11838,-1.20526 -1.67776,-1.80773 -3.28278,-3.56487 -6.38745,-7.24367 -9.41011,-11.03088 -0.36181,-0.44965 -0.36181,-0.44965 -0.73091,-0.90841 -14.61338,-18.18017 -27.01863,-37.86661 -37.51172,-58.67882 -0.75098,-1.47951 -1.51721,-2.94897 -2.29525,-4.41441 -0.30017,-0.573 -0.30017,-0.573 -0.60638,-1.15761 -0.4941,-0.9431 -0.99223,-1.88409 -1.49084,-2.82483 -0.54402,-1.4612 -0.54402,-1.4612 -0.51438,-2.65799 0.79769,-1.63806 1.93409,-2.65836 3.25298,-3.90949 2.55332,-2.48132 4.91014,-5.02882 7.22172,-7.73235 0.56996,-0.65029 1.14068,-1.2999 1.71196,-1.94905 4.27165,-4.86577 8.36419,-9.8293 12.29381,-14.97459 0.3356,-0.43715 0.67121,-0.87434 1.01697,-1.32472 5.19131,-6.77641 10.13772,-13.66062 14.73953,-20.85109 0.30523,-0.47588 0.61045,-0.9518 0.92493,-1.44213 11.81853,-18.52279 21.59127,-38.12596 25.91947,-59.83313 0.15947,-0.72139 0.31895,-1.44281 0.48326,-2.18609 3.87438,-18.5553 3.87575,-39.27381 0.68387,-57.922 -0.12165,-0.79545 -0.24253,-1.591 -0.36246,-2.38675 -2.67175,-16.08037 -8.15988,-32.08028 -15.88224,-46.44698 -0.67893,-1.35362 -0.67893,-1.35362 -1.19865,-2.84743 -0.78609,-1.85461 -1.48538,-2.97792 -2.98174,-4.34192 -3.50608,-0.90267 -6.97561,-0.77246 -10.57584,-0.71607 -1.09293,-0.004 -2.18581,-0.011 -3.2787,-0.0198 -2.96382,-0.0173 -5.92647,8.7e-4 -8.89017,0.0263 -3.09831,0.0201 -6.19647,0.007 -9.29479,-0.002 -5.86561,-0.013 -11.73073,0.004 -17.59626,0.0315 -6.67827,0.03 -13.35639,0.0268 -20.03471,0.021 -13.73635,-0.0111 -27.47234,0.0186 -41.20856,0.0759 -2.47196,-5.50499 -2.47196,-5.50499 -3.46169,-8.09764 -0.18961,-0.49459 -0.37923,-0.98926 -0.57458,-1.49891 -0.19737,-0.51918 -0.39475,-1.0384 -0.59813,-1.57331 -0.3192,-0.8343 -0.3192,-0.8343 -0.64486,-1.68545 -0.68556,-1.79316 -1.36897,-3.58711 -2.05188,-5.38129 -0.70612,-1.85392 -1.41235,-3.7078 -2.11859,-5.56169 -0.46794,-1.22843 -0.93566,-2.45691 -1.40316,-3.68548 -1.35671,-3.56144 -2.73111,-7.11527 -4.12399,-10.66271 -0.3068,-0.78694 -0.61337,-1.57395 -0.91967,-2.36106 -0.54861,-1.40688 -1.10273,-2.81166 -1.66323,-4.21384 -0.23766,-0.61365 -0.47534,-1.22732 -0.7202,-1.85956 -0.20513,-0.51916 -0.41027,-1.03832 -0.62163,-1.57321 -0.67091,-2.72918 0.36654,-5.00457 1.64075,-7.41958 1.37394,-2.19247 2.20916,-3.16614 4.80502,-3.52933 z"
     fill="#1f1f1f"
     id="path2"
     style="fill:#000000;fill-opacity:1;stroke-width:0.583574" />
  <path
     d="m 614.90011,55.704778 c 0.39347,-6.4e-4 0.78696,-9.5e-4 1.19236,-0.002 6.78374,9.5e-4 6.78374,9.5e-4 9.9685,0.69491 0.79415,0.0903 1.58995,0.16726 2.38671,0.23024 30.07733,2.56373 58.30064,14.287973 78.35732,37.452443 9.43109,11.286349 16.13084,24.681609 20.21424,38.765499 0.18428,0.63415 0.36859,1.26831 0.55848,1.92169 2.10221,7.83919 2.60059,15.61587 2.57824,23.68259 -6.2e-4,0.47311 0,0.9462 0,1.43365 -0.11334,28.14635 -11.11914,54.39365 -29.97897,75.08745 -0.42747,0.51019 -0.85491,1.02035 -1.29536,1.54596 -2.0693,1.74968 -3.12794,1.72668 -5.81082,1.70319 -0.61536,5.8e-4 -0.61536,5.8e-4 -1.24319,8.6e-4 -1.34869,-0.002 -2.69623,-0.0247 -4.04474,-0.0475 -0.93786,-0.006 -1.87574,-0.01 -2.81365,-0.0125 -2.4629,-0.011 -4.92535,-0.0397 -7.38809,-0.0721 -2.51527,-0.03 -5.03058,-0.0431 -7.54594,-0.0578 -4.93141,-0.0314 -9.86235,-0.081 -14.79337,-0.14249 0.55455,-0.74285 1.10966,-1.48536 1.66493,-2.22772 0.30905,-0.41351 0.61811,-0.82703 0.9365,-1.25311 0.74052,-0.97733 1.50347,-1.93763 2.2723,-2.8929 6.5717,-8.17513 11.65096,-17.17211 15.55135,-26.88997 0.21811,-0.48295 0.43626,-0.96592 0.66105,-1.4635 1.44921,-3.27493 2.32828,-6.6726 3.20509,-10.13502 0.12048,-0.47524 0.24093,-0.9505 0.36506,-1.44015 1.64496,-6.73776 2.40128,-13.17195 2.37047,-20.11562 0,-0.38585 0,-0.77166 -0.006,-1.16916 -0.09,-17.28204 -6.77915,-30.63731 -18.47861,-42.99537 -13.17604,-12.77813 -32.68037,-15.66835 -50.23295,-15.68811 -0.43634,-8.6e-4 -0.87271,-0.002 -1.3223,-0.004 -8.37768,0.004 -16.83263,0.47079 -24.90203,2.88511 -0.76104,0.22416 -0.76104,0.22416 -1.53746,0.45288 -8.44799,2.60923 -15.96124,6.38512 -22.75439,12.05728 -0.61386,0.45737 -1.22771,0.91476 -1.86015,1.38598 -2.58811,2.41559 -4.72898,5.15637 -6.89346,7.95119 -0.35657,0.45739 -0.71315,0.91477 -1.08053,1.386 -4.14687,5.60489 -7.62231,12.28348 -9.42381,19.03911 -0.11124,0.37837 -0.22265,0.75678 -0.33737,1.14662 -5.32205,19.19738 -0.43988,41.42044 9.04339,58.43603 0.2083,0.36598 0.41659,0.73193 0.63118,1.10902 0.22106,0.38855 0.44214,0.77709 0.6699,1.1774 2.9506,5.10098 6.23684,9.67646 10.15812,14.07303 1.40832,1.65131 2.57374,3.36111 3.76131,5.17465 -5.09841,0.19071 -10.19556,0.33513 -15.2968,0.4233 -2.36985,0.0424 -4.73724,0.0996 -7.10567,0.19306 -17.4195,0.66944 -17.4195,0.66944 -22.26889,-3.41881 -1.34217,-1.3728 -2.53226,-2.77935 -3.63442,-4.35109 -0.69664,-0.99124 -1.44069,-1.88583 -2.24642,-2.78959 -1.32828,-1.4949 -2.52508,-3.04318 -3.72015,-4.64624 -0.23048,-0.30341 -0.46096,-0.60685 -0.69842,-0.91948 -8.12025,-10.72888 -13.19481,-22.19615 -16.99117,-35.07969 -0.13443,-0.44889 -0.26885,-0.89775 -0.40732,-1.36023 -2.43257,-8.65987 -3.2017,-17.20444 -3.13999,-26.16291 0.008,-1.62205 1e-5,-3.24323 -0.0109,-4.86522 -0.01,-8.43507 1.07258,-16.23654 3.55844,-24.32774 0.14877,-0.48619 0.29752,-0.97239 0.45079,-1.47332 4.82412,-15.23173 13.31242,-27.95408 24.24168,-39.449779 0.36108,-0.3987 0.72216,-0.79741 1.09418,-1.20818 23.77616,-25.368333 60.13673,-32.719223 93.37181,-32.748533 z"
     fill="#1f1f1f"
     id="path3"
     style="fill:#000000;fill-opacity:1;stroke-width:0.583574"
     inkscape:export-filename="path3.png"
     inkscape:export-xdpi="49.152"
     inkscape:export-ydpi="49.152" />
</svg>
