<?xml version="1.0" encoding="UTF-8" standalone="no"?>
<!-- Created with Inkscape (http://www.inkscape.org/) -->

<svg
   version="1.0"
   id="svg2"
   sodipodi:version="0.32"
   inkscape:version="1.4.2 (ebf0e940, 2025-05-08)"
   sodipodi:docname="skl_python.svg"
   width="1000pt"
   height="1000pt"
   inkscape:export-filename="skl_python.png"
   inkscape:export-xdpi="18.431999"
   inkscape:export-ydpi="18.431999"
   xmlns:inkscape="http://www.inkscape.org/namespaces/inkscape"
   xmlns:sodipodi="http://sodipodi.sourceforge.net/DTD/sodipodi-0.dtd"
   xmlns:xlink="http://www.w3.org/1999/xlink"
   xmlns="http://www.w3.org/2000/svg"
   xmlns:svg="http://www.w3.org/2000/svg"
   xmlns:rdf="http://www.w3.org/1999/02/22-rdf-syntax-ns#"
   xmlns:cc="http://creativecommons.org/ns#"
   xmlns:dc="http://purl.org/dc/elements/1.1/">
  <metadata
     id="metadata371">
    <rdf:RDF>
      <cc:Work
         rdf:about="">
        <dc:format>image/svg+xml</dc:format>
        <dc:type
           rdf:resource="http://purl.org/dc/dcmitype/StillImage" />
      </cc:Work>
    </rdf:RDF>
  </metadata>
  <sodipodi:namedview
     inkscape:window-height="1046"
     inkscape:window-width="1712"
     inkscape:pageshadow="2"
     inkscape:pageopacity="0.0"
     guidetolerance="10.0"
     gridtolerance="10.0"
     objecttolerance="10.0"
     borderopacity="1.0"
     bordercolor="#666666"
     pagecolor="#ffffff"
     id="base"
     inkscape:zoom="0.29768366"
     inkscape:cx="424.94774"
     inkscape:cy="755.83591"
     inkscape:window-x="0"
     inkscape:window-y="66"
     inkscape:current-layer="svg2"
     width="210mm"
     height="40mm"
     units="mm"
     inkscape:showpageshadow="2"
     inkscape:pagecheckerboard="0"
     inkscape:deskcolor="#d1d1d1"
     inkscape:document-units="pt"
     inkscape:window-maximized="0" />
  <defs
     id="defs4">
    <linearGradient
       id="linearGradient2795">
      <stop
         style="stop-color:#b8b8b8;stop-opacity:0.49803922;"
         offset="0"
         id="stop2797" />
      <stop
         style="stop-color:#7f7f7f;stop-opacity:0;"
         offset="1"
         id="stop2799" />
    </linearGradient>
    <linearGradient
       id="linearGradient2787">
      <stop
         style="stop-color:#7f7f7f;stop-opacity:0.5;"
         offset="0"
         id="stop2789" />
      <stop
         style="stop-color:#7f7f7f;stop-opacity:0;"
         offset="1"
         id="stop2791" />
    </linearGradient>
    <linearGradient
       id="linearGradient3676">
      <stop
         style="stop-color:#b2b2b2;stop-opacity:0.5;"
         offset="0"
         id="stop3678" />
      <stop
         style="stop-color:#b3b3b3;stop-opacity:0;"
         offset="1"
         id="stop3680" />
    </linearGradient>
    <linearGradient
       id="linearGradient3236">
      <stop
         style="stop-color:#f4f4f4;stop-opacity:1"
         offset="0"
         id="stop3244" />
      <stop
         style="stop-color:white;stop-opacity:1"
         offset="1"
         id="stop3240" />
    </linearGradient>
    <linearGradient
       id="linearGradient4671">
      <stop
         style="stop-color:#ffd43b;stop-opacity:1;"
         offset="0"
         id="stop4673" />
      <stop
         style="stop-color:#ffe873;stop-opacity:1"
         offset="1"
         id="stop4675" />
    </linearGradient>
    <linearGradient
       id="linearGradient4689">
      <stop
         style="stop-color:#5a9fd4;stop-opacity:1;"
         offset="0"
         id="stop4691" />
      <stop
         style="stop-color:#306998;stop-opacity:1;"
         offset="1"
         id="stop4693" />
    </linearGradient>
    <linearGradient
       x1="224.23996"
       y1="144.75717"
       x2="-65.308502"
       y2="144.75717"
       id="linearGradient2987"
       xlink:href="#linearGradient4671"
       gradientUnits="userSpaceOnUse"
       gradientTransform="translate(100.2702,99.61116)" />
    <linearGradient
       x1="172.94208"
       y1="77.475983"
       x2="26.670298"
       y2="76.313133"
       id="linearGradient2990"
       xlink:href="#linearGradient4689"
       gradientUnits="userSpaceOnUse"
       gradientTransform="translate(100.2702,99.61116)" />
    <linearGradient
       inkscape:collect="always"
       xlink:href="#linearGradient4689"
       id="linearGradient2587"
       gradientUnits="userSpaceOnUse"
       gradientTransform="translate(100.2702,99.61116)"
       x1="172.94208"
       y1="77.475983"
       x2="26.670298"
       y2="76.313133" />
    <linearGradient
       inkscape:collect="always"
       xlink:href="#linearGradient4671"
       id="linearGradient2589"
       gradientUnits="userSpaceOnUse"
       gradientTransform="translate(100.2702,99.61116)"
       x1="224.23996"
       y1="144.75717"
       x2="-65.308502"
       y2="144.75717" />
    <linearGradient
       inkscape:collect="always"
       xlink:href="#linearGradient4689"
       id="linearGradient2248"
       gradientUnits="userSpaceOnUse"
       gradientTransform="translate(100.2702,99.61116)"
       x1="172.94208"
       y1="77.475983"
       x2="26.670298"
       y2="76.313133" />
    <linearGradient
       inkscape:collect="always"
       xlink:href="#linearGradient4671"
       id="linearGradient2250"
       gradientUnits="userSpaceOnUse"
       gradientTransform="translate(100.2702,99.61116)"
       x1="224.23996"
       y1="144.75717"
       x2="-65.308502"
       y2="144.75717" />
    <linearGradient
       inkscape:collect="always"
       xlink:href="#linearGradient4671"
       id="linearGradient2255"
       gradientUnits="userSpaceOnUse"
       gradientTransform="matrix(0.562541,0,0,0.567972,-11.5974,-7.60954)"
       x1="224.23996"
       y1="144.75717"
       x2="-65.308502"
       y2="144.75717" />
    <linearGradient
       inkscape:collect="always"
       xlink:href="#linearGradient4689"
       id="linearGradient2258"
       gradientUnits="userSpaceOnUse"
       gradientTransform="matrix(0.562541,0,0,0.567972,-11.5974,-7.60954)"
       x1="172.94208"
       y1="76.176224"
       x2="26.670298"
       y2="76.313133" />
    <radialGradient
       inkscape:collect="always"
       xlink:href="#linearGradient2795"
       id="radialGradient2801"
       cx="61.518883"
       cy="132.28575"
       fx="61.518883"
       fy="132.28575"
       r="29.036913"
       gradientTransform="matrix(1,0,0,0.177966,0,108.7434)"
       gradientUnits="userSpaceOnUse" />
    <linearGradient
       inkscape:collect="always"
       xlink:href="#linearGradient4671"
       id="linearGradient1475"
       gradientUnits="userSpaceOnUse"
       gradientTransform="matrix(5.7353249,0,0,5.7274433,-52.840312,-18.006989)"
       x1="150.96111"
       y1="192.35176"
       x2="112.03144"
       y2="137.27299" />
    <linearGradient
       inkscape:collect="always"
       xlink:href="#linearGradient4689"
       id="linearGradient1478"
       gradientUnits="userSpaceOnUse"
       gradientTransform="matrix(5.7353249,0,0,5.7274433,-52.840312,-18.006989)"
       x1="26.648937"
       y1="20.603781"
       x2="135.66525"
       y2="114.39767" />
  </defs>
  <path
     style="fill:url(#linearGradient1478);fill-opacity:1;stroke-width:10.1396"
     d="m 659.91842,100.00927 c -46.73213,0.21477 -91.36026,4.15681 -130.62843,11.0294 -115.67909,20.21347 -136.68193,62.52198 -136.68194,140.54607 v 103.04613 h 273.36389 v 34.3487 H 392.60805 290.01695 c -79.44716,0 -149.01337,47.23071 -170.77279,137.0797 -25.099215,102.98779 -26.212505,167.25385 0,274.78965 19.43169,80.04549 65.83717,137.07967 145.28432,137.07969 h 93.98873 V 814.39932 c 0,-89.24262 78.06757,-167.96199 170.77278,-167.96201 h 273.04528 c 76.00613,0 136.68196,-61.8974 136.68196,-137.39483 V 251.58474 c 0,-73.27393 -62.49754,-128.31695 -136.68196,-140.54607 -46.95983,-7.73168 -95.68472,-11.244173 -142.41685,-11.0294 z m -147.83315,82.87807 c 28.23661,0 51.29555,23.1796 51.29555,51.68062 -2e-5,28.4 -23.05894,51.36549 -51.29555,51.36549 -28.33784,-10e-6 -51.29555,-22.9655 -51.29555,-51.36549 -10e-6,-28.50101 22.95771,-51.68062 51.29555,-51.68062 z"
     id="path1948" />
  <path
     style="fill:url(#linearGradient1475);fill-opacity:1;stroke-width:10.1396"
     d="m 973.10803,388.97957 v 120.06291 c 0,93.08316 -79.78803,171.42839 -170.77276,171.4284 H 529.28999 c -74.79168,0 -136.68193,63.31237 -136.68194,137.39483 v 257.45759 c 0,73.274 64.42047,116.3729 136.68194,137.3949 86.53164,25.1658 169.51096,29.7139 273.04528,0 68.82046,-19.7082 136.68196,-59.3709 136.68196,-137.3949 V 972.27732 H 665.97194 v -34.34871 h 273.04529 136.68187 c 79.4472,0 109.0525,-54.81078 136.6819,-137.07969 28.5403,-84.69457 27.3259,-166.14212 0,-274.78965 -19.634,-78.22622 -57.1336,-137.0797 -136.6819,-137.0797 z M 819.53999,1040.9747 c 28.33786,0 51.29556,22.9655 51.29556,51.3655 -2e-5,28.5009 -22.95773,51.6805 -51.29556,51.6805 -28.23664,0 -51.29556,-23.1796 -51.29556,-51.6805 2e-5,-28.4 23.05889,-51.3655 51.29556,-51.3655 z"
     id="path1950" />
</svg>
