<svg width="125mm" height="100mm" version="1.1" viewBox="0 0 125 100" xmlns="http://www.w3.org/2000/svg">
<path transform="translate(-11.564)" d="m28.203 58.93q-3.048 0-4.4253-2.5739t-0.56445-7.0895q0.7225-4.0189 2.3707-6.9766 1.6708-2.9803 4.1769-4.6059 2.5287-1.6256 5.8251-1.6256h4.1092l3.1383-17.701q0.15805-0.9257 0.79023-1.2869 0.65476-0.36125 1.4224-0.33867 0.94828 0.02258 1.6256 0.60961 0.69992 0.58703 0.49672 1.6482l-5.4639 31.022q-0.15805 1.016-0.22578 2.0546-0.04516 1.016 0.11289 1.6708 0.15805 0.65476 0.60961 0.65476 0.58703 0 1.0837-0.38383t0.99343-1.1515l0.65476-0.97085q0.45156-0.74507 0.88054-1.1289 0.45156-0.4064 0.97085-0.4064 0.74507 0 1.2869 0.45156t0.54187 1.3773q0 0.47414-0.31609 1.2869t-1.0612 1.8288q-1.1966 1.6708-2.4836 2.5287-1.2869 0.83539-3.1158 0.83539-1.6256 0-2.619-0.94828-0.99343-0.94828-1.3998-2.6416t-0.27094-3.906l0.11289-0.83539q-2.3707 4.2221-4.6736 6.4122t-4.5833 2.1901zm1.1063-3.906q0.99343 0 2.1449-1.0386 1.1741-1.0386 2.3933-2.8448 1.2418-1.8288 2.461-4.1995 1.2418-2.3933 2.3707-5.0575l0.33867-1.9643h-3.2287q-2.2126 0-3.8383 1.1741-1.6256 1.1515-2.6868 3.2512-1.0386 2.0998-1.5353 4.8768-0.42898 2.6416 0 4.2221 0.45156 1.5805 1.5805 1.5805zm29.774 3.8383q-3.4319 0-5.4187-2.4384-1.9643-2.461-1.9643-6.6831 0-4.1544 1.2869-7.2701 1.3095-3.1158 3.6351-4.8543 2.3481-1.7385 5.3961-1.7385 0.51929 0 1.1289 0.06773 0.60961 0.04516 1.2418 0.15805 0.63218 0.09031 1.1289 0.18062 0.11289 0.02258 0.65476 0.13547 0.54187 0.09031 1.7837 0.33867 1.2644 0.22578 3.4996 0.65476 1.0612 0.2032 1.5353 0.79023 0.47414 0.56445 0.47414 1.3321 0 1.2869-0.88054 1.8514t-2.1901 0.38383l-0.9257-0.18062q0.22578 0.51929 0.33867 1.1515t0.11289 1.3547q0 3.0706-0.85796 5.7574-0.83539 2.6642-2.3255 4.6962t-3.4544 3.1835q-1.9643 1.1289-4.1995 1.1289zm0.27094-3.9286q1.7837 0 3.2061-1.4676 1.4224-1.4901 2.2578-3.9286 0.85796-2.461 0.85796-5.4187 0-2.0094-1.0386-3.1835t-2.8222-1.1741q-1.7385 0-3.0932 1.2418-1.3321 1.2418-2.0998 3.4544-0.74507 2.1901-0.74507 5.0123 0 2.461 0.9257 3.9737 0.9257 1.4901 2.5513 1.4901zm22.343 3.7254q-0.85796 0-1.5127-0.58703-0.63218-0.58703-0.47414-1.6482l2.1901-12.373q0.09031-0.51929 0.11289-1.1515 0.04516-0.65476 0-1.2192-0.04516-0.58703-0.22578-0.94828-0.18062-0.38383-0.51929-0.38383-0.63218 0-1.0837 0.38383-0.42898 0.38383-0.88054 1.1515l-0.65476 0.97085q-0.47414 0.74507-0.9257 1.1515-0.42898 0.38383-0.94828 0.38383-0.7225 0-1.2869-0.45156-0.54187-0.47414-0.54187-1.3773 0-0.47414 0.31609-1.2869 0.31609-0.83539 1.0612-1.8288 1.2192-1.6708 2.5287-2.5739 1.3095-0.9257 3.2287-0.76765 1.3095 0.06773 2.303 0.76765 1.016 0.69992 1.5805 1.8966 0.58703 1.1741 0.65476 2.7771 2.1901-2.9803 4.0415-4.4027 1.874-1.4224 4.1092-1.4224 2.3481 0 3.7479 1.1741 1.4224 1.1741 1.8966 3.2738 0.47414 2.0772 0 4.8317l-0.90312 5.1704q-0.15805 0.97085-0.22578 1.9417-0.04516 0.97085 0.11289 1.6256 0.15805 0.65476 0.63218 0.65476 0.56445 0 1.0612-0.38383 0.51929-0.38383 0.99343-1.1515l0.65476-0.97085q0.45156-0.74507 0.90312-1.1289 0.45156-0.4064 0.94828-0.4064 0.74507 0 1.2869 0.45156 0.54188 0.45156 0.54188 1.3773 0 0.47414-0.3161 1.2869-0.31609 0.81281-1.0612 1.8288-1.1966 1.6708-2.4836 2.5287-1.287 0.83539-3.0932 0.83539-1.4676 0-2.4384-0.69992-0.97085-0.7225-1.5127-1.9643t-0.65476-2.8674q-0.09031-1.6256 0.22578-3.4319l0.9257-5.2155q0.22578-1.2644 0.09031-2.3707-0.13547-1.1289-0.7225-1.8288t-1.7385-0.69992q-1.6256 0-3.5222 1.9643-1.874 1.9643-4.2898 5.6445l-1.6482 9.4376q-0.18062 1.016-0.9257 1.5353-0.7225 0.49672-1.5579 0.49672zm33.962 0.4064q-3.048 0-4.6962-1.9869-1.6256-2.0094-1.6256-5.5768 0-3.1383 0.99343-5.9832 1.016-2.8448 2.7319-5.0575 1.7159-2.2352 3.9286-3.5222t4.6285-1.2869q2.5739 0 3.9286 1.1741 1.3773 1.1515 1.3773 3.319 0 1.2192-0.60961 2.3255-0.58702 1.0837-1.6256 2.032-1.016 0.94828-2.2804 1.7837-1.2418 0.83539-2.5739 1.5579-1.1966 0.69992-2.9126 1.5579-1.7159 0.85796-3.2287 1.603-0.0226 0.4064-0.0226 0.76765 0.0226 0.36125 0.0677 0.69992 0.0903 1.1289 0.69992 1.9417 0.6096 0.81281 1.4901 0.81281 1.1966 0 2.461-0.81281t2.3707-2.0998q0.94827-1.1741 1.8062-1.4224 0.88054-0.24836 1.5579 0.27094 0.38382 0.24836 0.58703 0.74507 0.22578 0.47414 0.0677 1.1741-0.13547 0.69992-0.90312 1.6482-1.5353 1.9417-3.7254 3.1383t-4.493 1.1966zm-1.3773-12.057q0.81281-0.42898 1.7159-0.90312t1.7385-0.94828q1.445-0.83539 2.5739-1.6482 1.1289-0.83539 1.7837-1.5805 0.67734-0.74507 0.67734-1.3547 0-0.47414-0.38383-0.9257-0.36125-0.45156-1.0612-0.45156-1.5579 0-2.9577 1.0612-1.3773 1.0386-2.4384 2.8222-1.0612 1.7611-1.6482 3.9286z" stroke="#fff" stroke-width=".08255" style="font-variation-settings:'wght' 500;inline-size:136.581;white-space:pre" aria-label="done"/>
</svg>
