<svg width="190mm" height="100mm" version="1.1" viewBox="0 0 190 100" xmlns="http://www.w3.org/2000/svg">
<path transform="translate(-10.907)" d="m34.999 78.008q-2.1675 0-3.8834-0.6096-1.7159-0.6096-2.6868-1.3547-0.67733-0.51929-0.76764-1.3772-0.09031-0.83538 0.47413-1.6256 0.42898-0.65476 1.1966-0.74507 0.76765-0.09031 1.4901 0.38382 0.69991 0.47413 1.7611 0.8128 1.0837 0.33867 2.3029 0.33867 1.7611 0 3.2512-0.97085 1.4901-0.97084 2.619-3.2286t1.8062-6.1186l2.3029-12.96q-1.3095 2.4836-2.7996 4.4027t-3.048 3.0254q-1.5579 1.0837-3.1157 1.0837-1.9417 0-3.2512-1.2192-1.2869-1.2418-1.7836-3.477-0.47413-2.2578 0.06773-5.2606 0.72249-4.0188 2.3932-6.9314 1.6933-2.9351 4.1769-4.5156 2.4836-1.603 5.5993-1.603h6.4798q1.174 0 1.6256 0.58702 0.47413 0.56444 0.29351 1.6256l-4.5156 25.513q-1.2869 7.3378-4.2446 10.77-2.9577 3.4544-7.7442 3.4544zm2.0094-22.849q0.8128 0 1.7611-0.74507 0.94827-0.74507 1.9643-2.0546 1.016-1.3321 2.0094-3.0254 1.016-1.7159 1.9417-3.6576 0.94827-1.9417 1.7385-3.906l0.33867-1.8514h-3.4544q-3.0706 0-5.1026 2.4836-2.0094 2.4836-2.7545 6.6605-0.27093 1.7611-0.13547 3.1383 0.13547 1.3772 0.58702 2.1675 0.47413 0.79022 1.1063 0.79022zm24.664 3.906q-3.048 0-4.6962-1.9868-1.6256-2.0094-1.6256-5.5767 0-3.1383 0.99342-5.9831 1.016-2.8448 2.7319-5.0574 1.7159-2.2352 3.9285-3.5221 2.2126-1.2869 4.6284-1.2869 2.5739 0 3.9285 1.174 1.3772 1.1515 1.3772 3.3189 0 1.2192-0.6096 2.3255-0.58702 1.0837-1.6256 2.032-1.016 0.94827-2.2804 1.7836-1.2418 0.83538-2.5739 1.5579-1.1966 0.69991-2.9125 1.5579-1.7159 0.85796-3.2286 1.603-0.02258 0.4064-0.02258 0.76764 0.02258 0.36124 0.06773 0.69991 0.09031 1.1289 0.69991 1.9417 0.6096 0.8128 1.4901 0.8128 1.1966 0 2.461-0.8128t2.3707-2.0997q0.94827-1.174 1.8062-1.4224 0.88053-0.24836 1.5579 0.27093 0.38382 0.24836 0.58702 0.74507 0.22578 0.47413 0.06773 1.174-0.13547 0.69991-0.90311 1.6482-1.5353 1.9417-3.7253 3.1383-2.19 1.1966-4.493 1.1966zm-1.3772-12.057q0.8128-0.42898 1.7159-0.90311t1.7385-0.94827q1.445-0.83538 2.5739-1.6482 1.1289-0.83538 1.7836-1.5804 0.67733-0.74507 0.67733-1.3547 0-0.47413-0.38382-0.92569-0.36124-0.45156-1.0612-0.45156-1.5579 0-2.9577 1.0612-1.3772 1.0386-2.4384 2.8222-1.0612 1.7611-1.6482 3.9285zm23.222 11.65q-1.4676 0-2.461-0.72249-0.97085-0.72249-1.4901-1.9643-0.51929-1.2644-0.63218-2.89-0.09031-1.6256 0.24836-3.4544l1.7159-9.7762h-3.8382q-1.1515 0-1.7159-0.51929-0.54187-0.54187-0.54187-1.3772 0-0.83538 0.54187-1.3547 0.54187-0.54187 1.6933-0.54187h4.5156l2.19-12.373q0.13547-0.8128 0.79022-1.2418 0.65476-0.45156 1.3772-0.45156 0.63218 0 1.1966 0.22578t0.85796 0.69991q0.31609 0.47413 0.15804 1.2418l-2.0772 11.899h4.4704q1.174 0 1.7159 0.54187 0.54187 0.51929 0.54187 1.3547 0 0.83538-0.54187 1.3772-0.54187 0.51929-1.7159 0.51929h-5.1252l-1.8062 10.183q-0.13547 0.72249-0.2032 1.4901-0.04515 0.76765-0.02258 1.4224 0.02258 0.65476 0.18062 1.0612 0.18062 0.38382 0.54187 0.38382 0.58702 0 1.0837-0.38382 0.51929-0.38382 0.99342-1.1515l0.65476-0.97085q0.45156-0.74507 0.90311-1.1289 0.45156-0.4064 0.94827-0.4064 0.74507 0 1.2869 0.45156t0.54187 1.3772q0 0.47413-0.31609 1.2869-0.31609 0.8128-1.0612 1.8288-1.1966 1.6708-2.5061 2.5287-1.2869 0.83538-3.0932 0.83538zm19.929 0q-1.4676 0-2.461-0.72249-0.97084-0.72249-1.4901-1.9643-0.51929-1.2644-0.63218-2.89-0.09031-1.6256 0.24836-3.4544l1.7159-9.7762h-3.8382q-1.1515 0-1.7159-0.51929-0.54187-0.54187-0.54187-1.3772 0-0.83538 0.54187-1.3547 0.54187-0.54187 1.6933-0.54187h4.5156l2.19-12.373q0.13547-0.8128 0.79022-1.2418 0.65476-0.45156 1.3772-0.45156 0.63218 0 1.1966 0.22578 0.56445 0.22578 0.85796 0.69991 0.31609 0.47413 0.15804 1.2418l-2.0772 11.899h4.4704q1.174 0 1.7159 0.54187 0.54187 0.51929 0.54187 1.3547 0 0.83538-0.54187 1.3772-0.54186 0.51929-1.7159 0.51929h-5.1252l-1.8062 10.183q-0.13547 0.72249-0.2032 1.4901-0.0452 0.76765-0.0226 1.4224t0.18062 1.0612q0.18062 0.38382 0.54187 0.38382 0.58702 0 1.0837-0.38382 0.51929-0.38382 0.99342-1.1515l0.65476-0.97085q0.45156-0.74507 0.90311-1.1289 0.45156-0.4064 0.94827-0.4064 0.74507 0 1.2869 0.45156 0.54186 0.45156 0.54186 1.3772 0 0.47413-0.31609 1.2869-0.31609 0.8128-1.0612 1.8288-1.1966 1.6708-2.5061 2.5287-1.2869 0.83538-3.0932 0.83538zm17.373-27.793q-1.016 0-1.7385-0.72249-0.72249-0.72249-0.72249-1.7385 0-0.99342 0.69991-1.7159 0.69991-0.72249 1.7611-0.72249 0.99342 0 1.7611 0.67733 0.79022 0.67733 0.79022 1.7611 0 1.016-0.74507 1.7385-0.74506 0.72249-1.8062 0.72249zm-1.5804 27.793q-1.4676 0-2.461-0.72249-0.97084-0.72249-1.4901-1.9643-0.51929-1.2644-0.6096-2.8674-0.0903-1.6256 0.2032-3.4318l2.032-11.537q0.0677-0.47413 0.33867-0.94827 0.29351-0.49671 0.85795-0.8128 0.58703-0.31609 1.5353-0.31609 1.0612 0 1.4901 0.56444 0.45156 0.54187 0.24835 1.603l-2.0772 11.786q-0.15805 1.0386-0.22578 2.0546-0.0677 1.016 0.0903 1.6708 0.15804 0.65476 0.6096 0.65476 0.58702 0 1.0837-0.38382 0.51928-0.38382 0.99342-1.1515l0.65475-0.97085q0.45156-0.74507 0.90312-1.1289 0.45155-0.4064 0.97084-0.4064 0.72249 0 1.2644 0.45156t0.54187 1.3772q0 0.47413-0.31609 1.2869-0.31609 0.8128-1.0386 1.8288-1.1966 1.6708-2.5061 2.5287-1.2869 0.83538-3.0932 0.83538zm14.138 0q-0.85795 0-1.5127-0.58702-0.63218-0.58702-0.47413-1.6482l2.19-12.373q0.0903-0.51929 0.11289-1.1515 0.0452-0.65476 0-1.2192-0.0452-0.58702-0.22577-0.94827-0.18063-0.38382-0.51929-0.38382-0.63218 0-1.0837 0.38382-0.42898 0.38382-0.88053 1.1515l-0.65476 0.97084q-0.47413 0.74507-0.92569 1.1515-0.42898 0.38382-0.94827 0.38382-0.72249 0-1.2869-0.45156-0.54187-0.47413-0.54187-1.3772 0-0.47413 0.31609-1.2869 0.31609-0.83538 1.0612-1.8288 1.2192-1.6708 2.5287-2.5739 1.3095-0.92569 3.2286-0.76764 1.3095 0.06773 2.3029 0.76764 1.016 0.69991 1.5804 1.8965 0.58702 1.174 0.65476 2.7771 2.19-2.9803 4.0414-4.4027 1.874-1.4224 4.1092-1.4224 2.3481 0 3.7479 1.174 1.4224 1.174 1.8965 3.2738 0.47414 2.0772 0 4.8316l-0.90311 5.1703q-0.15805 0.97085-0.22578 1.9417-0.0452 0.97085 0.11289 1.6256 0.15804 0.65476 0.63218 0.65476 0.56444 0 1.0612-0.38382 0.51928-0.38382 0.99342-1.1515l0.65475-0.97085q0.45156-0.74507 0.90312-1.1289 0.45155-0.4064 0.94826-0.4064 0.74507 0 1.2869 0.45156t0.54187 1.3772q0 0.47413-0.31609 1.2869-0.31609 0.8128-1.0612 1.8288-1.1966 1.6708-2.4836 2.5287-1.2869 0.83538-3.0932 0.83538-1.4676 0-2.4384-0.69991-0.97084-0.72249-1.5127-1.9643t-0.65476-2.8674q-0.0903-1.6256 0.22578-3.4318l0.92569-5.2155q0.22578-1.2644 0.0903-2.3707-0.13547-1.1289-0.72249-1.8288t-1.7385-0.69991q-1.6256 0-3.5221 1.9643-1.874 1.9643-4.2898 5.6444l-1.6482 9.4375q-0.18062 1.016-0.92569 1.5353-0.72249 0.49671-1.5579 0.49671zm32.059 19.349q-2.1675 0-3.8834-0.6096-1.7159-0.6096-2.6868-1.3547-0.67734-0.51929-0.76765-1.3772-0.0903-0.83538 0.47414-1.6256 0.42898-0.65476 1.1966-0.74507 0.76765-0.09031 1.4901 0.38382 0.69991 0.47413 1.7611 0.8128 1.0837 0.33867 2.3029 0.33867 1.7611 0 3.2512-0.97085 1.4901-0.97084 2.619-3.2286t1.8062-6.1186l2.3029-12.96q-1.3095 2.4836-2.7996 4.4027-1.4901 1.9191-3.048 3.0254-1.5579 1.0837-3.1157 1.0837-1.9417 0-3.2512-1.2192-1.2869-1.2418-1.7836-3.477-0.47413-2.2578 0.0677-5.2606 0.72249-4.0188 2.3932-6.9314 1.6933-2.9351 4.1769-4.5156 2.4836-1.603 5.5993-1.603h6.4798q1.174 0 1.6256 0.58702 0.47413 0.56444 0.29351 1.6256l-4.5156 25.513q-1.2869 7.3378-4.2446 10.77-2.9577 3.4544-7.7442 3.4544zm2.0094-22.849q0.8128 0 1.7611-0.74507t1.9643-2.0546q1.016-1.3321 2.0094-3.0254 1.016-1.7159 1.9417-3.6576 0.94826-1.9417 1.7385-3.906l0.33866-1.8514h-3.4544q-3.0706 0-5.1026 2.4836-2.0094 2.4836-2.7545 6.6605-0.27093 1.7611-0.13546 3.1383 0.13546 1.3772 0.58702 2.1675 0.47413 0.79022 1.1063 0.79022z" style="font-variation-settings:'wght' 500;inline-size:203.423;stroke-width:.08255;stroke:#fff;white-space:pre" aria-label="getting"/>
</svg>
