<svg width="175mm" height="100mm" version="1.1" viewBox="0 0 175 100" xmlns="http://www.w3.org/2000/svg">
<path transform="translate(-10.6)" d="m37.415 58.659q-1.4676 0-2.461-0.72249-0.97085-0.72249-1.4901-1.9643-0.51929-1.2644-0.63218-2.89-0.09031-1.6256 0.24836-3.4544l1.7159-9.7762h-3.8382q-1.1515 0-1.7159-0.51929-0.54187-0.54187-0.54187-1.3772 0-0.83538 0.54187-1.3547 0.54187-0.54187 1.6933-0.54187h4.5156l2.19-12.373q0.13547-0.8128 0.79022-1.2418 0.65476-0.45156 1.3772-0.45156 0.63218 0 1.1966 0.22578 0.56445 0.22578 0.85796 0.69991 0.31609 0.47413 0.15804 1.2418l-2.0772 11.899h4.4704q1.174 0 1.7159 0.54187 0.54187 0.51929 0.54187 1.3547 0 0.83538-0.54187 1.3772-0.54187 0.51929-1.7159 0.51929h-5.1252l-1.8062 10.183q-0.13547 0.72249-0.2032 1.4901-0.04516 0.76765-0.02258 1.4224t0.18062 1.0612q0.18062 0.38382 0.54187 0.38382 0.58702 0 1.0837-0.38382 0.51929-0.38382 0.99342-1.1515l0.65476-0.97085q0.45156-0.74507 0.90311-1.1289 0.45156-0.4064 0.94827-0.4064 0.74507 0 1.2869 0.45156 0.54187 0.45156 0.54187 1.3772 0 0.47413-0.31609 1.2869-0.31609 0.8128-1.0612 1.8288-1.1966 1.6708-2.5061 2.5287-1.2869 0.83538-3.0932 0.83538zm12.761 0q-0.65476 0-1.1515-0.24836-0.49671-0.27093-0.74507-0.74507t-0.13547-1.1063l6.683-37.886q0.18062-1.0837 0.83538-1.5127 0.65476-0.42898 1.6256-0.42898 1.016 0 1.5579 0.56444 0.54187 0.54187 0.36124 1.6933l-3.9285 22.51q1.9417-2.7545 3.7931-4.1769 1.874-1.445 4.1995-1.445 2.3255 0 3.7479 1.174 1.4224 1.1515 1.8965 3.206 0.47413 2.0546 0 4.8091l-0.88054 4.9445q-0.11289 0.72249-0.18062 1.4901-0.06773 0.76764-0.04516 1.445 0.04516 0.65476 0.2032 1.0612 0.15804 0.38382 0.51929 0.38382 0.58702 0 1.0837-0.38382 0.51929-0.38382 0.99342-1.1515l0.65476-0.97085q0.45156-0.74507 0.90311-1.1289 0.45156-0.4064 0.94827-0.4064 0.74507 0 1.2869 0.45156t0.54187 1.3772q0 0.47413-0.31609 1.2869-0.31609 0.8128-1.0612 1.8288-1.1966 1.6708-2.4836 2.5287-1.2869 0.83538-3.0932 0.83538-1.4676 0-2.461-0.72249-0.97085-0.72249-1.5127-1.9643-0.51929-1.2644-0.6096-2.8674-0.09031-1.6256 0.22578-3.4544l0.90311-5.1026q0.22578-1.2644 0.06773-2.3707-0.13547-1.1063-0.74507-1.8062-0.58702-0.69991-1.7385-0.69991-1.6256 0-3.5447 1.9868-1.9191 1.9868-4.3349 5.7122l-1.6482 9.3246q-0.13547 0.76764-0.76765 1.3772-0.6096 0.58702-1.6482 0.58702zm34.189-27.793q-1.016 0-1.7385-0.72249-0.72249-0.72249-0.72249-1.7385 0-0.99342 0.69991-1.7159 0.69991-0.72249 1.7611-0.72249 0.99342 0 1.7611 0.67733 0.79022 0.67733 0.79022 1.7611 0 1.016-0.74507 1.7385-0.74507 0.72249-1.8062 0.72249zm-1.5804 27.793q-1.4676 0-2.461-0.72249-0.97084-0.72249-1.4901-1.9643-0.51929-1.2644-0.6096-2.8674-0.09031-1.6256 0.2032-3.4318l2.032-11.537q0.06773-0.47413 0.33867-0.94827 0.29351-0.49671 0.85796-0.8128 0.58702-0.31609 1.5353-0.31609 1.0612 0 1.4901 0.56444 0.45156 0.54187 0.24836 1.603l-2.0772 11.786q-0.15804 1.0386-0.22578 2.0546-0.06773 1.016 0.09031 1.6708 0.15804 0.65476 0.6096 0.65476 0.58702 0 1.0837-0.38382 0.51929-0.38382 0.99342-1.1515l0.65476-0.97085q0.45156-0.74507 0.90311-1.1289 0.45156-0.4064 0.97085-0.4064 0.72249 0 1.2644 0.45156 0.54187 0.45156 0.54187 1.3772 0 0.47413-0.31609 1.2869-0.31609 0.8128-1.0386 1.8288-1.1966 1.6708-2.5061 2.5287-1.2869 0.83538-3.0932 0.83538zm14.138 0q-0.85796 0-1.5127-0.58702-0.63218-0.58702-0.47413-1.6482l2.19-12.373q0.09031-0.51929 0.11289-1.1515 0.04516-0.65476 0-1.2192-0.04516-0.58702-0.22578-0.94827-0.18062-0.38382-0.51929-0.38382-0.63218 0-1.0837 0.38382-0.42898 0.38382-0.88054 1.1515l-0.65476 0.97084q-0.47413 0.74507-0.92569 1.1515-0.42898 0.38382-0.94827 0.38382-0.72249 0-1.2869-0.45156-0.54187-0.47413-0.54187-1.3772 0-0.47413 0.31609-1.2869 0.31609-0.83538 1.0612-1.8288 1.2192-1.6708 2.5287-2.5739 1.3095-0.92569 3.2286-0.76764 1.3095 0.06773 2.3029 0.76764 1.016 0.69991 1.5804 1.8965 0.58702 1.174 0.65476 2.7771 2.19-2.9803 4.0414-4.4027 1.874-1.4224 4.1092-1.4224 2.3481 0 3.7479 1.174 1.4224 1.174 1.8965 3.2738 0.47414 2.0772 0 4.8316l-0.90311 5.1703q-0.15804 0.97085-0.22578 1.9417-0.0452 0.97085 0.11289 1.6256 0.15805 0.65476 0.63218 0.65476 0.56445 0 1.0612-0.38382 0.51929-0.38382 0.99342-1.1515l0.65476-0.97085q0.45155-0.74507 0.90311-1.1289 0.45156-0.4064 0.94827-0.4064 0.74506 0 1.2869 0.45156t0.54187 1.3772q0 0.47413-0.31609 1.2869-0.31609 0.8128-1.0612 1.8288-1.1966 1.6708-2.4836 2.5287-1.2869 0.83538-3.0932 0.83538-1.4676 0-2.4384-0.69991-0.97084-0.72249-1.5127-1.9643t-0.65476-2.8674q-0.0903-1.6256 0.22578-3.4318l0.92569-5.2155q0.22578-1.2644 0.0903-2.3707-0.13546-1.1289-0.72249-1.8288-0.58702-0.69991-1.7385-0.69991-1.6256 0-3.5221 1.9643-1.874 1.9643-4.2898 5.6444l-1.6482 9.4375q-0.18062 1.016-0.92569 1.5353-0.72249 0.49671-1.5579 0.49671zm32.059 19.349q-2.1675 0-3.8834-0.6096-1.7159-0.6096-2.6868-1.3547-0.67734-0.51929-0.76765-1.3772-0.0903-0.83538 0.47414-1.6256 0.42898-0.65476 1.1966-0.74507 0.76765-0.09031 1.4901 0.38382 0.69991 0.47413 1.7611 0.8128 1.0837 0.33867 2.3029 0.33867 1.7611 0 3.2512-0.97085 1.4901-0.97084 2.619-3.2286t1.8062-6.1186l2.3029-12.96q-1.3095 2.4836-2.7996 4.4027-1.4901 1.9191-3.048 3.0254-1.5579 1.0837-3.1157 1.0837-1.9417 0-3.2512-1.2192-1.2869-1.2418-1.7836-3.477-0.47413-2.2578 0.0677-5.2606 0.72249-4.0188 2.3932-6.9314 1.6933-2.9351 4.1769-4.5156 2.4836-1.603 5.5993-1.603h6.4798q1.174 0 1.6256 0.58702 0.47413 0.56444 0.29351 1.6256l-4.5156 25.513q-1.2869 7.3378-4.2446 10.77-2.9577 3.4544-7.7442 3.4544zm2.0094-22.849q0.8128 0 1.7611-0.74507t1.9643-2.0546q1.016-1.3321 2.0094-3.0254 1.016-1.7159 1.9417-3.6576 0.94826-1.9417 1.7385-3.906l0.33866-1.8514h-3.4544q-3.0706 0-5.1026 2.4836-2.0094 2.4836-2.7545 6.6605-0.27094 1.7611-0.13547 3.1383 0.13547 1.3772 0.58702 2.1675 0.47413 0.79022 1.1063 0.79022zm25.379 3.906q-1.3095 0-2.9803-0.47413-1.6708-0.47413-3.0932-1.4901-1.3321-0.88053-1.8062-1.7159-0.47413-0.85796 0.0677-1.7159 0.45155-0.79022 1.4224-0.74507 0.99342 0.02258 1.8514 0.6096 0.6096 0.4064 1.8965 1.0837 1.2869 0.65476 2.6642 0.65476 1.4901 0 2.3255-0.85796 0.85795-0.88053 0.85795-1.9191 0-0.74507-0.31609-1.2418-0.31608-0.49671-0.85795-0.90311-0.65476-0.51929-1.7159-1.174-1.0612-0.67733-2.2804-1.3998-1.6933-1.0386-2.8448-2.5964-1.1515-1.5579-1.1515-3.5221 0-2.6868 2.0546-4.222 2.0546-1.5579 5.6896-1.5579 1.3095 0 2.7771 0.27093 1.4676 0.27093 3.0028 1.0837 1.3095 0.65476 1.8062 1.5353 0.49672 0.88053-0.0451 1.8514-0.42898 0.76764-1.3772 0.83538-0.94827 0.04516-1.9643-0.49671-0.65475-0.36124-1.8514-0.85796-1.1966-0.49671-2.5964-0.49671-1.5127 0-2.4158 0.6096-0.90311 0.6096-0.90311 1.5353 0 0.83538 0.83538 1.5804 0.83538 0.74507 2.0772 1.5804 1.174 0.76764 2.3255 1.4676 1.1515 0.67733 1.9643 1.5353 0.88053 0.8128 1.445 1.8514 0.56444 1.016 0.56444 2.8674 0 1.8514-0.94826 3.3189-0.92569 1.445-2.5964 2.2804-1.6708 0.83538-3.8834 0.83538z" style="font-variation-settings:'wght' 500;inline-size:203.423;stroke-width:.08255;stroke:#fff;white-space:pre" aria-label="things"/>
</svg>
