<?xml version="1.0" encoding="UTF-8" standalone="no"?>
<!-- Generator: Adobe Illustrator 27.5.0, SVG Export Plug-In . SVG Version: 6.00 Build 0)  -->

<svg
   version="1.1"
   id="Layer_1"
   x="0px"
   y="0px"
   viewBox="0 0 780 500.00003"
   xml:space="preserve"
   width="206.375mm"
   height="132.29167mm"
   xmlns="http://www.w3.org/2000/svg"
   xmlns:svg="http://www.w3.org/2000/svg"><defs
   id="defs117" />
<g
   id="g117"
   transform="matrix(0.21831636,0,0,0.21831636,-47.074737,-223.154)">
	
	<g
   id="g116">
		<g
   style="opacity:0.2"
   id="g5">
			<g
   id="g4">
				<ellipse
   style="fill:#000070"
   cx="2041.75"
   cy="2807.405"
   rx="1731.2159"
   ry="321.67599"
   id="ellipse3" />
			</g>
		</g>
		<g
   id="g106">
			<g
   id="g7">
				<g
   id="g6">
					<path
   style="fill:#e0dae5"
   d="m 3519.074,2829.452 c 0,0 113.403,9.21 178.709,50.563 35.091,22.22 22.436,76.196 -18.891,80.335 -68.697,6.88 -181.411,14.742 -279.047,5.548"
   id="path5" />
				</g>
			</g>
			<g
   id="g9">
				<g
   id="g8">
					<path
   style="fill:#ffffff"
   d="m 2098.295,2862.915 c 20.317,64.254 -7.157,89.746 -26.373,114.743 -19.216,24.997 -30.172,49.608 -30.172,49.608 -139.244,37.66 -273.588,32.484 -372.418,27.695 -80.056,-3.854 -136.766,-7.434 -153.945,12.168 -38.541,44.047 -105.988,48.177 -130.765,9.635 -24.776,-38.541 -62.382,-76.147 -62.382,-76.147 -270.779,-79.946 -513.424,-191.33 -724.96,-337.731 -148.439,6.608 -207.297,-26.538 -199.809,-89.03 4.129,-34.687 32.264,-61.17 66.731,-66.731 117.771,-18.996 182.63,-110.338 182.63,-110.338 48.727,-79.01 89.305,-142.107 120.854,-189.788 v -0.055 h 0.055 c 50.379,-76.202 77.578,-113.091 77.578,-113.091 0,0 0.33,0 0.936,0.055 21.693,0.716 412.391,14.645 504.064,31.383 94.316,17.289 344.393,54.068 533.52,259.658 189.128,205.59 225.466,241.213 225.466,241.213 0,0 -25.712,53.848 -26.594,130.655 -0.383,32.099 3.581,68.218 15.584,106.098 z"
   id="path7" />
				</g>
			</g>
			<g
   style="opacity:0.3"
   id="g11">
				<g
   id="g10">
					<path
   style="fill:#000070"
   d="m 2098.295,2862.915 c 20.317,64.254 -7.157,89.746 -26.373,114.743 -19.216,24.997 -30.172,49.608 -30.172,49.608 -139.244,37.66 -273.588,32.484 -372.418,27.695 9.635,-2.918 23.125,-3.91 41.239,-2.588 191.109,14.204 265.934,-157.304 106.264,-152.624 -159.671,4.735 -448.73,-18.445 -563.748,-223.814 -115.018,-205.37 -386.018,-124.983 -383.705,-313.174 2.258,-185.109 -98.39,-156.753 -101.638,-155.817 50.379,-76.202 77.578,-113.091 77.578,-113.091 0,0 0.33,0 0.936,0.055 21.693,0.716 412.391,14.645 504.064,31.383 94.316,17.289 344.393,54.068 533.52,259.658 189.128,205.59 225.466,241.213 225.466,241.213 0,0 -25.712,53.848 -26.594,130.655 -0.386,32.099 3.578,68.218 15.581,106.098 z"
   id="path9" />
				</g>
			</g>
			<g
   id="g13">
				<g
   id="g12">
					<path
   style="fill:#3185ff"
   d="m 3450.542,2443.917 c -0.33,21.693 -1.101,43.882 -2.368,66.676 -4.9,66.401 -15.747,123.608 -32.375,171.839 -9.195,26.869 -20.262,50.93 -33.035,72.348 -14.48,24.28 -31.163,45.038 -50.104,62.437 -16.187,14.921 -33.971,27.31 -53.352,37.275 -81.157,41.845 -189.898,41.074 -323.691,1.596 -295.942,-130.6 -513.479,-98.5 -644.079,113.972 l -30.888,-29.016 -81.322,-76.256 c 0,0 9.03,-86.002 20.097,-167.654 9.47,-69.54 20.427,-135.831 28.52,-143.429 17.619,-16.518 166.278,-333.106 166.278,-333.106 0,0 -35.788,-280.8 -35.788,-289.059 0,-4.295 -3.634,-45.479 -7.157,-83.91 -3.138,-35.183 -6.222,-68.108 -6.222,-68.108 5.065,-3.634 10.296,-7.158 15.636,-10.627 22.519,-14.866 47.516,-28.851 74.495,-41.625 23.73,-11.287 49.002,-21.638 75.486,-30.832 h 0.055 c 139.85,-48.893 313.23,-66.622 471.635,-22.464 29.016,8.093 57.592,18.28 85.341,30.778 23.345,10.461 46.195,22.518 68.218,36.393 23.565,14.756 46.304,31.494 67.942,50.38 101.364,88.314 179.217,222.878 211.096,417.896 4.515,27.144 8.038,55.5 10.626,85.066 4.13,46.69 5.892,96.463 4.956,149.43 z"
   id="path11" />
				</g>
			</g>
			<g
   style="opacity:0.55"
   id="g15">
				<g
   id="g14">
					<path
   style="fill:#ffffff"
   d="m 3448.174,2500.593 c -4.9,66.401 -15.747,123.608 -32.375,171.839 -8.809,25.768 -19.325,48.948 -31.493,69.65 15.582,-46.965 25.767,-102.245 30.447,-165.948 4.295,-78.349 3.249,-150.256 -2.588,-216.106 -2.588,-29.567 -6.111,-57.922 -10.626,-85.066 -31.879,-195.018 -109.732,-329.583 -211.096,-417.896 -21.638,-18.885 -44.377,-35.623 -67.942,-50.379 -22.024,-13.875 -44.873,-25.933 -68.218,-36.394 -27.75,-12.498 -56.325,-22.685 -85.341,-30.778 -158.405,-44.157 -331.785,-26.428 -471.634,22.464 h -0.055 c -26.483,9.194 -51.756,19.546 -75.486,30.833 -18.335,8.644 -35.678,17.894 -52.031,27.584 -2.532,-27.97 -4.68,-50.874 -4.68,-50.874 5.065,-3.634 10.296,-7.158 15.636,-10.627 22.519,-14.866 47.516,-28.851 74.495,-41.625 23.73,-11.287 49.002,-21.638 75.486,-30.832 h 0.055 c 139.85,-48.893 313.23,-66.622 471.635,-22.464 29.016,8.093 57.592,18.28 85.341,30.778 23.345,10.461 46.195,22.518 68.218,36.393 23.565,14.756 46.304,31.494 67.942,50.38 101.364,88.314 179.217,222.878 211.096,417.896 4.515,27.144 8.038,55.5 10.626,85.066 5.837,65.851 6.883,137.757 2.588,216.106 z"
   id="path13" />
				</g>
			</g>
			<g
   style="opacity:0.18"
   id="g30">
				<g
   id="g17">
					<g
   id="g16">
						<path
   style="fill:#000070"
   d="m 2880.058,2005.053 c -11.232,-19.49 -4.955,-58.362 -24.446,-69.594 -18.885,-10.957 -49.113,13.599 -72.512,13.599 -23.399,0 -53.627,-24.556 -72.512,-13.599 -19.491,11.232 -13.214,50.104 -24.446,69.594 -10.957,18.885 -48.012,32.54 -48.012,55.94 0,23.4 37.055,37.11 48.012,55.995 11.232,19.491 4.955,58.307 24.446,69.594 18.885,10.957 49.113,-13.6 72.512,-13.6 23.399,0 53.627,24.557 72.512,13.6 19.491,-11.287 13.214,-50.103 24.446,-69.594 10.957,-18.885 48.011,-32.595 48.011,-55.995 0,-23.4 -37.054,-37.055 -48.011,-55.94 z m -96.958,105.493 c -27.364,0 -49.553,-22.188 -49.553,-49.553 0,-27.364 22.189,-49.553 49.553,-49.553 27.364,0 49.553,22.189 49.553,49.553 0,27.365 -22.189,49.553 -49.553,49.553 z"
   id="path15" />
					</g>
				</g>
				<g
   id="g19">
					<g
   id="g18">
						<path
   style="fill:#000070"
   d="m 3380.507,2692.342 c -23.4,0 -53.627,-24.556 -72.512,-13.599 -19.491,11.232 -13.214,50.104 -24.446,69.594 -10.957,18.885 -48.011,32.54 -48.011,55.94 0,20.923 29.677,34.136 43.772,50.214 19.381,-9.965 37.165,-22.354 53.352,-37.275 -1.101,-4.129 -1.707,-8.479 -1.707,-12.939 0,-27.364 22.189,-49.553 49.553,-49.553 0.771,0 1.542,0 2.257,0.055 12.774,-21.418 23.841,-45.479 33.035,-72.348 -12.059,4.571 -24.392,9.911 -35.293,9.911 z"
   id="path17" />
					</g>
				</g>
				<g
   id="g21">
					<g
   id="g20">
						<path
   style="fill:#000070"
   d="m 3434.96,2209.421 c -2.863,-2.863 -5.286,-5.781 -7.048,-8.809 -11.232,-19.491 -4.955,-58.362 -24.446,-69.595 -18.885,-10.957 -49.113,13.6 -72.513,13.6 -23.4,0 -53.627,-24.556 -72.512,-13.6 -19.491,11.232 -13.214,50.104 -24.446,69.595 -10.957,18.885 -48.011,32.54 -48.011,55.94 0,23.4 37.055,37.11 48.011,55.994 11.232,19.491 4.955,58.308 24.446,69.594 18.885,10.957 49.112,-13.599 72.512,-13.599 23.4,0 53.627,24.556 72.513,13.599 19.491,-11.287 13.214,-50.104 24.446,-69.594 3.689,-6.441 10.406,-12.223 17.674,-18.059 -2.588,-29.566 -6.111,-57.922 -10.626,-85.066 z m -104.006,96.684 c -27.364,0 -49.553,-22.189 -49.553,-49.553 0,-27.364 22.189,-49.553 49.553,-49.553 27.364,0 49.553,22.189 49.553,49.553 0,27.364 -22.189,49.553 -49.553,49.553 z"
   id="path19" />
					</g>
				</g>
				<g
   id="g23">
					<g
   id="g22">
						<path
   style="fill:#000070"
   d="m 2981.618,2546.465 c -11.232,-19.49 -4.955,-58.362 -24.446,-69.594 -18.885,-10.957 -49.112,13.599 -72.512,13.599 -23.4,0 -53.627,-24.556 -72.512,-13.599 -19.491,11.232 -13.214,50.103 -24.446,69.594 -10.957,18.885 -48.011,32.54 -48.011,55.94 0,23.4 37.055,37.11 48.011,55.995 11.232,19.491 4.955,58.307 24.446,69.594 18.885,10.957 49.113,-13.6 72.512,-13.6 23.4,0 53.627,24.557 72.512,13.6 19.491,-11.287 13.214,-50.103 24.446,-69.594 10.957,-18.885 48.012,-32.595 48.012,-55.995 0,-23.4 -37.055,-37.054 -48.012,-55.94 z m -96.959,105.493 c -27.364,0 -49.553,-22.188 -49.553,-49.553 0,-27.364 22.189,-49.553 49.553,-49.553 27.364,0 49.553,22.189 49.553,49.553 0,27.365 -22.189,49.553 -49.553,49.553 z"
   id="path21" />
					</g>
				</g>
				<g
   id="g25">
					<g
   id="g24">
						<path
   style="fill:#000070"
   d="m 2502.606,2523.377 c -11.232,-19.49 -4.955,-58.362 -24.446,-69.594 -18.885,-10.957 -49.113,13.599 -72.512,13.599 -23.4,0 -53.627,-24.556 -72.512,-13.599 -19.491,11.232 -13.214,50.104 -24.446,69.594 -10.957,18.885 -48.012,32.54 -48.012,55.94 0,23.4 37.055,37.11 48.012,55.995 11.232,19.491 4.955,58.307 24.446,69.594 18.885,10.957 49.112,-13.6 72.512,-13.6 23.4,0 53.627,24.557 72.512,13.6 19.491,-11.287 13.214,-50.104 24.446,-69.594 10.957,-18.885 48.011,-32.595 48.011,-55.995 0,-23.4 -37.054,-37.054 -48.011,-55.94 z m -96.959,105.493 c -27.364,0 -49.553,-22.188 -49.553,-49.553 0,-27.364 22.189,-49.553 49.553,-49.553 27.364,0 49.553,22.189 49.553,49.553 0,27.365 -22.189,49.553 -49.553,49.553 z"
   id="path23" />
					</g>
				</g>
				<g
   id="g27">
					<g
   id="g26">
						<path
   style="fill:#000070"
   d="m 3155.922,1741.145 c -5.947,2.588 -12.553,4.019 -19.491,4.019 -24.226,0 -44.433,-17.398 -48.727,-40.412 -27.75,-12.499 -56.325,-22.685 -85.341,-30.778 -6.387,6.442 -10.902,13.434 -10.902,21.638 0,23.4 37.055,37.11 48.011,55.996 11.232,19.49 4.956,58.307 24.446,69.594 18.885,10.957 49.112,-13.599 72.512,-13.599 23.4,0 53.627,24.556 72.513,13.599 9.25,-5.34 12.719,-16.903 14.921,-29.676 -21.638,-18.887 -44.377,-35.625 -67.942,-50.381 z"
   id="path25" />
					</g>
				</g>
				<g
   id="g29">
					<g
   id="g28">
						<path
   style="fill:#000070"
   d="m 2530.728,1696.438 h -0.055 c -26.483,9.194 -51.756,19.546 -75.486,30.832 -0.661,26.814 -22.574,48.397 -49.553,48.397 -9.085,0 -17.619,-2.477 -24.942,-6.772 -5.341,3.469 -10.571,6.993 -15.636,10.627 0,0 3.083,32.925 6.222,68.108 11.727,-4.46 23.785,-9.525 34.357,-9.525 23.4,0 53.627,24.556 72.512,13.599 19.491,-11.287 13.214,-50.104 24.446,-69.594 10.957,-18.885 48.011,-32.595 48.011,-55.995 0,-11.728 -9.25,-20.978 -19.876,-29.677 z"
   id="path27" />
					</g>
				</g>
			</g>
			<g
   id="g32">
				<g
   id="g31">
					<path
   style="fill:#8484a5"
   d="m 2330.314,2189.93 c -31.109,102.85 -94.591,209.499 -194.138,311.469 -188.742,187.861 -421.641,255.583 -702.827,191.715 -69.704,-142.272 -160.772,-245.122 -279.259,-297.428 -34.907,-15.472 -72.292,-26.539 -112.155,-32.925 l -0.055,-0.055 c -93.71,-79.56 -198.377,-241.709 -249.967,-396.755 -11.893,-35.733 10.241,-74.054 47.296,-80.991 88.424,-16.573 196.34,-18.335 315.983,-11.232 6.332,-137.592 98.225,-236.974 256.96,-306.513 27.419,-127.131 61.996,-246.058 123.002,-334.317 27.529,-39.918 82.313,-49.498 122.176,-21.913 141.336,97.729 264.117,242.754 375.171,417.732 256.023,79.393 374.29,308.714 297.813,561.213 z"
   id="path30" />
				</g>
			</g>
			<g
   style="opacity:0.55"
   id="g34">
				<g
   id="g33">
					<path
   style="fill:#ffffff"
   d="m 1132.563,1872.516 c -2.202,12.718 -3.689,25.822 -4.294,39.256 -119.643,-7.102 -227.558,-5.341 -315.983,11.232 -8.094,1.542 -15.471,4.515 -21.913,8.645 5.506,-22.905 23.73,-42.01 48.837,-46.69 82.807,-15.527 182.739,-18.059 293.353,-12.443 z"
   id="path32" />
				</g>
			</g>
			<g
   style="opacity:0.55"
   id="g36">
				<g
   id="g35">
					<path
   style="fill:#ffffff"
   d="m 2216.617,2407.964 c 211.206,-316.589 105.108,-643.198 -211.04,-741.203 -111.054,-174.977 -233.835,-320.001 -375.171,-417.731 -35.238,-24.391 -82.203,-19.712 -111.604,9.305 5.231,-8.754 10.682,-17.233 16.353,-25.437 27.529,-39.918 82.313,-49.498 122.176,-21.913 141.336,97.729 264.117,242.754 375.171,417.732 328.81,101.967 430.394,451.15 184.115,779.247 z"
   id="path34" />
				</g>
			</g>
			<g
   id="g38">
				<g
   id="g37">
					<path
   style="fill:#ffffff"
   d="m 2351.401,2492.424 c 0,0 0,0.055 -0.055,0.055 -3.304,4.845 -6.772,9.69 -10.351,14.425 -49.498,66.126 -82.038,123.222 -99.987,174.977 -33.861,97.674 -15.472,176.023 39.642,259.162 5.616,8.479 11.563,17.013 17.949,25.603 -15.141,38.541 -4.79,85.396 -4.79,85.396 0,0 -94.977,11.617 -174.151,4.79 -79.175,-6.938 -124.543,-44.763 -66.071,-77.083 58.473,-32.375 49.663,-103.291 49.663,-103.291 -32.044,-82.478 -34.467,-162.424 0.661,-239.121 8.259,-18.169 18.665,-36.118 31.273,-53.903 l 145.3,-274.908 c 152.513,-393.837 -27.419,-541.394 -27.419,-541.394 0,0 56.711,-22.849 111.99,12.388 22.904,14.536 45.588,39.147 63.868,79.505 60.896,134.4 64.42,429.901 -77.522,633.399 z"
   id="path36" />
				</g>
			</g>
			<g
   id="g40">
				<g
   id="g39">
					<path
   style="fill:#8484a5"
   d="m 2942.789,3004.251 c -0.441,-0.11 -0.826,-0.275 -1.266,-0.385 -27.089,-8.479 -53.077,-15.196 -78.128,-20.207 -37.936,-7.708 -73.669,-11.452 -107.31,-11.507 -10.186,0 -20.207,0.331 -30.062,0.991 0,0 0,0 -0.055,0 -9.58,0.661 -18.996,1.652 -28.245,2.973 -80.661,11.287 -147.503,46.91 -202.176,103.896 -29.181,30.338 -71.246,46.029 -112.816,39.808 -44.763,-6.663 -67.447,-36.67 -78.459,-78.9 -7.764,-29.787 -4.02,-61.5 9.58,-89.14 4.79,-9.745 10.131,-19.16 15.967,-28.136 65.08,-100.317 192.596,-152.623 348.743,-142.106 76.917,5.121 160.882,25.547 247.765,62.988 60.235,25.933 124.818,40.853 190.394,42.12 62.492,1.211 116.339,-9.415 161.488,-32.045 97.509,-48.837 154.22,-153.889 168.37,-317.414 0.605,-8.975 1.156,-17.839 1.596,-26.594 l 2.698,1.817 c 215.004,223.924 40.687,622.165 -508.084,491.841 z"
   id="path38" />
				</g>
			</g>
			<g
   id="g42">
				<g
   id="g41">
					<path
   style="fill:#ffffff"
   d="m 2280.469,2308.515 c -141.797,-288.341 -347.943,-119.406 -552.21,-38.364 -261.049,114.795 -407.224,-304.516 -377.932,-672.374 -99.895,55.433 -174.301,130.304 -192.558,247.997 109.495,-7.534 195.466,221.026 288.358,478.907 19.005,52.761 14.544,110.771 -10.67,160.863 -25.058,49.782 -44.741,121.566 -8.48,194.765 310.944,106.178 597.76,2.413 853.492,-371.794 z"
   id="path40" />
				</g>
			</g>
			<g
   id="g44">
				<g
   id="g43">
					<path
   style="fill:#000070"
   d="m 1472.3,2805.287 c -17.192,-35.635 -35.82,-70.393 -56.248,-103.678 -5.591,-9.111 -2.739,-21.03 6.372,-26.621 9.111,-5.592 21.03,-2.739 26.621,6.372 0.618,1.003 1.13,2.042 1.545,3.103 l 0.056,0.155 c 14.5,37.877 26.653,76.27 37.131,114.906 1.199,4.42 -1.411,8.976 -5.833,10.175 -3.917,1.063 -7.945,-0.882 -9.644,-4.412 z"
   id="path42" />
				</g>
			</g>
			<g
   style="opacity:0.3"
   id="g46">
				<g
   id="g45">
					<path
   style="fill:#000070"
   d="m 2330.314,2189.93 c -31.109,102.85 -94.591,209.499 -194.138,311.469 -188.742,187.861 -421.641,255.583 -702.827,191.715 -69.704,-142.272 -160.772,-245.122 -279.259,-297.428 -11.232,-40.634 -17.894,-68.659 -17.894,-68.659 v -266.044 c 143.814,669.846 948.334,575.365 1188.721,54.894 z"
   id="path44" />
				</g>
			</g>
			<g
   id="g48">
				<g
   id="g47">
					<path
   style="fill:#ef7fd2"
   d="m 1136.221,2016.88 c 0,0 -21.388,111.953 0,310.165 -195.737,-212.894 -294.846,-348.706 0,-310.165 z"
   id="path46" />
				</g>
			</g>
			<g
   style="opacity:0.3"
   id="g50">
				<g
   id="g49">
					<path
   style="fill:#000070"
   d="m 1127.938,2103.708 c -85.727,-10.516 -136.656,-5.616 -160.662,12.168 -43.386,-82.147 -8.755,-122.23 168.921,-98.996 0,0 -5.726,30.117 -8.259,86.828 z"
   id="path48" />
				</g>
			</g>
			<g
   id="g52">
				<g
   id="g51">
					<path
   style="fill:#ef7fd2"
   d="m 1570.995,1539.703 c 10.547,-230.978 67.107,-242.168 177.016,-106.447 32.798,40.501 78.995,80.476 119.294,148.659 -92.481,-33.289 -190.823,-48.668 -296.31,-42.212 z"
   id="path50" />
				</g>
			</g>
			<g
   style="opacity:0.3"
   id="g54">
				<g
   id="g53">
					<path
   style="fill:#000070"
   d="m 1867.323,1581.915 c -39.587,-14.261 -80.276,-25.217 -122.176,-32.595 -15.912,-17.509 -30.888,-33.365 -43.771,-49.277 -48.672,-60.069 -86.828,-91.398 -115.239,-87.544 24.887,-100.923 77.743,-83.139 161.873,20.757 32.816,40.523 79.01,80.496 119.313,148.659 z"
   id="path52" />
				</g>
			</g>
			<g
   id="g56">
				<g
   id="g55">
					<path
   style="fill:#000070"
   d="m 828.782,2361.147 c 69.546,-17.069 142.649,-25.425 216.209,-17.415 l 0.056,0.01 c 10.596,1.154 18.25,10.679 17.095,21.274 -1.152,10.596 -10.679,18.25 -21.274,17.096 -0.664,-0.073 -1.343,-0.186 -1.985,-0.322 -66.772,-14.424 -137.441,-14.065 -206.975,-4.42 -4.521,0.637 -8.706,-2.513 -9.341,-7.036 -0.597,-4.224 2.169,-8.166 6.215,-9.183 z"
   id="path54" />
				</g>
			</g>
			<g
   id="g58">
				<g
   id="g57">
					<path
   style="fill:#000070"
   d="m 1630.583,2735.617 c -64.678,0 -131.855,-7.896 -201.499,-23.711 -5.679,-1.294 -10.474,-5.083 -13.037,-10.313 -92.876,-189.482 -216.245,-294.092 -377.153,-319.805 -3.652,-0.581 -7.056,-2.207 -9.8,-4.663 -99.121,-84.321 -204.136,-250.825 -255.464,-405.093 -7.476,-22.461 -4.873,-47.041 7.134,-67.437 11.904,-20.215 31.914,-34.277 54.902,-38.579 79.321,-14.868 178.179,-19.009 301.733,-12.583 13.359,-127.593 100.034,-228.369 257.993,-299.854 24.492,-111.875 58.672,-237.258 123.906,-331.641 16.118,-23.372 40.43,-39.072 68.438,-44.194 28.276,-5.166 56.88,1.006 80.562,17.39 132.739,91.789 256.006,228.34 376.699,417.327 161.904,52.358 276.118,167.275 313.877,316.211 47.617,187.817 -28.525,401.475 -208.906,586.187 -0.063,0.068 -0.132,0.132 -0.195,0.195 -147.457,146.769 -321.505,220.563 -519.19,220.563 z M 1446.525,2676.3 c 264.902,57.651 492.314,-5.737 675.972,-188.472 170.723,-174.868 243.257,-375.205 199.019,-549.683 -34.912,-137.7 -142.334,-243.774 -294.722,-291.021 -4.365,-1.357 -8.11,-4.219 -10.562,-8.081 -119.077,-187.62 -240.059,-322.456 -369.863,-412.212 -15.21,-10.522 -33.579,-14.49 -51.699,-11.174 -17.871,3.269 -33.374,13.276 -43.652,28.179 -63.281,91.548 -96.187,216.897 -120.029,327.439 -1.304,6.05 -5.435,11.104 -11.104,13.589 -159.399,69.829 -239.683,164.609 -245.444,289.746 -0.234,5.151 -2.524,9.99 -6.357,13.442 -3.838,3.447 -8.916,5.151 -14.033,4.912 -129.258,-7.681 -231.084,-4.097 -311.289,10.933 -12.217,2.29 -22.441,9.482 -28.784,20.254 -6.357,10.801 -7.734,23.818 -3.774,35.713 48.691,146.348 147.002,303.594 240.215,384.766 166.814,28.57 300.012,140.103 396.106,331.67 z m 689.653,-174.902 h 0.049 z"
   id="path56" />
				</g>
			</g>
			<g
   id="g60">
				<g
   id="g59">
					<path
   style="fill:#8e8eb2"
   d="m 2125.164,2579.345 c -91.513,22.671 -188.33,30.143 -289.168,26.089 -48.345,-1.943 -91.716,33.14 -95.785,81.352 -5.195,61.553 51.43,131.443 220.464,147.719 l 126.438,-5.053 c 0,0 -77.573,-93.701 43.557,-250.107"
   id="path58" />
				</g>
			</g>
			<g
   style="opacity:0.3"
   id="g62">
				<g
   id="g61">
					<path
   style="fill:#000070"
   d="m 2087.119,2829.439 -126.47,5.066 c -169.031,-16.297 -225.631,-86.167 -220.456,-147.723 1.707,-20.427 10.516,-38.486 23.786,-52.361 -0.221,2.753 -0.221,5.561 -0.11,8.369 2.588,61.721 67.612,123.882 237.304,118.762 l 61.556,-10.351 c 1.43,50.489 24.39,78.238 24.39,78.238 z"
   id="path60" />
				</g>
			</g>
			<g
   style="opacity:0.55"
   id="g64">
				<g
   id="g63">
					<path
   style="fill:#ffffff"
   d="m 2130.67,2579.361 c -12.058,15.582 -22.189,30.503 -30.558,44.819 -84.075,18.114 -172.445,23.95 -264.118,20.261 -44.322,-1.762 -84.515,27.584 -93.986,69.649 -2.037,-9.14 -2.588,-18.334 -1.817,-27.31 4.074,-48.232 47.461,-83.303 95.802,-81.322 100.813,4.02 197.661,-3.468 289.169,-26.098 h 5.508 z"
   id="path62" />
				</g>
			</g>
			<g
   id="g66">
				<g
   id="g65">
					<path
   style="fill:#000070"
   d="m 2129.797,2598.051 c -59.829,14.769 -120.991,23.024 -182.166,26.178 -30.596,1.531 -61.206,1.847 -91.75,1.122 l -11.45,-0.356 -5.723,-0.189 c -1.926,-0.068 -3.911,-0.144 -5.247,-0.088 -3,0.017 -6.006,-0.039 -8.979,0.405 -3.005,0.161 -5.933,0.837 -8.875,1.409 -11.733,2.524 -22.722,8.186 -31.899,15.734 -8.884,7.866 -16.108,17.605 -19.827,28.589 -3.95,10.791 -5.305,22.726 -3.892,34.554 1.34,11.804 5.828,23.409 12.729,34.067 3.201,5.49 7.717,10.281 11.914,15.327 l 7.283,6.89 c 1.24,1.134 2.393,2.352 3.701,3.43 l 4.08,3.099 c 21.636,16.747 47.947,29.287 75.623,38.219 27.737,8.987 56.758,15.099 86.147,19.844 l 0.178,0.028 c 4.507,0.728 7.568,4.971 6.841,9.478 -0.676,4.199 -4.448,7.144 -8.601,6.936 -30.459,-1.637 -61.096,-4.923 -91.389,-12.09 -30.168,-7.258 -60.483,-17.881 -87.783,-36.396 l -5.137,-3.42 c -1.677,-1.205 -3.252,-2.599 -4.883,-3.896 -3.22,-2.66 -6.492,-5.264 -9.663,-8.021 -5.952,-6.066 -12.119,-11.952 -17.146,-19.139 -10.422,-13.857 -18.425,-30.459 -21.743,-48.45 -0.603,-4.512 -1.394,-9.048 -1.594,-13.604 -0.01,-4.565 -0.117,-9.146 0.215,-13.724 0.613,-4.576 0.933,-9.213 2.227,-13.682 l 1.699,-6.738 2.327,-6.55 c 1.389,-4.438 3.787,-8.441 5.73,-12.627 2.441,-3.9 4.6,-8.02 7.466,-11.609 5.264,-7.563 11.802,-14.028 18.635,-20.028 14.045,-11.517 30.608,-19.976 48.32,-23.826 4.438,-0.906 8.875,-1.827 13.398,-2.144 4.5,-0.599 9.026,-0.608 13.552,-0.599 2.429,-0.031 4.204,0.046 6.04,0.109 l 5.559,0.184 11.118,0.347 c 29.646,0.702 59.28,0.393 88.821,-1.083 59.06,-3.047 117.756,-11 174.875,-25.099 l 0.032,-0.01 c 10.332,-2.55 20.776,3.759 23.328,14.091 2.55,10.33 -3.756,20.773 -14.091,23.325 z"
   id="path64" />
				</g>
			</g>
			<g
   id="g68">
				<g
   id="g67">
					<path
   style="fill:#000070"
   d="m 1136.227,2343.566 c -4.521,0 -8.965,-1.86 -12.163,-5.337 -144.731,-157.417 -212.886,-247.617 -183.76,-303.745 20.122,-38.769 81.196,-49.258 198.057,-33.979 4.512,0.586 8.579,3.013 11.245,6.699 2.666,3.682 3.691,8.301 2.842,12.764 v 0 c -0.205,1.104 -20.62,112.383 0.195,305.308 0.767,7.09 -3.105,13.872 -9.604,16.816 -2.188,0.991 -4.512,1.474 -6.812,1.474 z m -85.796,-316.646 c -58.252,0 -75.791,13.115 -80.806,22.778 -20.42,39.351 73.696,150.454 145.547,229.839 -10.239,-128.462 -2.422,-213.643 2.148,-248.325 -26.772,-3.022 -48.798,-4.292 -66.889,-4.292 z"
   id="path66" />
				</g>
			</g>
			<g
   id="g70">
				<g
   id="g69">
					<path
   style="fill:#000070"
   d="m 1867.301,1598.434 c -1.87,0 -3.76,-0.317 -5.591,-0.976 -92.949,-33.462 -190.435,-47.358 -289.702,-41.265 -4.658,0.269 -9.258,-1.431 -12.598,-4.722 -3.34,-3.286 -5.127,-7.837 -4.912,-12.519 6.025,-132.005 26.118,-194.085 67.188,-207.581 35.537,-11.687 78.457,16.531 139.16,91.489 9.678,11.953 20.771,24.084 32.51,36.929 27.783,30.388 59.277,64.832 88.169,113.723 3.545,5.996 2.949,13.569 -1.494,18.936 -3.198,3.867 -7.901,5.986 -12.73,5.986 z m -250,-76.67 c 71.528,0 141.929,10.005 210.283,29.878 -19.766,-27.075 -40.044,-49.26 -58.608,-69.563 -12.085,-13.22 -23.501,-25.705 -33.804,-38.428 -63.892,-78.899 -92.075,-84.534 -103.169,-80.898 -13.198,4.338 -35.85,31.174 -43.55,159.553 9.634,-0.361 19.254,-0.542 28.848,-0.542 z"
   id="path68" />
				</g>
			</g>
			<g
   id="g72">
				<g
   id="g71">
					<path
   style="fill:#000070"
   d="m 1438.737,3122.404 c -2.559,0 -5.107,-0.093 -7.646,-0.283 -27.227,-2.007 -49.487,-14.414 -62.681,-34.937 -19.155,-29.795 -46.943,-59.614 -56.46,-69.517 -271.89,-80.762 -514.18,-193.53 -720.313,-335.264 -99.336,3.74 -162.559,-10.513 -193.12,-43.457 -16.606,-17.891 -23.394,-40.566 -20.181,-67.388 5.015,-42.075 39.058,-76.401 82.793,-83.457 103.989,-16.772 164.844,-95.576 169.702,-102.08 125.352,-203.413 198.257,-302.627 198.979,-303.608 6.318,-8.56 18.374,-10.381 26.948,-4.067 8.564,6.318 10.386,18.379 4.067,26.948 -0.713,0.967 -72.954,99.316 -197.588,301.602 -0.22,0.356 -0.449,0.708 -0.693,1.05 -2.842,3.999 -70.962,98.154 -195.278,118.203 -26.836,4.331 -47.671,24.888 -50.659,49.985 -1.86,15.503 1.372,27.129 10.161,36.602 15.63,16.846 57.7,35.898 169.658,30.898 4.229,-0.142 8.359,1.011 11.821,3.408 205.127,141.968 447.183,254.707 719.453,335.093 3.086,0.913 5.894,2.578 8.169,4.854 1.597,1.597 39.36,39.531 64.961,79.355 8.75,13.608 24.492,16.709 33.096,17.344 24.058,1.787 49.624,-9.438 66.958,-29.248 22.632,-25.85 74.36,-23.335 160.083,-19.17 99.189,4.829 235.054,11.426 375.752,-26.606 10.313,-2.764 20.854,3.311 23.633,13.574 2.778,10.273 -3.301,20.854 -13.574,23.633 -146.567,39.619 -285.928,32.842 -387.681,27.896 -55.708,-2.705 -118.853,-5.776 -129.214,6.06 -23.353,26.693 -57.689,42.577 -91.146,42.577 z"
   id="path70" />
				</g>
			</g>
			<g
   id="g74">
				<g
   id="g73">
					<path
   style="fill:#000070"
   d="m 2298.615,2985.919 c -5.898,0 -11.724,-2.7 -15.503,-7.808 -115.581,-156.187 -104.077,-287.026 42.446,-482.754 148.638,-198.569 145.078,-497.583 85.796,-628.359 -53.691,-118.438 -147.231,-83.496 -151.182,-81.948 -9.878,3.857 -21.064,-0.962 -24.976,-10.82 -3.911,-9.854 0.82,-20.996 10.654,-24.961 1.309,-0.527 131.392,-50.874 200.605,101.816 34.502,76.103 48.804,191.557 38.267,308.838 -8.716,97.002 -38.052,237.949 -128.311,358.53 -154.517,206.406 -134.082,312.729 -42.324,436.729 6.333,8.555 4.531,20.625 -4.023,26.953 -3.446,2.554 -7.465,3.784 -11.449,3.784 z"
   id="path72" />
				</g>
			</g>
			<g
   id="g76">
				<g
   id="g75">
					<path
   style="fill:#000070"
   d="m 2200.509,3071.667 c -26.465,0 -53.638,-0.103 -75.615,-0.41 -21.44,-0.298 -92.417,-4.453 -105.586,-45.42 -4.609,-14.336 -2.959,-36.699 31.094,-61.846 44.307,-32.72 35.479,-77.788 33.618,-85.352 -4.194,-9.375 -7.974,-19.282 -11.245,-29.468 -29.6,-92.222 -12.09,-195.791 46.831,-277.051 101.431,-139.888 173.11,-333.994 173.823,-335.938 3.667,-9.995 14.736,-15.122 24.722,-11.47 9.995,3.662 15.127,14.727 11.47,24.722 -2.979,8.14 -74.175,200.996 -178.813,345.313 -51.743,71.357 -67.197,162.065 -41.333,242.642 2.988,9.307 6.45,18.315 10.293,26.768 0.347,0.767 0.645,1.558 0.894,2.363 0.947,3.115 22.432,76.934 -47.368,128.477 -14.683,10.845 -17.378,17.793 -17.295,19.058 1.25,4.873 24.492,18.042 69.434,18.667 65.107,0.908 176.479,0.01 177.603,0 0.054,-0.01 0.107,-0.01 0.161,-0.01 10.566,0 19.18,8.525 19.263,19.116 0.088,10.64 -8.467,19.341 -19.111,19.429 -0.745,0 -50.393,0.405 -102.84,0.405 z"
   id="path74" />
				</g>
			</g>
			<g
   id="g78">
				<g
   id="g77">
					<path
   style="fill:#ffffff"
   d="m 2764.233,2925.241 c 0,16.077 -2.808,31.769 -8.149,46.91 -107.365,-0.11 -193.202,37.66 -260.539,107.86 -29.181,30.338 -71.246,46.029 -112.816,39.808 -44.763,-6.663 -67.447,-36.67 -78.459,-78.9 -7.764,-29.787 -4.02,-61.5 9.58,-89.14 58.417,-118.542 194.523,-181.694 364.71,-170.242 53.683,39.534 85.673,89.472 85.673,143.704 z"
   id="path76" />
				</g>
			</g>
			<g
   id="g80">
				<g
   id="g79">
					<path
   style="fill:#000070"
   d="m 2400.885,3140.451 c -7.007,0 -14.033,-0.513 -21.03,-1.563 -48.296,-7.227 -79.995,-38.55 -94.224,-93.11 -8.833,-33.872 -4.951,-70.273 10.933,-102.5 44.531,-90.313 132.3,-152.002 247.148,-173.701 117.08,-22.104 252.046,-2.329 390.264,57.241 59.697,25.728 121.304,39.375 183.101,40.562 189.082,3.496 290.669,-104.917 310.303,-331.851 27.109,-391.035 -78.115,-664.844 -304.326,-791.499 -260.723,-145.986 -593.672,-57.939 -746.821,51.206 -8.657,6.177 -20.693,4.16 -26.875,-4.507 -6.177,-8.672 -4.155,-20.703 4.512,-26.88 191.06,-136.177 538.057,-193.394 788.013,-53.452 163.496,91.548 350.513,303.189 326.079,792.036 99.233,105.879 120.137,249.346 53.022,366.729 -42.017,73.486 -113.677,127.573 -207.246,156.411 -105.298,32.451 -231.597,31.592 -375.4,-2.554 -0.454,-0.107 -0.903,-0.234 -1.343,-0.371 -185.815,-58.623 -325.669,-35.498 -427.568,70.708 -29.035,30.259 -68.454,47.095 -108.542,47.095 z m 237.993,-340.894 c -30.581,0 -60.054,2.612 -88.008,7.891 -102.656,19.395 -180.693,73.687 -219.736,152.871 -11.792,23.921 -14.707,50.815 -8.208,75.732 10.386,39.834 29.702,59.795 62.632,64.722 34.702,5.195 70.591,-7.559 96.055,-34.097 111.372,-116.074 268.247,-143.315 466.304,-80.996 136.733,32.383 255.991,33.408 354.473,3.062 84.043,-25.908 148.066,-73.872 185.137,-138.706 52.661,-92.114 42.686,-203.145 -23.589,-292.427 -25.337,231.353 -138.857,348.394 -337.676,348.403 -3.291,0 -6.587,-0.034 -9.927,-0.098 -66.816,-1.284 -133.301,-15.991 -197.612,-43.706 -95.787,-41.279 -192.335,-62.651 -279.845,-62.651 z"
   id="path78" />
				</g>
			</g>
			<g
   id="g82">
				<g
   id="g81">
					<path
   style="fill:#000070"
   d="m 3498.278,2989.376 c -33.721,0 -67.744,-1.23 -100.239,-4.292 -10.596,-0.996 -18.379,-10.396 -17.378,-20.991 0.996,-10.596 10.386,-18.403 20.991,-17.378 93.74,8.818 201.465,1.855 275.322,-5.542 16.021,-1.602 20.317,-14.624 21.25,-18.574 0.942,-3.979 2.949,-17.627 -10.747,-26.304 -60.454,-38.276 -168.882,-47.549 -169.971,-47.637 -10.605,-0.869 -18.501,-10.171 -17.637,-20.776 0.869,-10.605 10.146,-18.408 20.767,-17.642 4.824,0.396 118.926,10.098 187.456,53.496 23.071,14.604 33.921,41.196 27.637,67.739 -6.265,26.475 -27.822,45.337 -54.917,48.047 -50.2,5.03 -115.776,9.854 -182.534,9.854 z"
   id="path80" />
				</g>
			</g>
			<g
   id="g84">
				<g
   id="g83">
					<path
   style="fill:#000070"
   d="m 2979.99,2197.321 c -13.979,7.351 -28.303,16.456 -41.199,26.244 -6.509,4.929 -12.917,9.938 -18.899,15.439 -6.177,5.24 -12.012,10.853 -17.651,16.614 -22.527,23.098 -41.167,49.408 -55.913,77.982 -7.217,14.384 -13.364,29.321 -18.875,44.6 l -3.699,11.63 -1.895,5.814 -1.575,5.922 -3.276,11.843 -2.742,12.024 c -7.18,32.175 -11.016,65.453 -13.723,99.431 -0.354,4.584 -4.355,8.013 -8.938,7.66 -3.867,-0.297 -6.917,-3.221 -7.561,-6.871 -6.013,-34.567 -6.794,-70.271 -2.432,-105.774 1.843,-17.803 5.837,-35.426 10.605,-52.85 5.22,-17.323 11.699,-34.363 19.79,-50.718 16.414,-32.542 38.918,-62.478 66.968,-85.879 7.031,-5.809 14.231,-11.384 21.743,-16.494 7.524,-5.096 15.425,-9.601 23.354,-13.932 16.294,-8.181 32.62,-15.083 51.252,-18.53 4.5,-0.831 8.821,2.141 9.653,6.639 0.676,3.654 -1.157,7.191 -4.28,8.837 z"
   id="path82" />
				</g>
			</g>
			<g
   id="g86">
				<g
   id="g85">
					<path
   style="fill:#000070"
   d="m 2641.646,2586.818 c -11.03,9.98 -22.08,20.464 -31.255,31.061 -9.224,10.657 -16.697,21.796 -20.984,32.944 -4.409,11.201 -5.137,22.118 -3.865,34.354 1.646,12.292 6.167,25.496 11.306,40.459 l 0.09,0.262 c 1.558,4.535 -0.857,9.474 -5.391,11.031 -2.62,0.9 -5.413,0.449 -7.573,-0.945 -14.463,-9.458 -26.025,-23.948 -32.673,-41.992 -3.071,-9.12 -4.534,-19.087 -4.133,-29.097 0.442,-10.028 3.076,-19.857 6.938,-28.74 7.861,-17.875 20.562,-31.746 34.414,-42.211 6.968,-5.251 14.312,-9.731 21.997,-13.375 7.722,-3.717 15.359,-6.692 24.094,-8.698 4.543,-1.042 9.07,1.793 10.112,6.335 0.706,3.08 -0.371,6.152 -2.554,8.136 z"
   id="path84" />
				</g>
			</g>
			<g
   id="g88">
				<g
   id="g87">
					<path
   style="fill:#000070"
   d="m 1630.12,2105.461 c 9.69,-1.61 18.606,-2.126 27.048,-2.932 8.411,-0.758 16.282,-1.482 23.311,-2.692 7.039,-1.226 13.169,-2.776 18.42,-4.669 5.176,-2.064 9.558,-4.387 13.779,-7.776 8.284,-6.779 16.013,-18.688 22.429,-33.302 6.597,-14.574 11.702,-31.298 18.418,-48.68 l 0.12,-0.31 c 2.295,-5.934 8.962,-8.885 14.897,-6.592 3.562,1.376 6.064,4.395 6.987,7.819 2.502,9.529 4.116,19.229 4.629,29.167 0.588,9.937 0.342,20.062 -1.221,30.43 -1.523,10.348 -4.229,20.948 -8.892,31.483 -4.622,10.503 -11.37,21.029 -20.63,29.996 -9.299,8.889 -21.001,15.944 -33.113,19.744 -12.122,3.785 -24.297,4.65 -35.493,3.577 -11.24,-1.03 -21.587,-3.918 -31.116,-7.991 -9.507,-4.15 -18.289,-9.268 -26.052,-16.222 -4.985,-4.467 -5.408,-12.13 -0.94,-17.118 1.912,-2.134 4.409,-3.433 7.031,-3.868 z"
   id="path86" />
				</g>
			</g>
			<g
   id="g90">
				<g
   id="g89">
					<path
   style="fill:#000070"
   d="m 1350.723,2281.014 c 6.306,5.37 11.606,11.567 15.681,18.95 2.278,3.488 3.799,7.625 5.33,11.76 1.709,4.012 2.471,8.706 3.252,13.39 0.427,2.323 0.674,4.691 0.591,7.284 0.022,2.537 -0.039,5.096 -0.212,7.65 -0.442,5.132 -1.775,10.613 -3.457,15.775 -2.273,5.071 -4.346,10.465 -7.874,14.766 -1.624,2.258 -3.372,4.449 -5.142,6.559 -1.904,1.851 -3.845,3.672 -5.818,5.454 -3.894,3.867 -8.218,6.003 -12.407,8.75 -2.109,1.443 -4.236,2.162 -6.367,3.131 l -6.389,2.686 c -4.229,1.451 -8.411,2.391 -12.59,3.494 -4.163,0.723 -8.184,1.272 -12.278,1.665 -16.128,1.083 -31.394,-0.872 -45.969,-6.379 -6.182,-2.336 -9.297,-9.242 -6.96,-15.422 1.06,-2.81 3.066,-4.985 5.518,-6.305 l 0.518,-0.277 c 13,-6.974 25.325,-11.643 36.133,-16.793 10.784,-5.01 19.729,-10.458 24.124,-15.214 0.549,-0.58 1.125,-1.119 1.741,-1.631 0.356,-0.605 0.647,-1.208 1.111,-1.7 1.13,-0.906 1.238,-2.251 2.285,-3.213 0.393,-0.563 0.542,-1.332 0.918,-1.975 0.308,-0.714 1.011,-1.193 1.121,-2.164 0.291,-1.83 1.624,-3.307 1.792,-5.693 0.491,-2.214 1.306,-4.456 1.506,-7.218 0.347,-2.667 1.042,-5.413 1.155,-8.508 0.146,-3.04 0.923,-6.208 1.016,-9.585 0.325,-3.398 0.613,-6.874 1.379,-10.679 l 0.334,-1.648 c 1.338,-6.636 7.803,-10.93 14.436,-9.591 2.094,0.421 3.996,1.392 5.522,2.681 z"
   id="path88" />
				</g>
			</g>
			<g
   id="g92">
				<g
   id="g91">
					<path
   style="fill:#000070"
   d="m 1581.888,2310.512 c 11.74,7.826 9.548,31.733 -4.894,53.397 -14.442,21.664 -35.668,32.882 -47.407,25.055 -11.74,-7.827 -2.006,-26.705 12.437,-48.369 14.442,-21.664 28.124,-37.91 39.864,-30.083 z"
   id="path90" />
				</g>
			</g>
			<g
   id="g94">
				<g
   id="g93">
					<path
   style="fill:#000070"
   d="m 1540.146,2470.206 c 10.176,1.879 20.344,1.929 29.443,-0.117 9.104,-1.98 16.953,-6.095 22.515,-11.758 5.681,-5.592 9.116,-12.839 11.155,-21.147 2.068,-8.339 2.527,-17.644 3.02,-27.483 l 0.037,-0.764 c 0.486,-9.67 8.718,-17.118 18.389,-16.635 0.938,0.048 1.948,0.19 2.837,0.376 12.566,2.723 25.366,3.638 37.385,1.921 11.982,-1.758 23.032,-6.057 31.487,-13.258 8.586,-7.043 14.597,-17.346 17.532,-29.819 2.947,-12.488 2.83,-26.483 1.97,-40.983 l -0.032,-0.541 c -0.271,-4.584 3.225,-8.519 7.808,-8.79 3.689,-0.219 6.96,2.015 8.237,5.282 5.791,14.872 9.719,31.199 8.74,48.739 -0.542,4.37 -0.779,8.824 -1.809,13.21 -1.323,4.343 -2.302,8.846 -4.116,13.116 -3.721,8.524 -8.813,16.746 -15.508,23.539 l -5.156,4.968 c -1.746,1.627 -3.77,2.837 -5.669,4.257 -1.943,1.338 -3.855,2.783 -5.867,3.992 l -6.235,3.191 c -8.403,4.1 -17.292,6.621 -26.211,8.03 -17.844,2.75 -35.83,0.746 -52.134,-5.238 l 21.262,-17.021 c 1.663,12.678 1.155,26.207 -3.042,39.625 -4.087,13.369 -12.834,26.373 -24.778,34.989 -11.938,8.679 -26.196,12.611 -39.517,12.727 -13.401,0.106 -26.096,-3.246 -37.217,-8.823 -4.109,-2.062 -5.769,-7.064 -3.706,-11.174 1.697,-3.386 5.393,-5.109 8.943,-4.457 z"
   id="path92" />
				</g>
			</g>
			<g
   style="opacity:0.15"
   id="g96">
				<g
   id="g95">
					<path
   style="fill:#ffffff"
   d="m 1902.22,1756.599 c -5.965,49.498 -81.009,27.873 -186.855,15.117 -105.846,-12.756 -202.411,-11.812 -196.446,-61.31 5.965,-49.498 96.606,-79.284 202.452,-66.528 105.845,12.756 186.814,63.223 180.849,112.721 z"
   id="path94" />
				</g>
			</g>
			<g
   id="g99">
				<g
   style="opacity:0.3"
   id="g98">
					<g
   id="g97">
						<path
   style="fill:#000070"
   d="m 2291.47,2951.207 c 1.16,-9.8 3.35,-19.94 7.129,-29.562 -6.387,-8.589 -12.332,-17.123 -17.949,-25.602 l 30.889,29.016 c 130.601,-212.472 348.137,-244.572 644.08,-113.972 133.792,39.476 242.534,40.248 323.691,-1.597 19.38,-9.965 37.163,-22.354 53.352,-37.275 18.94,-17.399 35.623,-38.156 50.103,-62.437 12.773,-21.417 23.84,-45.479 33.035,-72.347 16.628,-48.231 27.476,-105.437 32.375,-171.838 0.366,-6.61 0.605,-13.064 0.891,-19.575 0.491,-0.698 1.001,-1.411 1.477,-2.1 v 0 c -1.597,2.312 -3.303,4.679 -4.956,7.047 -312.073,445.095 -645.291,-41.57 -645.291,-41.57 -43.386,172.334 -198.21,194.138 -198.21,194.138 -224.475,129.388 -250.684,-111.108 -250.684,-111.108 0,0 0,0.055 -0.056,0.055 -31.272,50.49 -103.401,183.456 -103.401,183.456 -2.366,2.092 -4.678,4.073 -6.936,5.946 -7.598,6.277 -14.756,11.342 -21.584,15.251 -85.066,49.664 -110.117,-68.274 -110.117,-68.274 l -5.396,8.48 c -16.541,36.115 -24.656,72.959 -25.374,110.439 0.107,-5.657 0.383,-11.299 0.837,-16.926 2.59,33.076 10.671,66.622 23.877,100.608 0,0 2.08,16.912 -2.576,37.979 0.864,2.341 1.663,4.677 2.576,7.021 0,0 8.809,70.916 -49.663,103.29 -4.939,2.729 -9.077,5.499 -12.576,8.285 15.833,11.814 44.004,20.762 78.645,23.798 70.654,6.093 153.831,-2.496 170.93,-4.418 0.203,-4.326 0.581,-8.773 1.184,-13.301 -1.133,-9.441 -2.041,-23.129 -0.767,-37.996 2.478,3.502 4.976,7.007 7.593,10.527 -0.903,2.3 -1.707,4.629 -2.432,6.975 0.73,-2.346 1.528,-4.677 2.432,-6.975 -6.387,-8.589 -12.332,-17.123 -17.949,-25.602 z"
   id="path96" />
					</g>
				</g>
			</g>
			<g
   style="opacity:0.3"
   id="g101">
				<g
   id="g100">
					<path
   style="fill:#000070"
   d="m 2942.789,3004.251 c -27.529,-8.644 -53.958,-15.526 -79.395,-20.592 334.978,13.435 401.655,-85.341 414.813,-129.058 97.509,-48.837 154.22,-153.889 168.37,-317.414 0.605,-8.975 1.156,-17.839 1.596,-26.594 l 2.698,1.817 c 215.006,223.924 40.689,622.165 -508.082,491.841 z"
   id="path99" />
				</g>
			</g>
			<g
   id="g103">
				<g
   id="g102">
					<path
   style="fill:#000070"
   d="m 767.688,2206.944 h 0.055 c -0.055,0.055 -0.055,0.055 -0.055,0.055 z"
   id="path101" />
				</g>
			</g>
			<g
   style="opacity:0.3"
   id="g105">
				<g
   id="g104">
					<path
   style="fill:#000070"
   d="m 2941.522,3003.866 c -27.089,-8.479 -53.077,-15.196 -78.128,-20.207 -37.936,-7.708 -73.669,-11.452 -107.31,-11.507 -10.186,0 -20.207,0.331 -30.062,0.991 0,0 0,0 -0.055,0 -9.58,0.661 -18.996,1.652 -28.245,2.973 -80.661,11.287 -147.503,46.91 -202.176,103.896 -29.181,30.338 -71.246,46.029 -112.816,39.808 -44.763,-6.663 -67.447,-36.67 -78.459,-78.9 -7.764,-29.787 -4.02,-61.5 9.58,-89.14 4.79,-9.745 10.131,-19.16 15.967,-28.136 0.275,30.393 12.443,108.576 139.023,46.415 154.605,-75.927 317.855,-71.906 459.246,23.345 4.956,3.359 9.416,6.828 13.435,10.462 z"
   id="path103" />
				</g>
			</g>
		</g>
		
		
		
	</g>
</g>
</svg>
