<?xml version="1.0" encoding="UTF-8" standalone="no"?>
<!-- Created with Inkscape (http://www.inkscape.org/) -->

<svg
   width="160mm"
   height="160mm"
   viewBox="0 0 160 160"
   version="1.1"
   id="svg1"
   inkscape:version="1.4.2 (ebf0e940, 2025-05-08)"
   sodipodi:docname="keety_head.svg"
   inkscape:export-filename="keety_head_128.png"
   inkscape:export-xdpi="20.32"
   inkscape:export-ydpi="20.32"
   xmlns:inkscape="http://www.inkscape.org/namespaces/inkscape"
   xmlns:sodipodi="http://sodipodi.sourceforge.net/DTD/sodipodi-0.dtd"
   xmlns="http://www.w3.org/2000/svg"
   xmlns:svg="http://www.w3.org/2000/svg">
  <sodipodi:namedview
     id="namedview1"
     pagecolor="#ffffff"
     bordercolor="#000000"
     borderopacity="0.25"
     inkscape:showpageshadow="2"
     inkscape:pageopacity="0.0"
     inkscape:pagecheckerboard="0"
     inkscape:deskcolor="#d1d1d1"
     inkscape:document-units="mm"
     inkscape:zoom="0.44366355"
     inkscape:cx="611.9502"
     inkscape:cy="463.18883"
     inkscape:window-width="1472"
     inkscape:window-height="837"
     inkscape:window-x="0"
     inkscape:window-y="34"
     inkscape:window-maximized="0"
     inkscape:current-layer="g12" />
  <defs
     id="defs1" />
  <g
     inkscape:label="Layer 1"
     inkscape:groupmode="layer"
     id="layer1">
    <g
       transform="matrix(0.64345367,0,0,0.64345367,-1637.1484,-2545.3106)"
       id="g12"
       style="fill:#000000;fill-opacity:1;stroke:#000000;stroke-opacity:1">
      <g
         id="g4"
         inkscape:label="headpat zone"
         style="display:inline;fill:#000000;fill-opacity:1;stroke:#000000;stroke-width:2.70882;stroke-dasharray:none;stroke-opacity:1"
         transform="translate(-78.778984,10.194927)">
        <path
           id="path48"
           style="display:inline;fill:#000000;fill-opacity:1;fill-rule:nonzero;stroke:#000000;stroke-width:2.70882;stroke-dasharray:none;stroke-opacity:1"
           d="m 2755.9902,4011.9832 c -7.0669,-3.4337 9.6311,-0.01 0,0 z m 3.5406,-1.0938 h 0.013 z m -11.9424,-0.5625 c 7.2162,0.095 20.6588,0.6034 6.0026,3.1379 -1.6061,0.8241 -8.6913,-0.1121 -6.0026,-3.1379 z m 9.7768,4.3394 c -9.417,-5.4567 13.5155,-4.4216 0.7544,0.058 z m -3.5981,-0.2994 c -8.6756,-5.242 16.4922,-4.6217 3.2185,-0.1315 l -1.821,0.3283 z m -0.9287,-1.4506 c -4.0708,-5.0594 14.9164,-1.3232 2.2588,0.6562 z m 34.8491,7.1025 c -19.7634,-5.5235 -40.6367,-6.6642 -60.9462,-5.0496 -4.0396,-7.8811 20.1353,-4.2059 26.9116,-4.3928 11.5563,1.4804 32.4935,1.0325 37.5177,9.3736 l -1.7863,0.2163 z" />
      </g>
      <path
         id="path84"
         style="display:inline;fill:#000000;fill-opacity:1;fill-rule:nonzero;stroke:#000000;stroke-width:2.70882;stroke-dasharray:none;stroke-opacity:1"
         d="m 2719.597,3989.2468 c -14.9626,1.0609 -28.2074,11.8072 -37.4792,22.9032 -6.21,4.0417 -14.0734,16.8297 -1.5923,9.7881 8.7458,-10.5809 18.2686,-20.5793 30.8663,-26.6465 16.2686,-9.6286 18.7547,15.2557 24.3088,25.4337 6.2449,11.4417 7.4904,25.4573 14.1242,36.0711 7.1668,-9.9828 -7.4463,-28.6389 -10.0856,-40.8916 -5.3358,-9.0254 -6.8638,-26.5409 -20.1422,-26.658 z" />
      <path
         id="path56"
         style="display:inline;fill:#000000;fill-opacity:1;fill-rule:nonzero;stroke:#000000;stroke-width:2.70882;stroke-dasharray:none;stroke-opacity:1"
         d="m 2724.096,4034.3824 c -0.4878,0.022 -0.9597,0.1373 -1.3701,0.3766 -1.8925,1.1074 0.9381,2.9642 1.8664,3.6654 7.9511,5.6074 16.6208,11.0716 22.1033,18.7727 3.0669,6.42 5.9737,13.1341 7.2593,20.0272 0.3522,1.4854 -0.052,3.7341 0.2473,5.5607 -0.4151,0.2083 -0.7226,0.5214 -0.685,0.9573 0.2364,1.3082 1.7861,1.938 2.5498,3.0093 3.1562,3.2549 5.0977,6.7775 6.9815,10.8219 2.1387,6.7236 1.4738,14.0625 -1.803,20.4737 -1.295,2.3164 -3.3756,4.223 -4.8444,6.4642 -3.5044,3.0498 -7.3837,5.9021 -11.4467,8.3757 -3.5312,1.8076 -6.4864,4.4069 -10.2364,5.9157 -3.5893,1.2138 -6.8755,2.1468 -10.6123,3.2269 -1.9155,0.4111 -3.6876,1.4066 -1.7364,3.0004 0.7876,0.6475 1.7514,0.8955 2.7499,0.8955 1.062,0 2.1634,-0.2815 3.1297,-0.6634 1.79,-0.6611 3.7233,-0.9113 5.5495,-1.4777 2.3081,-0.8799 4.7582,-1.4819 6.9501,-2.5708 3.5049,-1.6875 6.4028,-4.2418 9.9072,-5.943 4.1118,-3.0224 8.8575,-5.661 12.0587,-9.4823 1.6206,-2.3486 3.8656,-4.3798 4.8925,-7.0136 4.4331,-9.456 3.4376,-20.2639 -3.0004,-28.8308 -1.2928,-1.6791 -2.6154,-3.8413 -4.3769,-5.4122 -0.4682,-4.111 -0.2064,-8.3491 -1.7837,-12.3077 -1.9419,-4.7774 -3.2101,-9.3483 -5.5407,-14.1564 -5.8574,-9.8399 -16.8922,-16.233 -26.4464,-23.1705 -0.6919,-0.332 -1.5497,-0.552 -2.3628,-0.5148 z" />
      <path
         id="path404"
         style="fill:#000000;fill-opacity:1;fill-rule:nonzero;stroke:#000000;stroke-width:2.70882;stroke-dasharray:none;stroke-opacity:1"
         d="m 2736.0439,4095.8187 c -8.4809,-5.1252 -4.602,-31.3977 4.5677,-14.5919 1.2814,3.1375 2.0451,18.6488 -4.5677,14.5919 z" />
      <path
         id="path80"
         style="fill:#000000;fill-opacity:1;fill-rule:nonzero;stroke:#000000;stroke-width:2.70882;stroke-dasharray:none;stroke-opacity:1"
         d="m 2633.8529,4153.3023 c -21.9332,0.2411 -47.1298,-6.3918 -58.6087,-26.7709 -6.7901,-15.6361 -6.3791,-33.2676 -7.9611,-49.9679 -1.0798,-17.7039 6.2698,-34.3143 7.9269,-51.7679 1.9112,-12.7816 7.1458,-25.9665 16.9139,-34.6179 13.1849,-8.5439 27.6742,2.2509 38.5454,9.6219 6.1449,8.0527 20.111,16.3194 21.5234,24.6196 -13.8044,-5.552 -20.8322,-22.5314 -35.0033,-28.8405 -9.9255,-9.5616 -25.375,-4.0977 -28.9278,8.6994 -9.8889,16.8859 -7.8774,37.5122 -14.0275,55.7073 -2.6187,19.4511 0.2851,39.3128 3.7028,58.4872 5.4495,22.2799 30.5364,31.5044 51.307,31.3456 6.3025,-1.776 20.4405,3.6826 4.609,3.4841 z m -48.6895,-143.4866 c 0.018,-0.011 0.026,-0.062 0,0 z" />
      <path
         id="path428"
         style="fill:#000000;fill-opacity:1;fill-rule:nonzero;stroke:#000000;stroke-width:2.70882;stroke-dasharray:none;stroke-opacity:1"
         d="m 2568.5605,4078.3675 c 2.3883,-14.5267 13.2796,-29.6676 28.4697,-32.5327 -13.4928,7.3913 -18.4166,24.3457 -27.9777,33.0983 z" />
      <path
         id="path408"
         style="fill:#000000;fill-opacity:1;fill-rule:nonzero;stroke:#000000;stroke-width:2.70882;stroke-dasharray:none;stroke-opacity:1"
         d="m 2677.39,4103.9129 c -12.1028,-3.6733 -1.7016,-36.6229 4.2725,-16.5454 1.3646,4.59 1.9939,15.5117 -4.2725,16.5454 z" />
      <g
         id="g3"
         inkscape:label="whiskers"
         transform="translate(-10.716865,-62.45565)"
         style="display:inline;stroke-width:2.70882;stroke-dasharray:none">
        <path
           id="path64-3"
           style="fill:#000000;fill-opacity:1;fill-rule:nonzero;stroke:#000000;stroke-width:2.70882;stroke-dasharray:none;stroke-opacity:1"
           d="m 2776.3658,4158.6021 c -1.3887,-0.3081 -3.4419,-1.8262 -1.7993,-2.9868 2.8706,-1.2012 6.3574,-0.8081 9.4199,-0.3931 -1.0635,2.0244 -3.7085,3.5073 -6.3232,3.5073 -0.4361,0 -0.8706,-0.041 -1.2974,-0.1274 z" />
        <path
           id="path68-5"
           style="fill:#000000;fill-opacity:1;fill-rule:nonzero;stroke:#000000;stroke-width:2.70882;stroke-dasharray:none;stroke-opacity:1"
           d="m 2776.9059,4166.4596 c -0.5625,-0.3574 -1.1606,-0.875 -1.1338,-1.5313 0.7901,-2.8037 9.0361,-0.7861 11.2637,-0.027 -1.8447,1.2266 -4.4546,2.3027 -6.9326,2.3032 -1.1202,0 -2.2129,-0.2197 -3.1973,-0.7451 z" />
        <path
           id="path72-5"
           style="fill:#000000;fill-opacity:1;fill-rule:nonzero;stroke:#000000;stroke-width:2.70882;stroke-dasharray:none;stroke-opacity:1"
           d="m 2651.2901,4170.5306 c -1.8882,-0.25 -3.7725,-2.6067 -1.1738,-3.3254 3.3037,-0.563 6.79,0.2451 9.7949,1.4282 -1.5679,1.489 -3.8755,2.1462 -6.1719,2.1472 -0.8296,0 -1.6577,-0.086 -2.4492,-0.25 z" />
        <path
           id="path76-9"
           style="fill:#000000;fill-opacity:1;fill-rule:nonzero;stroke:#000000;stroke-width:2.70882;stroke-dasharray:none;stroke-opacity:1"
           d="m 2652.4688,4181.183 c -1.0132,-1.2363 0.4375,-1.96 1.4106,-2.5312 2.2188,-1.2413 4.96,-1.5762 7.5494,-1.5 0.1909,2.6816 -2.9322,5.3398 -5.8702,5.3398 -1.122,0 -2.2163,-0.3867 -3.0898,-1.3086 z" />
      </g>
      <g
         id="g2"
         inkscape:label="nose"
         transform="translate(-117.01989,-19.411074)"
         style="display:inline;fill:#000000;fill-opacity:1;stroke:#000000;stroke-width:1.93176;stroke-dasharray:none;stroke-opacity:1">
        <g
           transform="translate(2833.3206,4129.6554)"
           id="g410"
           style="fill:#000000;fill-opacity:1;stroke:#000000;stroke-width:1.93176;stroke-dasharray:none;stroke-opacity:1">
          <path
             id="path412"
             style="fill:#000000;fill-opacity:1;fill-rule:nonzero;stroke:#000000;stroke-width:1.93176;stroke-dasharray:none;stroke-opacity:1"
             d="M 0,0 C -0.00284112,0.00123817 -0.00284112,0.00123817 0,0 Z" />
        </g>
        <g
           transform="translate(2832.6864,4130.673)"
           id="g414"
           style="display:inline;fill:#000000;fill-opacity:1;stroke:#000000;stroke-width:1.93176;stroke-dasharray:none;stroke-opacity:1">
          <path
             id="path416"
             style="fill:#000000;fill-opacity:1;fill-rule:nonzero;stroke:#000000;stroke-width:1.93176;stroke-dasharray:none;stroke-opacity:1"
             d="m 0,0 c 0.05241215,-1.6790169 0.39143437,-3.4684756 1.5183032,-4.777036 0.7015014,-0.8156839 1.8359213,-1.3931761 2.9216414,-1.0870328 0.6350223,0.1571282 1.1184334,0.797968 1.0072643,1.4588329 C 5.305649,-3.456582 4.5715695,-2.7365039 3.8662128,-2.151514 2.7058288,-1.2293115 1.3605561,-0.57035784 0,0 Z m 1.5928,0.0137 c 0.04036,-0.01717179 0.031736,-0.0135026471 0,0 z M 4.0537,-2.0801 C 4.1007534,-2.1523645 4.2970182,-2.4537876 4.1622435,-2.2468009 4.1260623,-2.1912339 4.0898812,-2.135667 4.0537,-2.0801 Z" />
        </g>
        <g
           transform="translate(2833.0794,4130.8253)"
           id="g418"
           style="fill:#000000;fill-opacity:1;stroke:#000000;stroke-width:1.93176;stroke-dasharray:none;stroke-opacity:1">
          <path
             id="path420"
             style="fill:#000000;fill-opacity:1;fill-rule:nonzero;stroke:#000000;stroke-width:1.93176;stroke-dasharray:none;stroke-opacity:1"
             d="m 0,0 c -0.78913196,-0.89542013 -1.4803325,-2.0704972 -1.2788593,-3.3094926 0.1998784,-1.2033305 1.21415594,-2.0808556 2.27878338,-2.5565079 1.11509802,-0.4877989 2.41631602,-0.7245347 3.59920342,-0.3460822 0.6203411,0.1915501 1.1595757,0.7305305 1.1920383,1.4031815 0.054188,1.0187949 -0.5274042,1.9355893 -1.0901436,2.7360593 C 4.2099207,-1.4232863 3.6802963,-0.77886933 3.0758707,-0.24188749 2.2488875,0.03924228 1.3731062,0.47363616 0.482158,0.22391989 0.31143317,0.17388438 0.14878709,0.09738259 0,0 Z" />
        </g>
        <g
           transform="translate(2834.7538,4124.2132)"
           id="g422"
           style="fill:#000000;fill-opacity:1;stroke:#000000;stroke-width:1.93176;stroke-dasharray:none;stroke-opacity:1">
          <path
             id="path424"
             style="fill:#000000;fill-opacity:1;fill-rule:nonzero;stroke:#000000;stroke-width:1.93176;stroke-dasharray:none;stroke-opacity:1"
             d="M 0,0 C 7.7229125e-4,5.32915e-4 7.7229125e-4,5.32915e-4 0,0 Z" />
        </g>
      </g>
      <g
         id="g1"
         inkscape:label="teeth"
         style="display:inline;fill:#000000;fill-opacity:1;stroke:#000000;stroke-width:1.93176;stroke-dasharray:none;stroke-opacity:1"
         transform="translate(-78.778985,10.19491)">
        <path
           id="path464-2"
           style="fill:#000000;fill-opacity:1;fill-rule:nonzero;stroke:#000000;stroke-width:1.93176;stroke-dasharray:none;stroke-opacity:1"
           d="m 2791.9069,4110.7343 c -0.4433,-0.1197 -0.9828,-0.072 -1.3249,-0.4269 -0.2616,-0.2838 -0.022,-0.8048 0.3654,-0.7743 1.1639,0.2198 2.3617,0.3432 3.5395,0.1563 0.993,-0.1259 1.9533,-0.4372 2.8598,-0.8557 0.297,-0.1183 0.7536,-0.208 0.9272,0.1444 0.1529,0.288 -0.058,0.6576 -0.3713,0.708 -1.8691,0.8298 -3.9445,1.3491 -5.9957,1.0482 z" />
        <path
           id="path472-9"
           style="fill:#000000;fill-opacity:1;fill-rule:nonzero;stroke:#000000;stroke-width:1.93176;stroke-dasharray:none;stroke-opacity:1"
           d="m 2797.9562,4110.4931 c -0.3239,-0.1156 -0.7804,-0.418 -0.6818,-0.809 0.097,-0.3269 0.5861,0.082 0.4865,-0.2166 -0.085,-0.3832 0.4334,-0.7651 0.5946,-0.2944 0.041,0.3351 -0.058,0.6685 -0.048,1.004 -0.019,0.1783 -0.1611,0.3522 -0.3509,0.316 z" />
        <path
           id="path476-7"
           style="fill:#000000;fill-opacity:1;fill-rule:nonzero;stroke:#000000;stroke-width:1.93176;stroke-dasharray:none;stroke-opacity:1"
           d="m 2798.3439,4109.1249 c -0.037,-0.082 0.041,0.077 0,0 z" />
        <path
           id="path468-3"
           style="fill:#000000;fill-opacity:1;fill-rule:nonzero;stroke:#000000;stroke-width:1.93176;stroke-dasharray:none;stroke-opacity:1"
           d="m 2790.8581,4111.4931 c -0.1901,-0.4391 -0.2981,-0.9078 -0.4369,-1.3639 -0.049,-0.4024 0.5876,-0.4442 0.593,-0.034 0.039,0.2181 0.056,0.4309 0.2574,0.1961 0.2718,-0.034 0.7826,0.102 0.6384,0.4798 -0.1286,0.364 -0.4035,0.7298 -0.7902,0.8342 -0.1009,0.019 -0.2056,-0.026 -0.2617,-0.1119 z" />
      </g>
    </g>
  </g>
</svg>
