<?xml version="1.0" encoding="UTF-8" standalone="no"?>
<!-- Generator: Adobe Illustrator 27.5.0, SVG Export Plug-In . SVG Version: 6.00 Build 0)  -->

<svg
   version="1.1"
   x="0px"
   y="0px"
   viewBox="0 0 500 500"
   style="enable-background:new 0 0 500 500;"
   xml:space="preserve"
   id="svg376"
   sodipodi:docname="2387042_312064-P8VPSY-994.svg"
   inkscape:version="1.4.2 (ebf0e940, 2025-05-08)"
   xmlns:inkscape="http://www.inkscape.org/namespaces/inkscape"
   xmlns:sodipodi="http://sodipodi.sourceforge.net/DTD/sodipodi-0.dtd"
   xmlns="http://www.w3.org/2000/svg"
   xmlns:svg="http://www.w3.org/2000/svg"><defs
   id="defs376">
	

		
		
		
		
		
		
		
		
		
		
		
		
		
		
		
	</defs><sodipodi:namedview
   id="namedview376"
   pagecolor="#ffffff"
   bordercolor="#000000"
   borderopacity="0.25"
   inkscape:showpageshadow="2"
   inkscape:pageopacity="0.0"
   inkscape:pagecheckerboard="0"
   inkscape:deskcolor="#d1d1d1"
   inkscape:zoom="0.91803743"
   inkscape:cx="171.56163"
   inkscape:cy="290.29317"
   inkscape:window-width="1712"
   inkscape:window-height="1073"
   inkscape:window-x="0"
   inkscape:window-y="39"
   inkscape:window-maximized="0"
   inkscape:current-layer="svg376" />

<g
   id="g343"
   style="fill:#000000;fill-opacity:1;stroke:#3b3b3b;stroke-opacity:1"
   transform="matrix(2.7619055,0,0,2.7619055,-212.53128,-442.79526)">
			<g
   id="g339"
   style="fill:#000000;fill-opacity:1;stroke:#3b3b3b;stroke-opacity:1">
				<path
   style="fill:#000000;fill-opacity:1;stroke:#3b3b3b;stroke-opacity:1"
   d="M 235.111,304.977 H 97.654 c -3.758,0 -6.815,-3.057 -6.815,-6.815 v -96.325 c 0,-3.757 3.057,-6.814 6.815,-6.814 h 137.457 c 3.758,0 6.815,3.057 6.815,6.814 v 96.325 c 0,3.758 -3.057,6.815 -6.815,6.815 z M 97.654,199.353 c -1.37,0 -2.485,1.115 -2.485,2.485 v 96.325 c 0,1.37 1.115,2.485 2.485,2.485 h 137.457 c 1.37,0 2.485,-1.115 2.485,-2.485 v -96.325 c 0,-1.37 -1.115,-2.485 -2.485,-2.485 z"
   id="path339" />
			</g>
			<g
   id="g340"
   style="fill:#000000;fill-opacity:1;stroke:#3b3b3b;stroke-opacity:1">
				<path
   style="fill:#000000;fill-opacity:1;stroke:#3b3b3b;stroke-opacity:1"
   d="m 160.786,245.19 c -9.031,0 -16.378,-7.347 -16.378,-16.378 0,-9.031 7.347,-16.378 16.378,-16.378 9.031,0 16.378,7.347 16.378,16.378 0,9.031 -7.347,16.378 -16.378,16.378 z m 0,-28.427 c -6.644,0 -12.048,5.405 -12.048,12.048 0,6.644 5.405,12.048 12.048,12.048 6.644,0 12.048,-5.405 12.048,-12.048 0.001,-6.643 -5.404,-12.048 -12.048,-12.048 z"
   id="path340" />
			</g>
			<g
   id="g341"
   style="fill:#000000;fill-opacity:1;stroke:#3b3b3b;stroke-opacity:1">
				<path
   style="fill:#000000;fill-opacity:1;stroke:#3b3b3b;stroke-opacity:1"
   d="m 196.837,304.697 c -0.554,0 -1.108,-0.211 -1.531,-0.634 l -42.384,-42.384 c -5.617,-5.617 -14.755,-5.616 -20.373,0 l -38.014,38.014 c -0.845,0.846 -2.217,0.846 -3.061,0 -0.846,-0.846 -0.846,-2.216 0,-3.061 l 38.014,-38.014 c 7.304,-7.305 19.189,-7.305 26.495,0 l 42.384,42.384 c 0.846,0.846 0.846,2.216 0,3.061 -0.422,0.423 -0.976,0.634 -1.53,0.634 z"
   id="path341" />
			</g>
			<g
   id="g342"
   style="fill:#000000;fill-opacity:1;stroke:#3b3b3b;stroke-opacity:1">
				<path
   style="fill:#000000;fill-opacity:1;stroke:#3b3b3b;stroke-opacity:1"
   d="m 171.301,279.162 c -0.554,0 -1.108,-0.211 -1.531,-0.634 -0.846,-0.846 -0.846,-2.216 0,-3.061 l 31.394,-31.394 c 7.306,-7.305 19.191,-7.304 26.495,0 l 13.297,13.297 c 0.846,0.845 0.846,2.216 0,3.061 -0.845,0.846 -2.217,0.846 -3.061,0 l -13.297,-13.297 c -5.617,-5.616 -14.755,-5.617 -20.373,0 l -31.394,31.394 c -0.421,0.422 -0.976,0.634 -1.53,0.634 z"
   id="path342" />
			</g>
		</g>

</svg>
