<?xml version="1.0" encoding="UTF-8" standalone="no"?>
<svg
   width="2000pt"
   height="1000pt"
   viewBox="0 0 2666.6666 1333.3334"
   version="1.1"
   xml:space="preserve"
   style="clip-rule:evenodd;fill-rule:evenodd;stroke-linecap:round;stroke-linejoin:round;stroke-miterlimit:1.5"
   id="svg8"
   sodipodi:docname="Rajnoor.svg"
   inkscape:version="1.4.2 (ebf0e940, 2025-05-08)"
   xmlns:inkscape="http://www.inkscape.org/namespaces/inkscape"
   xmlns:sodipodi="http://sodipodi.sourceforge.net/DTD/sodipodi-0.dtd"
   xmlns="http://www.w3.org/2000/svg"
   xmlns:svg="http://www.w3.org/2000/svg"><defs
   id="defs8">
        
    </defs><sodipodi:namedview
   id="namedview8"
   pagecolor="#ffffff"
   bordercolor="#000000"
   borderopacity="0.25"
   inkscape:showpageshadow="2"
   inkscape:pageopacity="0.0"
   inkscape:pagecheckerboard="0"
   inkscape:deskcolor="#d1d1d1"
   inkscape:zoom="0.1897433"
   inkscape:cx="1222.7046"
   inkscape:cy="1141.0153"
   inkscape:window-width="1712"
   inkscape:window-height="987"
   inkscape:window-x="0"
   inkscape:window-y="40"
   inkscape:window-maximized="0"
   inkscape:current-layer="svg8"
   inkscape:document-units="pt" />
    
    
    
    
    
    
    
    <path
   d="m 1130.823,749.81328 c 6.1834,77.6658 36.2744,510.26312 -61.2643,521.41602 -68.3046,-0.7757 -130.28746,-64.6781 -105.84503,-145.0397"
   style="fill:none;fill-opacity:1;stroke:#000000;stroke-width:67.1726;stroke-dasharray:none;stroke-opacity:1"
   id="NameJ"
   sodipodi:nodetypes="ccc"
   inkscape:label="j" /><path
   d="m 1131.9447,598.09524 c -12.1168,-1.96662 -42.2398,46.10065 -5.1512,34.56275 7.0194,-2.1774 18.5289,-11.04631 13.9543,-20.77087 -13.5622,-28.80332 -33.7518,15.94367 -22.4192,16.65247 13.1471,0.8236 23.4033,-24.37209 9.4106,-21.18591 -7.9805,1.81976 -10.8483,22.43731 2.3065,15.72661 10.9482,-5.58702 3.0215,-15.65637 -3.3445,-9.38617 -4.9743,4.89739 3.5828,6.0084 4.2594,6.0978"
   style="fill:none;fill-opacity:1;stroke:#000000;stroke-width:66.5657;stroke-dasharray:none;stroke-opacity:1"
   id="NameJdot"
   inkscape:label="dot" />
<path
   d="M 331.53035,91.608771 C 347.47417,103.56664 288.55823,408.09111 257.49132,529.25856 183.2262,818.89528 168.23938,811.36938 45.247748,1083.7275 49.462888,849.18488 -18.546111,418.57786 476.31621,126.15991 564.01032,74.339401 646.25354,93.021051 667.17129,155.77429 766.15428,452.72327 263.37579,676.18141 211.5305,699.22378 365.48065,858.56898 361.88803,857.57798 507.57824,1027.794"
   style="clip-rule:evenodd;fill:none;fill-rule:evenodd;stroke:#000000;stroke-width:65.8896;stroke-linecap:round;stroke-linejoin:round;stroke-miterlimit:1.5;stroke-dasharray:none"
   id="NameR1"
   inkscape:label="R" /><path
   d="m 1339.5464,743.35438 c 18.1644,167.8314 -1.914,163.991 -61.8861,323.33622 7.656,-30.0417 88.7348,-348.11292 199.081,-332.34872 88.0905,12.5742 11.6296,311.13372 4.9367,337.27312"
   style="clip-rule:evenodd;fill:none;fill-rule:evenodd;stroke:#000000;stroke-width:65.8896;stroke-linecap:round;stroke-linejoin:round;stroke-miterlimit:1.5;stroke-dasharray:none"
   id="NameN"
   inkscape:label="n" /><path
   d="m 1825.7981,798.01278 c -247.4076,17.7236 -296.8522,330.50262 -59.1367,248.23452 173.6072,-60.11352 205.5654,-349.86582 -27.8064,-229.84802"
   style="clip-rule:evenodd;fill:none;fill-rule:evenodd;stroke:#000000;stroke-width:65.8665;stroke-linecap:round;stroke-linejoin:round;stroke-miterlimit:1.5;stroke-dasharray:none"
   id="NameO1"
   inkscape:label="o1" /><path
   d="m 2144.0917,818.69918 c -282.6349,121.1144 -114.709,280.03812 -3.7047,229.90272 182.9873,-82.61262 151.7911,-338.89872 -11.0104,-257.49792"
   style="clip-rule:evenodd;fill:none;fill-rule:evenodd;stroke:#000000;stroke-width:65.8639;stroke-linecap:round;stroke-linejoin:round;stroke-miterlimit:1.5;stroke-dasharray:none"
   id="NameO2"
   inkscape:label="o2" /><path
   d="m 2423.6227,775.70548 c -19.5468,154.2781 -29.4144,149.5209 -73.8067,297.77002 13.4944,-32.8997 151.9701,-369.88102 265.2235,-356.57512"
   style="clip-rule:evenodd;fill:none;fill-rule:evenodd;stroke:#000000;stroke-width:65.8631;stroke-linecap:round;stroke-linejoin:round;stroke-miterlimit:1.5;stroke-dasharray:none"
   id="NameR2"
   inkscape:label="r" /><path
   d="M 889.80967,706.80568 C 606.46162,674.18501 483.14503,1036.3332 716.59506,1041.601 c 220.48116,4.935 166.5316,-258.63792 162.36199,-329.45362 -10.39907,79.7748 -40.29906,204.053 21.72666,322.05642"
   style="clip-rule:evenodd;fill:none;fill-rule:evenodd;stroke:#000000;stroke-width:65.9041;stroke-linecap:round;stroke-linejoin:round;stroke-miterlimit:1.5;stroke-dasharray:none"
   id="NameA"
   inkscape:label="a" /></svg>
