<?xml version="1.0" encoding="UTF-8" standalone="no"?>
<svg
   version="1.1"
   width="2248"
   height="799"
   id="svg13"
   sodipodi:docname="signature.svg"
   inkscape:version="1.4 (86a8ad7, 2024-10-11)"
   xmlns:inkscape="http://www.inkscape.org/namespaces/inkscape"
   xmlns:sodipodi="http://sodipodi.sourceforge.net/DTD/sodipodi-0.dtd"
   xmlns="http://www.w3.org/2000/svg"
   xmlns:svg="http://www.w3.org/2000/svg">
  <defs
     id="defs13" />
  <sodipodi:namedview
     id="namedview13"
     pagecolor="#ffffff"
     bordercolor="#000000"
     borderopacity="0.25"
     inkscape:showpageshadow="2"
     inkscape:pageopacity="0.0"
     inkscape:pagecheckerboard="0"
     inkscape:deskcolor="#d1d1d1"
     inkscape:zoom="0.19016904"
     inkscape:cx="1882.5357"
     inkscape:cy="491.66784"
     inkscape:window-width="1920"
     inkscape:window-height="1005"
     inkscape:window-x="-8"
     inkscape:window-y="-8"
     inkscape:window-maximized="1"
     inkscape:current-layer="svg13" />
  <path
     d="M0 0 C2.7631124 4.36750024 2.9342173 8.03068523 1.9375 13.0625 C0.58387249 15.91888348 -0.54973855 16.93211529 -3.0625 19.0625 C-5.05923484 19.41486497 -7.05900739 19.75084559 -9.0625 20.0625 C-10.15273953 22.26783367 -10.15273953 22.26783367 -11.0625 25.0625 C-11.50207031 26.08601563 -11.94164062 27.10953125 -12.39453125 28.1640625 C-18.81762489 43.45068642 -26.0625 63.35090962 -26.0625 80.0625 C-25.60101563 79.21429688 -25.13953125 78.36609375 -24.6640625 77.4921875 C-8.51880443 48.27595729 15.78510475 16.78522208 48.77734375 6.48828125 C59.01339128 4.4706878 68.97867057 5.67212437 77.9375 11.0625 C91.77332659 21.20877283 98.78089247 35.67855773 101.37109375 52.4296875 C103.79247653 70.67582398 102.89323296 88.82374152 100.9375 107.0625 C100.79852295 108.38483643 100.79852295 108.38483643 100.65673828 109.73388672 C91.77652735 190.03034588 54.46132432 269.33435 -3.11328125 326.08203125 C-5.60956267 328.61833322 -7.8491745 331.27799373 -10.0625 334.0625 C-9.22460938 334.31902344 -8.38671875 334.57554687 -7.5234375 334.83984375 C-3.75857269 336.16986935 -0.2409327 337.82212638 3.3125 339.625 C4.00947998 339.97796143 4.70645996 340.33092285 5.42456055 340.69458008 C24.37407432 350.37477771 41.50906188 362.07224239 58.69702148 374.58203125 C68.25275255 381.86756811 68.25275255 381.86756811 78.9375 387.0625 C78.90269531 386.3096875 78.86789062 385.556875 78.83203125 384.78125 C78.2778992 363.03816399 85.68472581 342.91187082 95.9375 324.0625 C96.48019531 323.03898437 97.02289063 322.01546875 97.58203125 320.9609375 C110.79496639 297.10692808 132.66760337 271.68460575 159.765625 263.69140625 C168.78361595 261.90335632 177.70674903 261.6640314 185.7890625 266.45703125 C194.08498398 272.65634712 198.2556793 280.94127275 199.9375 291.0625 C200.81369759 299.55404453 201.07388979 308.09326473 201.1875 316.625 C201.21952515 317.89162476 201.21952515 317.89162476 201.25219727 319.18383789 C201.27991366 324.2307413 200.77987644 327.70822119 197.9375 332.0625 C194.56954875 334.49055788 191.95837191 335.31674769 187.875 335.0625 C183.67461816 334.34634294 181.60794998 332.38033179 178.9375 329.0625 C177.4613638 326.1102276 177.75268543 323.40564434 177.69140625 320.11328125 C177.65844293 318.69335379 177.62523174 317.27343206 177.59179688 315.85351562 C177.54458577 313.61991672 177.50020051 311.38633678 177.46069336 309.15258789 C177.42063281 306.99339618 177.3691496 304.83469542 177.31640625 302.67578125 C177.2913501 301.38454346 177.26629395 300.09330566 177.24047852 298.76293945 C176.8054584 292.45542599 176.8054584 292.45542599 173.9375 287.0625 C165.28242941 286.30659864 157.89974314 291.47779606 151.484375 296.84765625 C131.87063436 314.12710145 119.79876995 337.11747809 112.9375 362.0625 C112.69128906 362.89007813 112.44507813 363.71765625 112.19140625 364.5703125 C110.16603016 372.14102863 109.27012113 381.79043007 112.1875 389.1875 C115.66462129 394.89991354 119.46375322 397.2127202 125.69140625 399.296875 C142.06645378 403.15910041 158.94373178 397.52850404 173.07128906 389.26904297 C178.30850569 385.88307691 182.63437504 381.53774996 186.9375 377.0625 C187.58976562 376.41796875 188.24203125 375.7734375 188.9140625 375.109375 C207.61237202 355.47188098 215.28477008 324.93686201 221.40258789 299.36328125 C224.78041154 285.65582266 224.78041154 285.65582266 229.6875 281.625 C234.55581968 280.40792008 238.35069331 280.2162031 242.75 282.5625 C249.26737409 290.01092754 248.37375939 299.25885193 248.25 308.5625 C248.23929034 310.0643714 248.22863016 311.56624315 248.21801758 313.06811523 C248.12734553 322.02365379 247.72692387 330.89777261 246.86499023 339.81494141 C245.8613792 350.26669738 245.18236838 360.73568023 244.51797485 371.21383667 C244.38305117 373.33063351 244.2457373 375.44727962 244.10580444 377.56375122 C243.25685127 390.41689966 242.73707512 403.18064656 242.9375 416.0625 C243.69957764 415.02843018 244.46165527 413.99436035 245.24682617 412.92895508 C254.79034758 400.05432936 254.79034758 400.05432936 261.9375 398.0625 C265.86169998 397.67614054 268.65978437 398.21151179 271.9609375 400.41015625 C276.06350762 403.81780123 278.13074889 406.21687367 278.75 411.625 C278.66436146 420.9718349 271.52186441 428.12798167 265.9375 435.0625 C265.40914551 435.72314453 264.88079102 436.38378906 264.33642578 437.06445312 C247.71094307 457.64090828 247.71094307 457.64090828 237.9375 459.0625 C232.25314706 459.66144773 227.96560114 459.04211549 222.9375 456.0625 C213.41634484 446.34019367 212.7411299 434.42484311 212.75 421.5 C212.74935547 420.51507568 212.74871094 419.53015137 212.74804688 418.51538086 C212.82373631 407.64448527 213.80158889 396.86725025 214.9375 386.0625 C214.42703125 386.78953125 213.9165625 387.5165625 213.390625 388.265625 C196.65714643 411.40766983 174.78452405 425.44565131 146.81640625 431.5234375 C129.14782301 434.33521204 111.77498 431.38362134 97.125 421.0625 C94.5117427 419.23042545 94.5117427 419.23042545 91.9375 418.0625 C88.1875 418.97916667 88.1875 418.97916667 84.9375 421.0625 C64.85591706 423.48613932 45.05300138 406.55725143 30.0703125 395.11328125 C21.55692494 388.62291818 12.91595352 382.650345 3.73046875 377.14697266 C2.12844988 376.17799556 0.54702503 375.17515742 -1.03125 374.16796875 C-7.8538068 369.92303524 -14.94152922 367.01707173 -22.40136719 364.11938477 C-28.06176383 361.90605198 -33.6016535 359.5449029 -39.0625 356.875 C-39.71444336 356.5663501 -40.36638672 356.2577002 -41.03808594 355.93969727 C-46.15850288 353.37472498 -49.03736327 350.42031448 -51.3125 345.1875 C-53.08844118 337.78774508 -51.81204902 332.50633574 -48.0625 326.0625 C-43.96161489 320.27439359 -38.53857563 315.6632876 -33.32348633 310.90917969 C-23.129745 301.59763084 -13.55779228 291.96780428 -5.0625 281.0625 C-4.18392527 279.97263941 -3.30363138 278.88416308 -2.421875 277.796875 C7.42556749 265.58064381 15.92364623 252.56733587 23.80322266 239.00927734 C24.55464845 237.71959389 25.31207541 236.43338687 26.07568359 235.15087891 C50.45217246 194.11798157 65.55496529 146.51661616 72.57910156 99.44775391 C72.90214756 97.29778154 73.25551772 95.15544391 73.6171875 93.01171875 C76.31073694 75.24536186 78.63377027 51.83373661 68.96484375 35.7890625 C65.579114 31.23561478 62.64287426 29.39257244 57.0625 28.3125 C42.43478097 29.05127369 26.56790288 42.66770451 16.9453125 52.7734375 C-2.63406043 75.09544633 -17.17453983 101.14766746 -29.6875 127.9375 C-29.98154724 128.56539429 -30.27559448 129.19328857 -30.57855225 129.84020996 C-36.4656048 142.46711434 -40.58570867 154.18954884 -42.9375 167.9375 C-43.19582502 169.4051254 -43.45471076 170.87265221 -43.71411133 172.34008789 C-45.73765264 183.86563729 -47.61471336 195.41562509 -49.46704102 206.96972656 C-52.04622007 223.05171534 -54.70201396 239.12088233 -57.375 255.1875 C-57.49321232 255.89828579 -57.61142464 256.60907158 -57.73321915 257.34139633 C-61.3882807 279.31124305 -65.16674782 301.25636108 -69.07177734 323.18334961 C-70.94357577 333.69637073 -72.77960915 344.21097907 -74.5 354.75 C-78.23236007 377.52528759 -82.37940162 400.23225242 -86.49688721 422.94042969 C-87.01255146 425.78679399 -87.52586316 428.63357136 -88.03857422 431.48046875 C-88.82247083 435.8233365 -89.62678849 440.16205816 -90.4375 444.5 C-90.65140381 445.68650146 -90.86530762 446.87300293 -91.08569336 448.09545898 C-92.75657058 456.84913318 -94.79131062 465.31318747 -102.0625 471.0625 C-106.64274718 473.65509274 -110.03986138 474.56690168 -115.14453125 473.62890625 C-119.8212464 472.24779892 -122.85543605 469.76937422 -125.375 465.6875 C-146.24217958 420.86170682 -96.54712134 256.36704503 -79.0625 201.0625 C-78.7339502 200.16885742 -78.40540039 199.27521484 -78.06689453 198.35449219 C-76.69882655 193.87052801 -75.95679335 189.3448054 -75.1796875 184.7265625 C-74.81766235 182.62872333 -74.45551526 180.53090521 -74.09326172 178.43310547 C-73.90503845 177.33335388 -73.71681519 176.23360229 -73.52288818 175.1005249 C-69.57602998 152.0889136 -65.25885507 129.17785083 -60.5267334 106.31591797 C-60.06825264 104.09042366 -59.61553114 101.86384284 -59.16503906 99.63671875 C-42.76769228 18.59643409 -42.76769228 18.59643409 -23.0625 1.0625 C-15.8723773 -3.44894954 -7.38995983 -4.67528071 0 0 Z "
     fill="#000000"
     transform="translate(264.0625,56.9375)"
     id="path1" />
  <path
     d="m 678.75,177.5 c 9.5641,5.86671 13.65268,12.74544 16.25,23.5 3.50616,14.68826 5.9427,29.41432 7.68701,44.40674 0.29464,2.44125 0.62482,4.874 0.97315,7.3081 0.1003,0.71995 0.20061,1.43989 0.30395,2.18164 0.26299,1.87755 0.53197,3.75425 0.80151,5.63086 0.45549,6.74879 -0.20375,12.17103 -4.76562,17.47266 -4.37705,2.91803 -7.78464,3.64048 -13,3 -3.64543,-1.39804 -6.39119,-3.24914 -8.875,-6.3125 -2.14044,-5.11328 -2.25076,-10.68114 -2.51953,-16.16797 -0.72382,-13.45121 -1.68718,-26.73909 -3.60547,-40.08203 -0.16605,-1.16362 -0.33209,-2.32724 -0.50317,-3.52612 C 670.40448,207.28544 670.40448,207.28544 668,200 c -0.66,-0.33 -1.32,-0.66 -2,-1 -8.22918,12.89521 -9.62708,28.35815 -12.28125,43.125 -0.21455,1.16902 -0.4291,2.33804 -0.65015,3.54248 -0.41196,2.25693 -0.81053,4.51635 -1.19384,6.77832 -1.04713,5.77883 -2.04422,10.0313 -5.87476,14.5542 -3.62647,2.31691 -6.93391,2.2812 -11.06641,1.59375 C 631.51397,267.54368 630.02583,265.88528 628,263 c -2.02303,-7.93873 0.29556,-15.40881 2.125,-23.1875 0.33034,-1.43861 0.65984,-2.87742 0.98853,-4.31641 0.65394,-2.85493 1.31565,-5.70792 1.98168,-8.56005 0.78259,-3.37178 1.50625,-6.75293 2.20557,-10.14307 C 638.31032,202.51842 642.68171,187.08849 655,178 c 7.67572,-4.6344 15.85699,-4.47903 23.75,-0.5 z"
     fill="#000000"
     id="path2" />
  <path
     d="M0 0 C5.3161351 4.66044481 8.525429 9.3390237 9.4375 16.375 C9.33002122 20.69068643 8.06207767 24.67092577 6.75 28.75 C6.54560303 29.4001709 6.34120605 30.0503418 6.13061523 30.72021484 C4.76622478 34.7087503 3.30585981 37.36043752 0 40 C-4.1449865 41.38166217 -8.05936128 41.64687957 -12.25 40.25 C-15.397178 38.00201572 -16.73911879 35.90305034 -17.8125 32.1875 C-18.03454141 28.41279597 -17.1012501 25.59288161 -16 22 C-29.04365324 28.30088645 -40.81999538 34.58681607 -51.4609375 44.61328125 C-53.52840573 46.55670139 -55.62866886 48.38003125 -57.8125 50.1875 C-67.53575104 58.6477308 -76.25360084 68.73258336 -84 79 C-84.40782715 79.52464844 -84.8156543 80.04929687 -85.23583984 80.58984375 C-92.93399781 90.49830829 -99.24064858 100.85936671 -105 112 C-105.51433594 112.98613281 -106.02867188 113.97226562 -106.55859375 114.98828125 C-112.65285587 127.49955458 -118.3488114 143.79924025 -115.03125 157.74609375 C-111.55052114 165.35359584 -100.26378167 168.28940642 -93 171 C-91.38387235 171.57071849 -89.76659048 172.13817448 -88.1484375 172.703125 C-69.22161737 179.33562995 -50.09655811 186.40626668 -35 200 C-34.23816406 200.67675781 -33.47632813 201.35351562 -32.69140625 202.05078125 C-18.85182791 215.10550637 -9.63519406 233.94737808 -8.83203125 252.98046875 C-8.59845139 274.26888719 -14.04108829 293.52622363 -28 310 C-28.98613281 311.20462891 -28.98613281 311.20462891 -29.9921875 312.43359375 C-44.18304964 329.09356194 -66.06699159 342.2166233 -88 345 C-105.05602483 345.90041958 -118.66285795 343.94534384 -131.98828125 332.4140625 C-138.75636436 326.15926727 -143.91288962 320.08586437 -144.5 310.625 C-144.12155077 302.92085499 -141.18338566 295.67221029 -136 290 C-133.4140625 288.05078125 -133.4140625 288.05078125 -130.625 286.3125 C-129.70976563 285.73113281 -128.79453125 285.14976562 -127.8515625 284.55078125 C-122.01367108 281.37592797 -116.5782749 280.08476175 -110 281 C-106.03633582 282.34413275 -103.49792525 284.29326739 -101.0625 287.75 C-99.3088506 293.11410403 -99.07073288 297.02530736 -101.5 302.1875 C-104.59065416 305.66448593 -107.94898397 307.77784072 -112 310 C-105.78526656 314.49373033 -98.32657925 313.9060403 -91 313 C-74.65450186 308.95408462 -60.70254802 298.22123701 -52 284 C-45.42378461 272.3437452 -42.0297615 259.64496776 -45.27734375 246.33203125 C-49.39831291 233.0335524 -56.78668851 223.28541792 -68.92285156 216.32324219 C-78.71641788 211.29716612 -88.79886172 207.78138736 -99.25 204.375 C-134.28870482 192.90286807 -134.28870482 192.90286807 -144 178 C-145.63677787 174.74812343 -146.87877573 171.46070184 -148 168 C-148.226875 167.33742188 -148.45375 166.67484375 -148.6875 165.9921875 C-152.38805596 152.88605181 -150.26636653 138.61244605 -146 126 C-145.79632812 125.37448242 -145.59265625 124.74896484 -145.3828125 124.10449219 C-137.10606546 98.9293866 -122.09793801 77.04919612 -104.40283203 57.55419922 C-102.4208248 55.35833113 -100.49809421 53.11176826 -98.5625 50.875 C-95.59186555 47.54239749 -92.48267689 44.78614151 -89 42 C-86.8257624 39.88151208 -84.68811957 37.74285636 -82.625 35.515625 C-65.95924351 18.01658068 -25.45979016 -13.5605937 0 0 Z "
     fill="#000000"
     transform="translate(1640,187)"
     id="path3" />
  <path
     d="M0 0 C3.07061968 1.71368609 5.40450726 3.80901452 7 7 C7.543956 12.86856396 6.78984885 17.761532 4.75 23.3125 C4.49114014 24.01705322 4.23228027 24.72160645 3.96557617 25.44750977 C0.12796029 35.64014053 -4.31520381 45.60199943 -8.65579224 55.58717346 C-11.31349323 61.70676289 -13.90929395 67.85182942 -16.5 74 C-25.99951723 96.47830239 -35.67481692 118.86714024 -45.55712891 141.17944336 C-52.1143215 155.9844147 -58.63062278 170.80698973 -65.12548828 185.6394043 C-68.69474064 193.7854711 -72.28155157 201.92051929 -76 210 C-71.77116538 206.93202194 -67.70242302 203.77576773 -63.75244141 200.35400391 C-51.30630162 189.58547173 -37.88834508 179.82318393 -24 171 C-22.89930176 170.29907227 -22.89930176 170.29907227 -21.77636719 169.58398438 C55.89392978 120.2997106 55.89392978 120.2997106 87.4375 127 C93.62670689 128.85676207 97.98644803 131.93726225 102 137 C107.3070829 146.86830551 106.24296617 155.95856932 104.3125 166.5625 C104.13750977 167.55467529 103.96251953 168.54685059 103.78222656 169.5690918 C102.2969364 177.80493503 100.53739515 185.97421328 98.57543945 194.10961914 C96.12572684 204.70325668 96.48416362 212.32296741 100.875 222.3125 C101.23980469 223.17939453 101.60460938 224.04628906 101.98046875 224.93945312 C103.37807602 228.255594 104.80821216 231.55713345 106.23828125 234.859375 C107.8887741 239.4976831 107.469466 243.66984632 105.875 248.1875 C103.05299253 252.42051121 99.92271008 255.35909664 95 257 C89.38400084 257.36826224 85.82334011 257.21556007 81 254 C76.53571994 249.36483841 74.45389949 244.85525566 72.375 238.8125 C72.07650146 237.96244385 71.77800293 237.1123877 71.47045898 236.23657227 C70.8891481 234.56356625 70.31487966 232.88809245 69.74853516 231.20996094 C69.15138883 229.44695751 68.52409193 227.69417506 67.88671875 225.9453125 C62.5904075 209.83046974 67.07776393 193.40376444 71.4375 177.6875 C71.96106989 175.74079408 72.48256551 173.79352906 73.00195312 171.84570312 C73.94729359 168.30320074 74.90662072 164.76504127 75.87670898 161.22924805 C76.70678535 158.17002409 77.44163379 155.12280293 78 152 C20.10925135 159.76188809 -42.94399299 207.89970304 -78.6015625 252.96875 C-81.63314024 256.80019027 -84.75657869 260.55168222 -87.875 264.3125 C-91.81991948 269.08029262 -95.71100968 273.87784992 -99.49414062 278.77514648 C-111.76228244 294.65475509 -111.76228244 294.65475509 -119 297 C-124.63460206 297.44719064 -128.14906044 297.19721016 -133 294 C-136.43397179 290.75680442 -138.18011344 287.32640302 -138.98046875 282.71875 C-139.07719449 269.25452673 -129.27042678 254.02461547 -123.86621094 242.11816406 C-121.85986248 237.69607913 -119.87076385 233.26631683 -117.8828125 228.8359375 C-102.00377951 193.46095463 -86.03607322 158.12521595 -69.86407471 122.88311768 C-69.04430169 121.0965487 -68.22501772 119.30975534 -67.40576172 117.52294922 C-60.72171366 102.95437289 -53.9291567 88.43842151 -47.09326172 73.94067383 C-41.81172168 62.73797708 -36.56565714 51.5190605 -31.34033203 40.29003906 C-30.79747559 39.1244043 -30.25461914 37.95876953 -29.6953125 36.7578125 C-29.22109863 35.7383252 -28.74688477 34.71883789 -28.25830078 33.66845703 C-27.48993627 32.03899951 -26.68632241 30.42485932 -25.82373047 28.84326172 C-24.76590413 26.84134501 -24.76590413 26.84134501 -25.125 23.75 C-24.83821322 15.14639669 -18.7445932 8.03631082 -13 2 C-8.90312282 -0.61520026 -4.72398047 -0.82547064 0 0 Z "
     fill="#000000"
     transform="translate(2103,263)"
     id="path4" />
  <path
     d="M0 0 C2.37349391 3.60771074 2.75552248 7.09880971 2.5625 11.375 C1.0726436 15.60932873 -0.47016164 18.25207167 -4.4375 20.375 C-7.73705582 20.69702009 -11.00348925 20.56403504 -14.3125 20.4375 C-22.594621 20.02545165 -22.594621 20.02545165 -30.4375 22.375 C-35.96180302 28.37601952 -37.45795754 37.71700899 -39.4375 45.375 C-40.05154495 47.74684962 -40.6697921 50.11721479 -41.30078125 52.48461914 C-41.71498373 54.03962545 -42.11918619 55.59734164 -42.51171875 57.15795898 C-43.99269794 62.71970677 -46.18929006 67.04926558 -50.25 71.25 C-53.51513075 72.9292101 -55.81485495 72.81221578 -59.4375 72.375 C-62.49107079 70.76179279 -64.67583566 69.34439098 -66.8125 66.625 C-69.03007091 58.64174473 -66.20698035 51.333023 -63.75 43.75 C-63.38205322 42.59298584 -63.01410645 41.43597168 -62.63500977 40.24389648 C-61.58124516 36.9502167 -60.51026653 33.66252738 -59.4375 30.375 C-58.97096965 28.89986114 -58.50475553 27.42462216 -58.0390625 25.94921875 C-54.73749919 15.98913345 -49.93780643 4.84647278 -40.4375 -0.625 C-28.13606776 -6.23093841 -11.61742708 -7.74495139 0 0 Z "
     fill="#000000"
     transform="translate(1744.4375,314.625)"
     id="path5" />
  <path
     d="M0 0 C3.01665131 1.75917031 5.41424743 3.82849486 7 7 C7.52031292 11.94297275 7.42564895 14.70610655 4.6875 18.875 C-2.49268281 31.02451837 -1.44458185 47.57830364 -2.1652832 61.24487305 C-13.67247566 277.74161108 -13.67247566 277.74161108 -42.60546875 307.66015625 C-47.55179147 312.04467441 -51.92615893 312.35711582 -58.27734375 312.2734375 C-63.59113347 311.73977139 -66.1003089 308.92061414 -69.6875 305.25 C-76.94267925 294.19226699 -75.71442942 276.71689533 -76 264 C-76.01659668 263.30535645 -76.03319336 262.61071289 -76.05029297 261.89501953 C-76.13196223 257.92549003 -76.10832576 253.96866194 -76 250 C-75.97164062 248.91976562 -75.94328125 247.83953125 -75.9140625 246.7265625 C-75.58663862 240.41195906 -75.04117085 235.97374874 -71 231 C-66.82294024 227.74907566 -63.2633426 226.68636646 -58 227.25 C-56.66238094 227.47594917 -55.32681435 227.71743768 -54 228 C-52.00476552 223.62244467 -51.15608866 219.15994795 -50.3359375 214.453125 C-50.10677643 213.16856918 -50.10677643 213.16856918 -49.87298584 211.85806274 C-49.36549106 208.99007003 -48.86879696 206.12038181 -48.375 203.25 C-48.20015076 202.23730042 -48.02530151 201.22460083 -47.84515381 200.18121338 C-42.03708958 166.36626107 -37.42214105 132.3947372 -33.4140625 98.32421875 C-33.30352161 97.38624702 -33.19298073 96.4482753 -33.07909012 95.48188019 C-31.97150016 86.0776547 -30.87274235 76.67257557 -29.80798149 67.26339626 C-29.40590368 63.72340684 -28.99650496 60.18428471 -28.58591843 56.64527321 C-28.39755779 55.00543494 -28.21255841 53.365206 -28.03142166 51.72455406 C-23.68712937 12.4022138 -23.68712937 12.4022138 -14 3 C-9.54143389 0.06139961 -5.24589071 -1.14721268 0 0 Z "
     fill="#000000"
     transform="translate(645,326)"
     id="path6" />
  <path
     d="M 0,0 C 5.0831994,4.4775838 8.147486,9.6926573 10.957031,15.800781 12.032473,18.205426 12.032473,18.205426 14,21 29.028306,70.16668 -4.2405742,152.56571 -25,196 l -1.17041,2.48535 C -34.35726,215.79737 -44.0995,231.97589 -56,247 l -2.332031,2.94922 C -60.210765,252.30833 -62.099053,254.65878 -64,257 c 5.205183,1.04109 10.26376,1.21088 15.549805,1.30957 l 2.909896,0.0651 c 2.111472,0.0467 4.222989,0.0915 6.33454,0.13449 3.478378,0.071 6.956604,0.14736 10.434839,0.22501 5.125926,0.11414 10.251889,0.22637 15.377884,0.33734 14.09368418,0.30619 28.18674,0.63995 42.279755,0.97534 l 2.280415,0.0542 c 37.351978,0.88903 74.701766,1.8601 112.049486,2.91319 9.64233,0.27178 19.28474,0.53906 28.92755,0.79345 8.28663,0.21869 16.57291,0.44732 24.85891,0.68885 4.27375,0.12431 8.5475,0.24399 12.8217,0.35159 3.94145,0.0994 7.8823,0.21208 11.82308,0.33529 1.43284,0.0425 2.86583,0.0801 4.29894,0.11243 1.94899,0.0447 3.89752,0.10872 5.84594,0.1737 l 3.28903,0.0915 c 3.3216,0.49951 5.26811,1.38847 7.91823,3.43885 0.5,3.0625 0.5,3.0625 0,6 -3.73575,2.4905 -5.42307,2.18564 -9.87891,2.04687 l -2.1947,-0.0591 c -2.49667,-0.0696 -4.99265,-0.154 -7.48889,-0.23775 -1.83973,-0.0539 -3.6795,-0.10664 -5.51929,-0.15845 -4.22029,-0.12018 -8.44037,-0.24619 -12.6604,-0.37524 -7.98126,-0.24133 -15.96321,-0.45443 -23.94531,-0.66553 -3.00309,-0.0796 -6.00619,-0.15931 -9.00928,-0.23901 l -2.3087,-0.0612 c -8.86548,-0.23547 -17.73079,-0.47705 -26.59608,-0.71928 l -2.47524,-0.0676 c -10.60217,-0.28966 -21.20428,-0.58147 -31.80635,-0.8749 -37.164723,-1.0285 -74.330194,-2.02799 -111.4962751,-3.00626 -5.2219236,-0.13749 -10.4438259,-0.27577 -15.6657109,-0.41473 -6.199032,-0.16491 -12.398108,-0.3281 -18.597219,-0.49004 -2.302538,-0.0604 -4.60506,-0.1214 -6.907566,-0.18301 -5.999064,-0.1603 -11.9981,-0.30939 -17.997946,-0.43728 -2.209107,-0.0517 -4.416895,-0.12059 -6.625351,-0.19433 l -3.482055,-0.0794 -2.814881,-0.085 c -4.073931,0.48529 -7.004912,2.56487 -10.342346,4.83261 -6.282828,4.21847 -13.883157,4.22981 -21.1875,3.46875 -4.5097,-1.19683 -8.64942,-2.44652 -11.76736,-6.03288 -2.839,-2.50137 -4.35987,-2.547 -8.11106,-2.70662 l -3.80169,-0.16739 c -1.43987,-0.0354 -2.87985,-0.0662 -4.31989,-0.0931 l -2.32914,-0.046 c -6.53866,-0.11107 -13.07673,-0.11904 -19.61617,-0.12201 -2.23817,-0.004 -4.47634,-0.008 -6.71451,-0.0127 -7.4884,-0.0118 -14.97677,-0.01 -22.46518,-0.007 -1.99663,1.8e-4 -3.99326,3.6e-4 -5.98989,5.3e-4 -87.91805,0.0127 -175.83236,1.17303 -331.04675,3.48822 -5.45712,0.0897 -10.91427,0.17728 -16.37145,0.26286 -67.05071,1.05171 -134.11611,2.72758 -201.06446,6.72007 -4.6358,0.27443 -9.27224,0.53804 -13.90855,0.80371 -10.01074,0.5758 -20.02047,1.168 -30.02994,1.76534 -3.11403,0.18549 -6.22815,0.36947 -9.34227,0.55332 -35.51027,2.09691 -71.00454,4.42599 -106.49645,6.81049 -3.14851,0.21153 -6.29703,0.42305 -9.44555,0.63452 l -2.31582,0.15556 c -11.58679,0.77784 -23.17467,1.53575 -34.76454,2.26638 -7.76681,0.49004 -15.53319,0.98696 -23.29959,1.48358 -2.71935,0.17385 -5.43871,0.34751 -8.15808,0.521 -96.05246,6.13139 -192.01766,13.25263 -287.91286,21.48783 -3.5611,0.30549 -7.1223,0.6097 -10.6835,0.91388 -63.1212,5.39234 -126.2303,11.04302 -189.2423,17.60024 -14.2592,1.48118 -28.5285,2.83264 -42.803,4.15747 -19.5697,1.8184 -39.1174,3.80233 -58.6609,5.88312 -19.0052,2.0231 -38.0167,3.96767 -57.0361,5.85196 -16.4382,1.62908 -32.8722,3.29313 -49.303,4.99539 -40.5806,4.20095 -81.162,8.25258 -121.8082,11.7659 -9.2292,0.79905 -18.4547,1.63547 -27.6791,2.48767 -62.7191,5.78804 -62.7191,5.78804 -93.4434,6.5217 -2.1042,0.0577 -4.206,0.14514 -6.309,0.23352 -1.3407,0.0388 -2.6813,0.0763 -4.022,0.1123 l -3.5105,0.12354 c -4.0108,-0.51268 -6.0974,-1.90094 -9.2278,-4.4126 -2.7068,-4.06022 -2.748,-7.23559 -2,-12 1.9261,-3.65287 3.0744,-5.38746 7.01,-6.6394 8.6936,-1.55471 17.4325,-2.04153 26.2353,-2.5636 5.0691,-0.30277 10.1365,-0.63204 15.2039,-0.96106 l 3.1894,-0.20655 c 10.4422,-0.6848 20.8705,-1.51148 31.2989,-2.37939 l 2.9402,-0.2442 c 4.2802,-0.35574 8.5604,-0.71208 12.8405,-1.06949 10.0433,-0.83735 20.0881,-1.65425 30.1334,-2.46756 3.455,-0.27984 6.91,-0.55971 10.365,-0.8396 l 2.6702,-0.21631 c 32.8327,-2.66049 65.662,-5.36109 98.4882,-8.10034 l 2.8937,-0.24141 c 21.0834,-1.7589 42.1664,-3.52146 63.2493,-5.28622 173.4691,-14.52017 173.4691,-14.52017 292.8284,-23.60534 10.365,-0.77727 20.7285,-1.56998 31.0911,-2.37875 112.272,-8.73502 224.6927,-15.89235 347.18774,-22.66797 4.38795,-0.24211 8.77589,-0.48429 13.16382,-0.72656 l 3.24688,-0.1792 c 20.27257,-1.1202 40.54025,-2.31466 60.80686,-3.53732 39.71054,-2.3956 79.42519,-4.67855 119.1572,-6.68973 l 2.48708,-0.12622 c 91.9289,-4.66167 183.88108,-7.02004 293.21072,-8.48673 18.6979,-0.24588 37.39484,-0.5285 56.09168,-0.84502 C -330.33579,257.10642 -245.48414,256.78272 -128,257 l -1.05859,-3.10547 c -0.4598,-1.36062 -0.91943,-2.7213 -1.37891,-4.08203 l -0.69727,-2.04102 c -3.87116,-11.5013 -3.61737,-22.23362 -1.17773,-33.99023 l 0.53606,-2.62367 c 2.01341,-9.62422 4.50504,-19.11086 7.08894,-28.59508 l 0.7308,-2.70383 c 3.98488,-14.72469 8.89768,-35.94559 12.47613,-39.81755 3.57845,-3.87196 3.73252,-3.91514 8.96642,-4.95196 5.233901,-1.03682 15.186518,-2.37673 12.778368,-2.85677 -3.341272,-1.54421 -12.195918,-8.31759 -15.352338,-10.11653 -2.62069,-2.93215 -4.63216,-6.52149 -6.53688,-10.1432 -5.16782,-11.17247 -2.68736,-24.807782 1.34131,-35.954594 C -103.24437,57.22493 -92.773537,41.595116 -79,27 l 2.039063,-2.234375 C -60.311815,7.1811588 -23.863564,-17.027647 0,0 Z m -45,31 -2.546875,2.128906 C -59.785462,43.752152 -70.307954,56.126456 -77,71 l -1.478947,3.164327 -1.479674,4.106068 c -0.736696,3.166447 -1.147514,4.316739 -0.872953,7.56323 0.16155,3.551695 0.608739,3.068284 1.065351,8.645848 C -79.055403,98.21839 -77.001309,101.17628 -73,104 -62.526692,105.21783 -52.567126,99.4489 -44.558594,93.21875 -27.591812,78.505572 -12.752548,50.86755 -10.832031,28 -10.794571,24.16409 -10.79503,21.307455 -13,18 -25.226423,17.400849 -35.955612,23.328917 -45,31 Z m 18,83 -1.625,1.46875 c -5.131659,4.38892 -10.364425,7.82708 -16.375,10.84375 l -1.9375,0.98438 c -9.017929,4.38169 -17.167726,6.16504 -27.1875,5.89062 l -2.898437,-0.041 C -79.349581,133.11159 -81.674465,133.06258 -84,133 c -7.396084,20.40771 -12.833516,40.81426 -17.18652,62.06885 -0.69497,3.3855 -1.43575,6.75892 -2.19629,10.13037 -3.33522,15.0188 -4.41747,27.39875 2.38281,41.80078 4.504625,-1.41691 7.382437,-3.87745 10.625,-7.1875 l 1.575684,-1.59863 c 9.859509,-10.26871 17.406953,-22.36773 24.750488,-34.49512 0.877876,-1.43861 1.780738,-2.86192 2.689453,-4.28125 4.820105,-7.62742 8.430269,-15.87012 12.21875,-24.04028 1.157801,-2.43332 2.380352,-4.82544 3.613281,-7.22144 2.857177,-5.6835 5.147582,-11.5446 7.402344,-17.48828 l 1.298096,-3.4043 c 2.79193,-7.38675 5.47843,-14.80464 8.014404,-22.2832 l 0.919434,-2.677 0.811035,-2.448 0.71167,-2.13281 C -25.78975,115.90098 -25.78975,115.90098 -27,114 Z"
     fill="#000000"
     transform="translate(1971,355)"
     id="path7"
     sodipodi:nodetypes="ccccccccccsscsssssscccccccccccssssssssssccccccccccccccccsccccssscscccccccccccccccccccccccsssssccccssscscccccccccczzcccccccccccccccccccccccccccccccccccccccccc" />
  <path
     d="M0 0 C5.22789194 1.8183972 7.52802396 6.28423033 10 11 C14.15674386 23.47023158 6.15459849 40.09414133 1.5625 51.625 C1.03918271 52.95931077 0.51607573 54.29370404 -0.00683594 55.62817383 C-4.23122614 66.34027663 -8.77694447 76.90703224 -13.39941406 87.45214844 C-16.58655955 94.72458206 -19.71945389 102.01013347 -22.6875 109.375 C-23.15978027 110.53261841 -23.15978027 110.53261841 -23.64160156 111.71362305 C-27.03956467 120.24571392 -28.40997469 128.33109368 -29.03515625 137.46484375 C-29.50266265 142.64269761 -30.57675462 145.8834391 -34 150 C-37.84069373 153.14986231 -41.75369903 154.33220408 -46.6875 153.9375 C-51.88377572 153.0268125 -54.8309327 151.39638594 -58.25 147.3125 C-61.82540446 140.54477013 -61.05413795 133.81311069 -59.9375 126.5 C-59.84017578 125.71625 -59.74285156 124.9325 -59.64257812 124.125 C-57.20765778 107.666501 -48.5976481 92.72847557 -41.125 78.125 C-39.20520029 74.35966124 -37.29095073 70.59157444 -35.3828125 66.8203125 C-34.92336243 65.91259094 -34.46391235 65.00486938 -33.99053955 64.06964111 C-29.69189368 55.51022715 -25.78348654 46.79731994 -22 38 C-24.80315322 40.18330144 -27.44981024 42.29262688 -29.76171875 44.99609375 C-30.23496582 45.54676514 -30.70821289 46.09743652 -31.19580078 46.66479492 C-31.68806152 47.2497876 -32.18032227 47.83478027 -32.6875 48.4375 C-33.48003174 49.37589722 -33.48003174 49.37589722 -34.28857422 50.33325195 C-35.86776719 52.21511168 -37.43585784 54.10562161 -39 56 C-39.78246094 56.94359375 -40.56492187 57.8871875 -41.37109375 58.859375 C-54.6593139 75.53298226 -66.47836069 94.02154783 -76.71923828 112.70117188 C-78.11479679 115.20604777 -79.56947819 117.67154726 -81.02734375 120.140625 C-81.99908931 121.84278433 -82.96919166 123.545883 -83.9375 125.25 C-84.40607422 126.02472656 -84.87464844 126.79945313 -85.35742188 127.59765625 C-86.55486655 129.76482237 -87.48621273 131.5762771 -88 134 C-87.28945438 136.08369254 -86.31796722 137.58174437 -85.0456543 139.37182617 C-83.36599504 141.98720034 -83.53906906 143.99586238 -84 147 C-85.90003331 150.95184443 -88.45154725 154.43836928 -91 158 C-91.50144531 158.71285156 -92.00289062 159.42570313 -92.51953125 160.16015625 C-95.94271102 164.60180273 -99.44677028 166.95201696 -105 168 C-110.39638606 168.09467344 -113.78090484 166.50428069 -117.60546875 162.84375 C-120.24539606 159.35342594 -120.40998111 156.2764183 -120 152 C-113.45912677 115.04645343 -83.44932775 77.03814627 -61 48 C-60.16505245 46.89606934 -59.33043123 45.79189181 -58.49609375 44.6875 C-31.32684519 9.05010957 -31.32684519 9.05010957 -13 1 C-9.06699689 -0.96650155 -4.29735467 -0.32432865 0 0 Z "
     fill="#000000"
     transform="translate(1839,360)"
     id="path8" />
  <path
     d="M0 0 C3.72905911 2.37727519 6.42336892 4.82052733 8.375 8.8125 C9.83106617 16.23843747 10.19298879 23.63355349 10.1875 31.1875 C10.18814453 32.12352051 10.18878906 33.05954102 10.18945312 34.02392578 C10.11341993 44.40418522 9.13330489 54.688734 8 65 C8.556875 63.96101563 9.11375 62.92203125 9.6875 61.8515625 C22.97699966 37.40874242 22.97699966 37.40874242 33 33 C38.52892763 32.06635523 43.22291018 32.28916407 48.4375 34.375 C52.06244446 38.08835774 54.04555054 42.22717778 56 47 C56.34417969 47.84046875 56.68835938 48.6809375 57.04296875 49.546875 C58.48518287 54.750619 58.97836581 60.01580056 59.5625 65.375 C59.75102539 66.99341797 59.75102539 66.99341797 59.94335938 68.64453125 C61.55572264 82.9785251 62.16565968 97.25383209 62.203125 111.6640625 C62.20736607 112.78923845 62.20736607 112.78923845 62.21169281 113.93714523 C62.22648901 117.88632281 62.23584822 121.83546553 62.24023438 125.78466797 C62.24577465 129.84179066 62.26997306 133.89858715 62.29820633 137.95560646 C62.31683748 141.10408493 62.32203796 144.25248349 62.32357025 147.40101242 C62.32658253 148.89767671 62.33456254 150.39434008 62.34775543 151.89094925 C62.36487101 153.97654906 62.36292603 156.06133053 62.35644531 158.14697266 C62.36191376 159.91991196 62.36191376 159.91991196 62.36749268 161.72866821 C61.88180827 166.05211451 60.44359512 169.41730848 57.5 172.64453125 C52.53575197 176.50992229 49.28200341 177.42589854 43 177 C37.7409029 175.10672504 35.20991406 172.40216785 32 168 C30.87603103 164.62809308 30.9587126 162.28158627 31.0859375 158.734375 C31.12920166 157.46440674 31.17246582 156.19443848 31.21704102 154.88598633 C31.26965359 153.50732268 31.3223076 152.1286606 31.375 150.75 C31.42485401 149.32643192 31.47424757 147.90284764 31.52319336 146.47924805 C31.73826625 140.34999705 31.97662385 134.22265492 32.29296875 128.09765625 C33.20245765 110.40058543 33.09562997 92.71508474 33 75 C21.58615013 99.25819987 10.97742653 123.85945436 0.33984375 148.46484375 C-9.47230959 171.16080978 -9.47230959 171.16080978 -14 181.3125 C-14.33773437 182.07651123 -14.67546875 182.84052246 -15.0234375 183.62768555 C-22.15241886 199.49145132 -22.15241886 199.49145132 -30.1875 204.3125 C-35.27409078 205.55588886 -40.47326136 205.44452284 -45.09765625 202.80078125 C-48.85672868 199.76000292 -51.42442326 196.63404925 -53 192 C-53.52097884 184.92270288 -51.91035025 178.84858855 -50 172.0625 C-49.53122437 170.36081665 -49.53122437 170.36081665 -49.05297852 168.62475586 C-46.30999796 158.80745128 -43.26449527 149.0953497 -40.08984375 139.41015625 C-39.39238916 137.27371154 -38.69587828 135.13695866 -38 133 C-37.77694183 132.31854919 -37.55388367 131.63709839 -37.32406616 130.93499756 C-33.39610038 118.89459547 -29.9758149 106.79394447 -26.9375 94.5 C-26.61591919 93.20887299 -26.61591919 93.20887299 -26.2878418 91.8916626 C-21.46130498 72.45951598 -17.46264398 52.88493124 -15 33 C-15.90492188 32.81244141 -15.90492188 32.81244141 -16.828125 32.62109375 C-20.40894473 31.59708235 -21.8078045 29.98382165 -24 27 C-25.03490977 22.607383 -24.77854501 18.77367772 -22.9609375 14.6328125 C-17.98316987 6.59608152 -10.18874999 -2.9390625 0 0 Z "
     fill="#000000"
     transform="translate(787,377)"
     id="path9" />
  <path
     d="M0 0 C3.77097425 1.3656203 6.14277253 4.17617006 7.8984375 7.6875 C8.32452443 13.16005395 7.4293449 16.47977595 4.8984375 21.3125 C4.558125 21.96855225 4.2178125 22.62460449 3.8671875 23.30053711 C-1.35481653 33.25167443 -6.87849552 43.05096258 -12.328125 52.87890625 C-18.71167986 64.39177192 -24.78110125 75.94862523 -30.38989258 87.86132812 C-32.59267521 92.53869552 -34.83604439 97.18435224 -37.19165039 101.78662109 C-48.64190439 124.16966846 -58.70458825 147.6506849 -62.0390625 172.6875 C-63.01459119 179.214818 -64.7682632 182.81071578 -69.9765625 187 C-73.85491247 189.09430898 -76.66850971 190.18658775 -81.08203125 189.28125 C-86.39000642 187.60819216 -88.92927507 185.20560634 -92.1015625 180.6875 C-93.39687495 178.0968751 -93.30634435 176.14772985 -93.3515625 173.25 C-93.37734375 172.28191406 -93.403125 171.31382812 -93.4296875 170.31640625 C-93.14497967 167.16767327 -92.59000378 164.69845062 -91.70703125 161.69140625 C-89.76490845 154.9031645 -88.95640747 148.06154727 -88.1640625 141.0625 C-87.99717757 139.64344153 -87.83001504 138.22441568 -87.66259766 136.80541992 C-86.07578748 123.16577853 -84.76132233 109.49651555 -83.49633789 95.82373047 C-81.05443953 69.6211534 -81.05443953 69.6211534 -78.1640625 60.625 C-77.84566406 59.60277344 -77.52726562 58.58054687 -77.19921875 57.52734375 C-75.17965796 52.30235908 -73.17073551 49.05475766 -68.05859375 46.41796875 C-63.13961412 44.58194242 -59.33435142 45.19005886 -54.5390625 47.125 C-50.04023036 49.97564248 -47.12181037 54.39122036 -44.1015625 58.6875 C-40.51567859 54.53542389 -37.99940665 50.11254244 -35.4140625 45.3125 C-31.90341849 38.88358033 -28.2704023 32.56644323 -24.43359375 26.32739258 C-22.40243065 22.98413758 -20.51789808 19.6077278 -18.75 16.1171875 C-18.3588501 15.34834229 -17.9677002 14.57949707 -17.56469727 13.78735352 C-16.81917937 12.30533418 -16.08697671 10.81651088 -15.37084961 9.32006836 C-12.02907011 2.67370179 -7.72571325 -1.42082083 0 0 Z M-56.1015625 79.6875 C-55.1015625 81.6875 -55.1015625 81.6875 -55.1015625 81.6875 Z "
     fill="#000000"
     transform="translate(1293.1015625,391.3125)"
     id="path10" />
  <path
     d="M0 0 C2.80127353 2.13982949 5.38222363 4.44867854 7.9375 6.875 C8.62626221 7.52847412 9.31502441 8.18194824 10.0246582 8.85522461 C23.8305149 22.36035648 32.64243724 39.44694739 33.06640625 59.07421875 C32.54786523 71.84918385 28.52110221 84.6284344 21 95 C20.35289062 95.90234375 19.70578125 96.8046875 19.0390625 97.734375 C7.28069253 113.10090904 -9.55407532 121.3991689 -28 126 C-29.17820312 126.2990625 -30.35640625 126.598125 -31.5703125 126.90625 C-57.00834518 132.66995903 -84.48372505 130.63790637 -107 117 C-113.94052307 112.0496997 -118.54861086 104.418057 -120 96 C-121.7392011 77.62968839 -112.39479981 59.80856051 -101.2734375 45.7265625 C-97.63383235 41.36153777 -93.9146226 37.12098449 -90 33 C-89.5369043 32.50967285 -89.07380859 32.0193457 -88.59667969 31.51416016 C-75.31938217 17.54013316 -57.02458163 3.54282133 -37 2.6875 C-31.44710791 2.36877533 -28.26888673 0.78760773 -23.9375 -2.625 C-16.09587864 -8.19002161 -7.17577013 -4.69563753 0 0 Z M-13 22 C-13.10957031 23.01320313 -13.21914063 24.02640625 -13.33203125 25.0703125 C-13.49159893 26.42194461 -13.65178833 27.77350343 -13.8125 29.125 C-13.91788086 30.12273437 -13.91788086 30.12273437 -14.02539062 31.140625 C-14.57699356 35.64170494 -15.64121706 39.12444465 -18 43 C-22.32518976 45.94899302 -25.81962079 46.6475474 -31 46 C-35.02014696 44.06723704 -36.67179489 42.57982902 -38.875 38.6875 C-40.02842814 34.90681886 -40.24042924 31.92701096 -40 28 C-54.55270215 30.30995272 -67.8442424 45.33844587 -76.22705078 56.65673828 C-83.83040276 67.21174612 -90.33422529 77.68450574 -91 91 C-78.36852415 101.10518068 -59.07492985 101.3781465 -43.62353516 99.74951172 C-28.83280224 97.71038873 -11.07740447 94.18455346 -1.29296875 81.84765625 C0.57991197 79.28870975 2.31194949 76.68408031 4 74 C4.44085937 73.31035156 4.88171875 72.62070312 5.3359375 71.91015625 C9.48385032 64.24681376 9.19411283 54.4779926 7.375 46.1328125 C3.9433468 36.54256741 -2.87007682 28.01614315 -11 22 C-11.66 22 -12.32 22 -13 22 Z "
     fill="#000000"
     transform="translate(987,430)"
     id="path11" />
  <path
     d="M0 0 C3.81858035 1.82973642 5.3763913 4.19244829 7.125 7.9375 C9.94079556 18.25951523 0.80591159 30.48960565 -4.125 39.125 C-4.79386661 40.30867742 -5.46215246 41.49268318 -6.12988281 42.67700195 C-7.45961287 45.0312001 -8.79501703 47.38202744 -10.13574219 49.72998047 C-11.78170539 52.61709823 -13.41307003 55.51176712 -15.0390625 58.41015625 C-19.3587305 66.06216138 -23.85813423 73.59515006 -28.6875 80.9375 C-29.10290039 81.59451904 -29.51830078 82.25153809 -29.94628906 82.9284668 C-33.08971872 87.56704685 -36.62484118 90.26991039 -42 92 C-46.54168246 92.31784161 -49.76617895 91.50798635 -53.375 88.6875 C-56.81370221 85.16692393 -57.81430159 82.95944178 -58.75 78.125 C-58.5920499 71.22032437 -53.43023958 66.07016513 -49.39794922 60.84716797 C-47.20935596 57.95528942 -45.19065498 54.95968155 -43.1875 51.9375 C-42.78861572 51.33736084 -42.38973145 50.73722168 -41.97875977 50.11889648 C-38.24434851 44.45211489 -34.64501357 38.70115119 -31.0625 32.9375 C-30.50651123 32.04474365 -29.95052246 31.1519873 -29.37768555 30.23217773 C-23.8070378 21.99810911 -23.8070378 21.99810911 -21.8125 12.5625 C-21.50128831 8.38236121 -20.19494162 6.74370336 -17.0625 4 C-11.46767555 -0.38650484 -7.04698649 -0.69348058 0 0 Z "
     fill="#000000"
     transform="translate(1692,432)"
     id="path12" />
  <path
     d="M0 0 C1.00804687 0.51949219 2.01609375 1.03898437 3.0546875 1.57421875 C19.89665417 10.76658987 30.7908363 25.47057516 38 43 C39.28587841 48.36771808 38.67636046 51.10872055 36 56 C33.62771105 58.54173816 32.02425126 58.99371264 28.625 59.875 C24.3169015 60.02355512 22.50600025 59.49315574 19 57 C16.94958545 53.95544507 15.44513826 50.94826989 13.890625 47.63671875 C7.64092183 34.58944883 -0.42454545 26.05763158 -14.0546875 20.796875 C-20.86666734 18.95384597 -25.70007618 21.60825709 -31.625 24.9375 C-41.18937156 31.41184382 -45.07129539 41.19362232 -48 52 C-48.2990625 53.09957031 -48.598125 54.19914062 -48.90625 55.33203125 C-51.58507107 65.9853058 -52.50836841 76.11820042 -47.375 86.1875 C-43.22424999 91.10286185 -40.1482514 94.59988778 -33.49609375 95.4453125 C-20.11589566 95.63433649 -9.48942739 92.25777525 2.69726562 87.1015625 C9.36922399 84.37071442 14.17840134 82.57626716 21.1875 85.1875 C24.80761046 87.52046007 27.07772378 90.15544755 29 94 C29.50981676 100.01583778 28.98170424 104.16844584 25 109 C22.26193019 111.07186751 19.33128832 112.56274976 16.25 114.0625 C15.40671143 114.48660156 14.56342285 114.91070313 13.69458008 115.34765625 C-4.3705985 124.26051299 -28.15876181 132.49395194 -48.3125 125.6875 C-61.00309312 119.39776646 -72.59719542 108.53361624 -78.2109375 95.49609375 C-83.22917192 79.62157993 -82.42106817 62.62543179 -77 47 C-76.62617187 45.82179688 -76.25234375 44.64359375 -75.8671875 43.4296875 C-71.55946466 30.44946305 -65.75692122 19.65125059 -56 10 C-55.20722656 9.15695312 -55.20722656 9.15695312 -54.3984375 8.296875 C-40.14365611 -5.59239917 -17.31409528 -9.31753084 0 0 Z "
     fill="#000000"
     transform="translate(1107,441)"
     id="path13" />
</svg>
