<?xml version="1.0" encoding="UTF-8" standalone="no"?>
<!-- Created with Inkscape (http://www.inkscape.org/) -->

<svg
   width="210mm"
   height="233mm"
   viewBox="0 0 210 233"
   version="1.1"
   id="svg1"
   inkscape:version="1.4.2 (ebf0e940, 2025-05-08)"
   sodipodi:docname="void_keeety.svg"
   xmlns:inkscape="http://www.inkscape.org/namespaces/inkscape"
   xmlns:sodipodi="http://sodipodi.sourceforge.net/DTD/sodipodi-0.dtd"
   xmlns="http://www.w3.org/2000/svg"
   xmlns:svg="http://www.w3.org/2000/svg">
  <sodipodi:namedview
     id="namedview1"
     pagecolor="#ffffff"
     bordercolor="#000000"
     borderopacity="0.25"
     inkscape:showpageshadow="2"
     inkscape:pageopacity="0.0"
     inkscape:pagecheckerboard="0"
     inkscape:deskcolor="#d1d1d1"
     inkscape:document-units="mm"
     inkscape:zoom="0.53412929"
     inkscape:cx="714.24654"
     inkscape:cy="534.51478"
     inkscape:window-width="1712"
     inkscape:window-height="987"
     inkscape:window-x="0"
     inkscape:window-y="40"
     inkscape:window-maximized="0"
     inkscape:current-layer="layer1" />
  <defs
     id="defs1">
    <clipPath
       id="clipPath20"
       clipPathUnits="userSpaceOnUse">
      <path
         id="path18"
         d="m 2559.37,3975.6 h 296.01 v 317.98 h -296.01 z" />
    </clipPath>
  </defs>
  <g
     inkscape:label="Layer 1"
     inkscape:groupmode="layer"
     id="layer1">
    <g
       transform="matrix(0.64345367,0,0,0.64345367,-1637.1484,-2545.3106)"
       id="g12"
       style="fill:#000000;fill-opacity:1;stroke:#000000;stroke-opacity:1">
      <g
         id="g14"
         style="fill:#000000;fill-opacity:1;stroke:#000000;stroke-opacity:1">
        <g
           clip-path="url(#clipPath20)"
           id="g16"
           style="fill:#000000;fill-opacity:1;stroke:#000000;stroke-opacity:1">
          <g
             transform="translate(2787.6875,4020.0188)"
             id="g22"
             style="fill:#000000;fill-opacity:1;stroke:#000000;stroke-opacity:1">
            <path
               id="path24"
               style="fill:#000000;fill-opacity:1;fill-rule:nonzero;stroke:#000000;stroke-opacity:1"
               d="m 0,0 c -6.8394,-1.4731 -13.5762,-3.4644 -20.5718,-4.335 -9.4604,-1.08 -18.9917,-1.1738 -28.5097,-1.5625 -1.938,-0.2319 -3.8755,0.1075 -5.7994,0.4468 -2.7236,0.482 -5.4243,0.9644 -8.0449,-0.1743 -0.0093,0 -0.018,0 -0.0268,-0.0044 -0.0137,0 -0.0181,0 -0.0225,0 -1.2681,-5.0493 11.148,-4.4424 14.7593,-4.353 5.393,0.2231 10.8086,0.3486 16.206,0.643 0.6338,0.0982 1.2813,0.1607 1.9375,0.1832 0.4419,0.0131 0.8887,0.0131 1.335,0.0175 3.915,0.2725 7.8174,0.6656 11.6924,1.2769 6.5805,1.4468 13.4868,2.4424 19.7148,4.7773 3.5718,2.0532 1.71,3.232 -0.9731,3.232 C 1.1519,0.1475 0.5718,0.0986 0,0 Z" />
          </g>
          <g
             transform="translate(2752.8384,4012.9163)"
             id="g26"
             style="fill:#000000;fill-opacity:1;stroke:#000000;stroke-opacity:1">
            <path
               id="path28"
               style="fill:#000000;fill-opacity:1;fill-rule:nonzero;stroke:#000000;stroke-opacity:1"
               d="m 0,0 c -0.54,-0.3037 -1.1831,-0.8975 -1.1162,-1.5093 0.0449,-0.3838 0.2637,-0.6831 0.5762,-0.8926 1.1294,0.0489 2.2588,0.1026 3.3881,0.1651 0.6294,0.0981 1.2725,0.1606 1.9288,0.1831 0.4418,0.0132 0.8886,0.0132 1.3305,0.0176 0.2857,0.018 0.5669,0.0405 0.8482,0.0625 C 5.7231,-0.5937 4.0937,0.6562 2.2588,0.6562 1.5356,0.6562 0.7769,0.4644 0,0 Z" />
          </g>
          <g
             transform="translate(2753.7671,4014.3669)"
             id="g30"
             style="fill:#000000;fill-opacity:1;stroke:#000000;stroke-opacity:1">
            <path
               id="path32"
               style="fill:#000000;fill-opacity:1;fill-rule:nonzero;stroke:#000000;stroke-opacity:1"
               d="m 0,0 c -0.9868,-0.2632 -2.3799,-0.9375 -2.3394,-1.9912 0.0357,-1.2632 1.8125,-0.9819 2.5581,-1.7857 0.5625,0.0269 1.1251,0.0582 1.6876,0.0894 0.6337,0.0981 1.2812,0.1606 1.9418,0.1831 0.4512,0.0176 0.9019,0.0132 1.3526,0.0176 0.8442,0.0581 1.6924,0.1206 2.5361,0.1924 C 6.0356,-1.75 3.9331,0.1968 1.3975,0.1968 0.9463,0.1968 0.4819,0.1387 0,0 Z" />
          </g>
          <g
             transform="translate(2757.3652,4014.6663)"
             id="g34"
             style="fill:#000000;fill-opacity:1;stroke:#000000;stroke-opacity:1">
            <path
               id="path36"
               style="fill:#000000;fill-opacity:1;fill-rule:nonzero;stroke:#000000;stroke-opacity:1"
               d="m 0,0 c -2.7231,-0.5269 -3.8306,-2.0762 -1.6743,-3.9868 0.625,0.0981 1.2724,0.1606 1.9243,0.1831 0.4463,0.0132 0.8975,0.0132 1.3481,0.0176 1.2681,0.0893 2.5318,0.1875 3.795,0.3037 C 4.585,-2.5181 3.6294,-1.6655 2.7905,-0.7187 2.353,-0.1387 1.5449,0.0581 0.7544,0.0581 0.5,0.0581 0.2412,0.0356 0,0 Z" />
          </g>
          <g
             transform="translate(2747.5884,4010.3269)"
             id="g38"
             style="fill:#000000;fill-opacity:1;stroke:#000000;stroke-opacity:1">
            <path
               id="path40"
               style="fill:#000000;fill-opacity:1;fill-rule:nonzero;stroke:#000000;stroke-opacity:1"
               d="m 0,0 c 2.6919,0.0981 5.3882,0.2051 8.0806,0.3481 0.6338,0.1026 1.2856,0.1651 1.9463,0.1875 0.4511,0.0176 0.9062,0.0132 1.3618,0.0176 0.9731,0.0674 1.9419,0.1431 2.9106,0.228 C 10.7231,1.9775 7.0132,3.4019 3.1113,3.3481 3.0669,3.3525 3.0176,3.3525 2.9687,3.3525 1.1606,3.3525 -2.2368,1.4419 0,0 Z" />
          </g>
          <g
             transform="translate(2759.5308,4010.8894)"
             id="g42"
             style="fill:#000000;fill-opacity:1;stroke:#000000;stroke-opacity:1">
            <path
               id="path44"
               style="fill:#000000;fill-opacity:1;fill-rule:nonzero;stroke:#000000;stroke-opacity:1"
               d="M 0,0 C 0.0044,0 0.0088,0 0.0132,0 0.0088,0 0.0044,0 0,0 Z" />
          </g>
          <g
             transform="translate(2755.9902,4011.9832)"
             id="g46"
             style="fill:#000000;fill-opacity:1;stroke:#000000;stroke-opacity:1">
            <path
               id="path48"
               style="fill:#000000;fill-opacity:1;fill-rule:nonzero;stroke:#000000;stroke-opacity:1"
               d="m 0,0 c -1.5356,-0.4199 -2.1787,-1.0313 -2.25,-1.7593 1.2187,0.3843 2.5225,0.5894 3.875,0.6387 0.6387,0.0225 1.2856,0.0044 1.9287,0.0312 C 3.4375,-0.9287 3.3218,-0.7725 3.21,-0.6162 2.8037,-0.0449 2.0225,0.1519 1.2412,0.1519 0.8037,0.1519 0.3706,0.0894 0,0 Z" />
          </g>
          <g
             transform="translate(2828.4077,4044.1804)"
             id="g50"
             style="fill:#000000;fill-opacity:1;stroke:#000000;stroke-opacity:1">
            <path
               id="path52"
               style="fill:#000000;fill-opacity:1;fill-rule:nonzero;stroke:#000000;stroke-opacity:1"
               d="m 0,0 c -1.5713,-0.0625 -3.46,-1.0044 -3.3081,-2.5444 -0.1162,-2.3218 -0.7632,-4.6255 -1.4556,-6.8618 -1.5937,-6.5987 -4.6294,-12.773 -7.1875,-19.1167 -1.9331,-4.5181 -3.2055,-9.1968 -5.3486,-13.5899 -3.125,-6.3442 -4.9956,-13.581 -9.71,-19.1479 -9.7236,-1.8081 -20.7505,8.6118 -28.1172,13.2905 -4.5,2.5224 -16.7993,25.0054 -22.1479,15.8887 0.0449,-0.8125 0.9419,-0.9908 1.5093,-1.4463 5.04,-4.1919 8.7231,-9.3443 12.6655,-14.2774 5.8213,-5.3169 12.7012,-9.7593 19.7773,-13.7456 5.0982,-3.0493 11.8931,-4.5986 17.9112,-2.8662 4.5718,1.3394 6.2192,5.54 7.9648,9.0357 3.625,7.4155 7.0137,14.9516 9.6919,22.6616 3.0899,8.0893 7.0762,15.9067 9.0718,24.2685 0.6562,2.0313 0.9331,4.125 1.103,6.2237 0.4038,1.2924 -0.5639,2.2539 -2,2.2539 C 0.2837,0.0264 0.1436,0.0181 0,0 Z" />
          </g>
          <g
             transform="translate(2835.1357,4075.3958)"
             id="g54"
             style="fill:#000000;fill-opacity:1;stroke:#000000;stroke-opacity:1">
            <path
               id="path56"
               style="fill:#000000;fill-opacity:1;fill-rule:nonzero;stroke:#000000;stroke-opacity:1"
               d="m 0,0 c -3.3887,-1.1206 -1.8037,-5.8437 -2.4019,-8.3662 -1.2856,-6.8931 -4.1923,-13.6074 -7.2592,-20.0274 -5.4825,-7.7011 -14.1524,-13.1655 -22.1035,-18.7729 -0.9283,-0.7012 -3.7588,-2.5581 -1.8663,-3.6655 1.0943,-0.6382 2.6255,-0.3926 3.7325,0.1386 9.5542,6.9375 20.5898,13.3306 26.4472,23.1705 2.3306,4.8081 3.5987,9.3793 5.5406,14.1567 C 3.6743,-9.3887 3.4019,-5.1294 3.8794,-1 3.7393,-0.0459 2.7451,0.2822 1.71,0.2822 1.0986,0.2822 0.4727,0.1675 0,0 Z" />
          </g>
          <g
             transform="translate(2801.1479,4134.835)"
             id="g58"
             style="fill:#000000;fill-opacity:1;stroke:#000000;stroke-opacity:1">
            <path
               id="path60"
               style="fill:#000000;fill-opacity:1;fill-rule:nonzero;stroke:#000000;stroke-opacity:1"
               d="m 0,0 c -1.9512,-1.5938 -0.1787,-2.5889 1.7368,-3 3.7368,-1.0801 7.0225,-2.0137 10.6118,-3.2275 3.75,-1.5088 6.7056,-4.1075 10.2368,-5.9151 4.063,-2.4736 7.9424,-5.3262 11.4468,-8.376 1.4688,-2.2412 3.5493,-4.1474 4.8443,-6.4638 3.2768,-6.4112 3.9419,-13.7508 1.8032,-20.4744 -1.8838,-4.0444 -3.8257,-7.5669 -6.9819,-10.8218 -0.7637,-1.0713 -2.313,-1.7006 -2.5494,-3.0088 -0.0761,-0.8837 1.2632,-1.2636 2.0494,-1.2856 4.4956,0.2676 6.8125,4.5938 9.04,7.4868 6.438,8.5669 7.4336,19.3753 3.0005,28.8313 -1.0269,2.6338 -3.2725,4.6651 -4.8931,7.0137 -3.2012,3.8213 -7.9468,6.46 -12.0586,9.4824 -3.5044,1.7012 -6.4018,4.2549 -9.9067,5.9424 -2.1919,1.0889 -4.6426,1.6914 -6.9507,2.5713 C 9.603,-0.6787 7.6699,-0.4287 5.8799,0.2324 4.9136,0.6143 3.8125,0.8955 2.7505,0.8955 1.752,0.8955 0.7876,0.6475 0,0 Z" />
          </g>
          <g
             transform="translate(2844.4619,4085.2668)"
             id="g62"
             style="fill:#000000;fill-opacity:1;stroke:#000000;stroke-opacity:1">
            <path
               id="path64"
               style="fill:#000000;fill-opacity:1;fill-rule:nonzero;stroke:#000000;stroke-opacity:1"
               d="M 0,0 C -1.3887,-0.3081 -3.4419,-1.8262 -1.7993,-2.9868 1.0713,-4.188 4.5581,-3.7949 7.6206,-3.3799 6.5571,-1.3555 3.9121,0.1274 1.2974,0.1274 0.8613,0.1274 0.4268,0.0864 0,0 Z" />
          </g>
          <g
             transform="translate(2845.002,4093.1243)"
             id="g66"
             style="fill:#000000;fill-opacity:1;stroke:#000000;stroke-opacity:1">
            <path
               id="path68"
               style="fill:#000000;fill-opacity:1;fill-rule:nonzero;stroke:#000000;stroke-opacity:1"
               d="M 0,0 C -0.5625,-0.3574 -1.1606,-0.875 -1.1338,-1.5313 -0.3437,-4.335 7.9023,-2.3174 10.1299,-1.5581 8.2852,-0.3315 5.6753,0.7446 3.1973,0.7451 2.0771,0.7451 0.9844,0.5254 0,0 Z" />
          </g>
          <g
             transform="translate(2719.3862,4097.1953)"
             id="g70"
             style="fill:#000000;fill-opacity:1;stroke:#000000;stroke-opacity:1">
            <path
               id="path72"
               style="fill:#000000;fill-opacity:1;fill-rule:nonzero;stroke:#000000;stroke-opacity:1"
               d="m 0,0 c -1.8882,-0.25 -3.7725,-2.6067 -1.1738,-3.3254 3.3037,-0.563 6.79,0.2451 9.7949,1.4282 C 7.0532,-0.4082 4.7456,0.249 2.4492,0.25 1.6196,0.25 0.7915,0.1641 0,0 Z" />
          </g>
          <g
             transform="translate(2720.5649,4107.8477)"
             id="g74"
             style="fill:#000000;fill-opacity:1;stroke:#000000;stroke-opacity:1">
            <path
               id="path76"
               style="fill:#000000;fill-opacity:1;fill-rule:nonzero;stroke:#000000;stroke-opacity:1"
               d="m 0,0 c -1.0132,-1.2363 0.4375,-1.96 1.4106,-2.5312 2.2188,-1.2413 4.96,-1.5762 7.5494,-1.5 C 9.1509,-1.3496 6.0278,1.3086 3.0898,1.3086 1.9678,1.3086 0.8735,0.9219 0,0 Z" />
          </g>
          <g
             transform="translate(2712.6318,4143.1074)"
             id="g78"
             style="fill:#000000;fill-opacity:1;stroke:#000000;stroke-opacity:1">
            <path
               id="path80"
               style="fill:#000000;fill-opacity:1;fill-rule:nonzero;stroke:#000000;stroke-opacity:1"
               d="m 0,0 c -10.4155,-0.1963 -21.0054,-1.2813 -30.7915,-4.5225 -10.2637,-4.2002 -20.0586,-10.2724 -25.8442,-18.8574 -5.8531,-8.8613 -6.7593,-19.2549 -7.8306,-29.2151 -1.5581,-12.8261 -2.9736,-25.7685 -1.5806,-38.6577 0.857,-5.4018 2.4107,-10.6924 3.7588,-16.0093 1.1655,-5.8125 1.9512,-12.1523 3.0986,-17.8579 1.4151,-9.0224 3.0225,-18.1699 8.3663,-26.1616 1.75,-2.8125 3.2011,-5.7725 5.1562,-8.4687 3.0181,-3.21 7.4336,-6.17 12.3579,-6.3887 11.1875,-1.1206 19.2324,6 27.7998,10.9199 3.4512,1.9956 5.2637,5.3574 8.2905,7.7461 2.9957,2.3525 5.5044,5.0713 7.6924,8.0088 2.4732,2.6787 5.4419,4.9736 7.9463,7.6299 1.0806,0.9018 1.875,2.4419 -0.0801,2.9511 -4.1831,0.8394 -6.3618,-4.0136 -9.2236,-5.9336 -2.4331,-2.0712 -4.4556,-4.4287 -6.3262,-6.8886 -2.1606,-2.375 -4.8794,-4.3037 -7.1518,-6.5982 -2.3887,-3.1118 -5.4736,-5.4643 -9.2193,-7.2949 -4.0537,-2.7949 -8.2636,-5.9556 -13.4511,-6.9468 -5.563,-0.9331 -9.5181,1.0313 -13.0899,4.5894 -3.2251,4.6064 -5.7739,9.5625 -8.5258,14.3965 -4.4048,11.372 -5.2452,23.5488 -7.3941,35.3418 -1.2725,6.6611 -3.728,13.1704 -4.3262,19.9292 -0.6338,7.478 -0.2812,15.1123 0.21,22.5634 1.9644,12.5674 1.3301,25.7825 6.6743,37.7425 2.4419,5.9062 7.6026,10.4511 12.853,14.5937 10.9019,6.5948 17.0186,8.0586 30.0142,9.6524 4.0005,0.2187 8.0137,0.2812 12.0186,0.5176 0.5087,0.0185 1.0356,-0.0176 1.5625,-0.0577 1.3569,-0.0986 2.7187,-0.1923 3.7944,0.71 C 8.8667,-0.2939 5.7271,0.1084 2.9536,0.1084 1.7441,0.1084 0.6045,0.0312 0,0 Z m -48.6895,-143.4866 c 0.0049,-0.004 0.0049,-0.004 0.0049,-0.004 0.0039,-0.008 0.0078,-0.0156 0.0117,-0.0234 -0.0058,0.009 -0.0112,0.0186 -0.0166,0.0278 z" />
          </g>
          <g
             transform="translate(2827.8452,4040.4573)"
             id="g82"
             style="fill:#000000;fill-opacity:1;stroke:#000000;stroke-opacity:1">
            <path
               id="path84"
               style="fill:#000000;fill-opacity:1;fill-rule:nonzero;stroke:#000000;stroke-opacity:1"
               d="M 0,0 C 0.75,0.1875 1.6787,0.75 1.4556,1.4912 1.46,1.4863 1.4644,1.4775 1.4688,1.4731 1.96,3.0132 1.8125,4.7368 0.9463,6.1475 -0.4644,4.8931 -4.8618,-0.7456 0,0 Z" />
          </g>
          <g
             transform="translate(2829.3184,4046.8948)"
             id="g86"
             style="fill:#000000;fill-opacity:1;stroke:#000000;stroke-opacity:1">
            <path
               id="path88"
               style="fill:#000000;fill-opacity:1;fill-rule:nonzero;stroke:#000000;stroke-opacity:1"
               d="m 0,0 c -0.5269,-0.0581 -1.2676,-0.5669 -1.0625,-1.0488 0.0937,-0.2368 0.1431,-0.4825 0.21,-0.7237 0.1294,-0.7812 0.2768,-1.5625 0.2631,-2.3032 -0.0131,-0.6118 -0.2187,-1.0942 -0.0981,-1.6787 0.3931,-0.7012 1.7725,-0.3706 2.1074,0.2275 0.4019,1.7144 0.4419,3.6475 -0.3169,5.2281 C 0.9736,-0.0464 0.6338,0.0181 0.314,0.0181 0.2041,0.0181 0.0962,0.0103 0,0 Z" />
          </g>
          <g
             transform="translate(2638.377,4244.9707)"
             id="g90"
             style="fill:#000000;fill-opacity:1;stroke:#000000;stroke-opacity:1">
            <path
               id="path92"
               style="fill:#000000;fill-opacity:1;fill-rule:nonzero;stroke:#000000;stroke-opacity:1"
               d="M 0,0 C -0.001,0.002 -0.002,0.0039 -0.002,0.0068 -0.002,0.0029 -0.002,0.002 0,0 Z" />
          </g>
          <g
             transform="translate(2638.3794,4244.9639)"
             id="g94"
             style="fill:#000000;fill-opacity:1;stroke:#000000;stroke-opacity:1">
            <path
               id="path96"
               style="fill:#000000;fill-opacity:1;fill-rule:nonzero;stroke:#000000;stroke-opacity:1"
               d="M 0,0 C 0,0.0049 0,0.0049 0,0.0049 -0.0015,0.0059 -0.002,0.0059 -0.0024,0.0068 -0.0015,0.0049 0,0.002 0,0 Z" />
          </g>
          <g
             transform="translate(2638.375,4244.9775)"
             id="g98"
             style="fill:#000000;fill-opacity:1;stroke:#000000;stroke-opacity:1">
            <path
               id="path100"
               style="fill:#000000;fill-opacity:1;fill-rule:nonzero;stroke:#000000;stroke-opacity:1"
               d="M 0,0 C 0,0 0,0 0,0.0039 Z" />
          </g>
          <g
             transform="translate(2638.3701,4244.9814)"
             id="g102"
             style="fill:#000000;fill-opacity:1;stroke:#000000;stroke-opacity:1">
            <path
               id="path104"
               style="fill:#000000;fill-opacity:1;fill-rule:nonzero;stroke:#000000;stroke-opacity:1"
               d="M 0,0 C 0,0 0,0 0.0049,0 Z" />
          </g>
          <g
             transform="translate(2638.3701,4244.9863)"
             id="g106"
             style="fill:#000000;fill-opacity:1;stroke:#000000;stroke-opacity:1">
            <path
               id="path108"
               style="fill:#000000;fill-opacity:1;fill-rule:nonzero;stroke:#000000;stroke-opacity:1"
               d="M 0,0 C 0,0.0039 -0.0044,0.0088 -0.0044,0.0088 -0.0044,0.0088 0,0.0039 0,0 Z" />
          </g>
          <g
             transform="translate(2638.272,4245.2275)"
             id="g110"
             style="fill:#000000;fill-opacity:1;stroke:#000000;stroke-opacity:1">
            <path
               id="path112"
               style="fill:#000000;fill-opacity:1;fill-rule:nonzero;stroke:#000000;stroke-opacity:1"
               d="M 0,0 C 0,0 0,0.0039 0,0.0039 Z" />
          </g>
          <g
             transform="translate(2638.2632,4245.25)"
             id="g114"
             style="fill:#000000;fill-opacity:1;stroke:#000000;stroke-opacity:1">
            <path
               id="path116"
               style="fill:#000000;fill-opacity:1;fill-rule:nonzero;stroke:#000000;stroke-opacity:1"
               d="M 0,0 C 0,0.0039 0,0.0039 0,0.0039 0,0.0039 0,0 0,0 0,0.0039 0,0.0039 0,0.0039 Z" />
          </g>
          <g
             transform="translate(2638.2588,4245.2588)"
             id="g118"
             style="fill:#000000;fill-opacity:1;stroke:#000000;stroke-opacity:1">
            <path
               id="path120"
               style="fill:#000000;fill-opacity:1;fill-rule:nonzero;stroke:#000000;stroke-opacity:1"
               d="M 0,0 C 0,0 0.0044,0 0.0044,0 0.0044,0 0,0.0039 0,0.0039 Z" />
          </g>
          <g
             transform="translate(2638.2588,4245.2627)"
             id="g122"
             style="fill:#000000;fill-opacity:1;stroke:#000000;stroke-opacity:1">
            <path
               id="path124"
               style="fill:#000000;fill-opacity:1;fill-rule:nonzero;stroke:#000000;stroke-opacity:1"
               d="M 0,0 C 0,0 0,0.0049 0,0.0049 Z" />
          </g>
          <g
             transform="translate(2638.2544,4245.2676)"
             id="g126"
             style="fill:#000000;fill-opacity:1;stroke:#000000;stroke-opacity:1">
            <path
               id="path128"
               style="fill:#000000;fill-opacity:1;fill-rule:nonzero;stroke:#000000;stroke-opacity:1"
               d="M 0,0 C 0,0 0.0044,0 0.0044,0 0.0044,0 0,0.0039 0,0.0039 Z" />
          </g>
          <g
             transform="translate(2638.1758,4245.458)"
             id="g130"
             style="fill:#000000;fill-opacity:1;stroke:#000000;stroke-opacity:1">
            <path
               id="path132"
               style="fill:#000000;fill-opacity:1;fill-rule:nonzero;stroke:#000000;stroke-opacity:1"
               d="M 0,0 C -0.001,0.0029 -0.002,0.0068 -0.002,0.0107 -0.002,0.0068 -0.002,0.0039 0,0 Z" />
          </g>
          <g
             transform="translate(2638.1782,4245.4463)"
             id="g134"
             style="fill:#000000;fill-opacity:1;stroke:#000000;stroke-opacity:1">
            <path
               id="path136"
               style="fill:#000000;fill-opacity:1;fill-rule:nonzero;stroke:#000000;stroke-opacity:1"
               d="M 0,0 C 0,0.0039 0,0.0039 0,0.0088 -0.001,0.0098 -0.002,0.0107 -0.0024,0.0117 -0.0015,0.0078 0,0.0049 0,0 Z" />
          </g>
          <g
             transform="translate(2638.1738,4245.4687)"
             id="g138"
             style="fill:#000000;fill-opacity:1;stroke:#000000;stroke-opacity:1">
            <path
               id="path140"
               style="fill:#000000;fill-opacity:1;fill-rule:nonzero;stroke:#000000;stroke-opacity:1"
               d="M 0,0 C 0,0 -0.0044,0.0039 -0.0044,0.0039 Z" />
          </g>
          <g
             transform="translate(2638.0938,4245.9639)"
             id="g142"
             style="fill:#000000;fill-opacity:1;stroke:#000000;stroke-opacity:1">
            <path
               id="path144"
               style="fill:#000000;fill-opacity:1;fill-rule:nonzero;stroke:#000000;stroke-opacity:1"
               d="m 0,0 c 0,0.0049 0,0.0049 0,0.0049 0,0 0,0.0039 0,0.0039 C 0,0.0049 0,0.0049 0,0 Z" />
          </g>
          <g
             transform="translate(2637.897,4247.4502)"
             id="g146"
             style="fill:#000000;fill-opacity:1;stroke:#000000;stroke-opacity:1">
            <path
               id="path148"
               style="fill:#000000;fill-opacity:1;fill-rule:nonzero;stroke:#000000;stroke-opacity:1"
               d="M 0,0 C 0,0.0049 0,0.0098 0,0.0137 0,0.0098 0,0.0049 0,0 Z" />
          </g>
          <g
             transform="translate(2638.25,4245.2812)"
             id="g150"
             style="fill:#000000;fill-opacity:1;stroke:#000000;stroke-opacity:1">
            <path
               id="path152"
               style="fill:#000000;fill-opacity:1;fill-rule:nonzero;stroke:#000000;stroke-opacity:1"
               d="M 0,0 C 0,0.0039 0,0.0039 0,0.0039 Z" />
          </g>
          <g
             transform="translate(2638.1025,4245.8877)"
             id="g154"
             style="fill:#000000;fill-opacity:1;stroke:#000000;stroke-opacity:1">
            <path
               id="path156"
               style="fill:#000000;fill-opacity:1;fill-rule:nonzero;stroke:#000000;stroke-opacity:1"
               d="M 0,0 C 0,0 0,0.0049 0,0.0049 0,0.0049 0,0 0,0 0,-0.0039 0,-0.0127 0,-0.0176 0,-0.0039 0,0.0088 0,0.0186 0,0.0137 0,0.0049 0,0 Z" />
          </g>
          <g
             transform="translate(2638.0488,4246.2314)"
             id="g158"
             style="fill:#000000;fill-opacity:1;stroke:#000000;stroke-opacity:1">
            <path
               id="path160"
               style="fill:#000000;fill-opacity:1;fill-rule:nonzero;stroke:#000000;stroke-opacity:1"
               d="M 0,0 C 0,0.0049 0,0.0049 0,0.0088 0,0.0049 0,0.0049 0,0 Z" />
          </g>
          <g
             transform="translate(2638.0444,4246.2627)"
             id="g162"
             style="fill:#000000;fill-opacity:1;stroke:#000000;stroke-opacity:1">
            <path
               id="path164"
               style="fill:#000000;fill-opacity:1;fill-rule:nonzero;stroke:#000000;stroke-opacity:1"
               d="M 0,0 C 0,0.0049 0,0.0049 0,0.0049 0,0.0049 0,0 0,0 0,0.0088 0,0.0225 0,0.0361 0,0.0225 0,0.0137 0,0 Z" />
          </g>
          <g
             transform="translate(2638.04,4246.3125)"
             id="g166"
             style="fill:#000000;fill-opacity:1;stroke:#000000;stroke-opacity:1">
            <path
               id="path168"
               style="fill:#000000;fill-opacity:1;fill-rule:nonzero;stroke:#000000;stroke-opacity:1"
               d="M 0,0 C 0,0.0039 0,0.0088 0,0.0127 0,0.0088 0,0.0039 0,0 Z" />
          </g>
          <g
             transform="translate(2631.9282,4246.5088)"
             id="g170"
             style="fill:#000000;fill-opacity:1;stroke:#000000;stroke-opacity:1">
            <path
               id="path172"
               style="fill:#000000;fill-opacity:1;fill-rule:nonzero;stroke:#000000;stroke-opacity:1"
               d="m 0,0 c 0.0044,0.0088 0.0044,0.0176 0.0044,0.0225 0,0.0039 0,0.0039 0,0.0039 C 0.0044,0.0176 0.0044,0.0088 0,0 Z" />
          </g>
          <g
             transform="translate(2632.1914,4248.5039)"
             id="g174"
             style="fill:#000000;fill-opacity:1;stroke:#000000;stroke-opacity:1">
            <path
               id="path176"
               style="fill:#000000;fill-opacity:1;fill-rule:nonzero;stroke:#000000;stroke-opacity:1"
               d="M 0,0 C 0.0537,-0.0889 0.0581,-0.2051 0.0405,-0.3076 0.0225,-0.415 -0.0044,-0.5264 -0.0269,-0.6377 -0.0312,-0.6787 -0.04,-0.7187 -0.0488,-0.7588 -0.0532,-0.7725 -0.0581,-0.79 -0.0581,-0.8037 c -0.0044,-0.0088 -0.0044,-0.0127 -0.0044,-0.0215 0.0044,-0.0312 0.0093,-0.0674 0.0093,-0.1074 0,-0.1074 0,-0.2149 -0.0269,-0.3174 -0.0136,-0.0439 -0.0268,-0.0889 -0.0449,-0.1338 -0.0044,-0.04 -0.0088,-0.0801 -0.0176,-0.1162 -0.0093,-0.0352 -0.0136,-0.0762 -0.0224,-0.1162 -0.0181,-0.1026 -0.0445,-0.2002 -0.085,-0.294 0.0044,0 0.0044,0.0039 0.0044,0.0039 0,-0.0039 0,-0.0087 -0.0044,-0.0087 0,-0.0049 0,-0.0049 0,-0.0049 0,-0.0176 -0.0044,-0.0313 -0.0088,-0.044 0,0 0,-0.0049 0,-0.0088 0,-0.0097 0,-0.0185 -0.0044,-0.0312 0,0.0039 0,0.0039 0,0.0088 -0.0044,-0.0313 -0.0088,-0.0586 -0.0224,-0.0899 -0.0225,-0.0439 -0.0489,-0.08 -0.085,-0.1064 0.6699,-3.7549 1.4556,-7.4961 2.2769,-11.2285 2.5673,-14.3662 7.8935,-28.0987 13.956,-41.6084 1.8394,-4.71 3.5449,-9.5 6.5,-13.7998 2.978,-4.2412 6.3174,-8.2901 9.1387,-12.6211 4.1074,-6.8076 10.5942,-12.0713 16.581,-17.6211 3.3887,-3.4063 7.2412,-6.4326 11.3931,-9.1299 1.7012,-1.1465 5.228,-0.3652 5.4512,1.6387 -0.5982,1.5537 -2.8482,2.3125 -4.1118,3.4961 -6.9556,5.5888 -13.3755,11.7363 -19.6031,17.9336 -4.3349,5.7187 -8.1836,11.7148 -12.6343,17.375 -2.7861,3.8623 -4.603,8.1386 -6.143,12.4736 -2.7637,6.9736 -5.9155,13.8271 -8.5586,20.8359 -3.2944,9.0537 -5.1026,18.46 -7.1118,27.7774 -0.2989,0.7412 -0.4151,1.9111 -0.5713,3.1162 -0.0044,0.0088 -0.0044,0.0137 -0.0088,0.0185 0,0.004 0,0.0088 -0.0049,0.0127 0,0 0,0 0,0.0049 0,0 -0.0044,0.0039 -0.0044,0.0088 C 6.1387,-3.4463 6.1118,-3.375 6.0898,-3.3037 6.085,-3.2988 6.085,-3.2949 6.085,-3.29 c -0.0044,0.0048 -0.0044,0.0088 -0.0044,0.0136 -0.0044,0.0039 -0.0044,0.0127 -0.0088,0.0176 0,0 0.0044,-0.0049 0.0044,-0.0049 -0.0044,0.0049 -0.0044,0.0049 -0.0044,0.0098 0,0 0,0 0,0.0039 0,0 0,0 -0.0044,0.0049 0,0.0039 0,0.0039 0,0.0039 0,0.0049 -0.0044,0.0088 -0.0044,0.0088 0,0.0049 -0.0044,0.0097 -0.0044,0.0097 -0.0093,0.0176 -0.0181,0.0352 -0.0225,0.0528 0,0 0,-0.0039 0,-0.0039 -0.018,0.04 -0.04,0.0801 -0.0537,0.125 0,0.0039 -0.0044,0.0136 -0.0044,0.0176 0,0.0048 0,0.0048 0,0.0048 -0.0044,0 -0.0044,0.0039 -0.0044,0.0088 0,-0.0049 0,-0.0088 0.0044,-0.0088 -0.0444,0.1202 -0.0581,0.2588 -0.0669,0.3926 -0.0044,0.0313 -0.0088,0.0674 -0.0088,0.0986 -0.0048,0.004 -0.0048,0.0088 -0.0048,0.0127 0,0 0,0 0,0.0049 -0.0176,0.0713 -0.0357,0.1426 -0.0401,0.2188 0,0 0,0 0,0.0039 0,-0.0039 0,-0.0039 0,-0.0039 0,0 0,-0.0049 0.0044,-0.0049 -0.0044,0.0088 -0.0044,0.0137 -0.0044,0.0225 0,0 0,0.0048 0,0.0087 C 5.853,-2.2637 5.853,-2.25 5.853,-2.2412 c 0,-0.0039 0,-0.0039 0,-0.0039 0,0.0176 0,0.0351 -0.0044,0.0537 C 5.8398,-2.1289 5.835,-2.0625 5.8306,-2 c 0,-0.0088 0,-0.0225 0,-0.0352 -0.0088,0.0938 -0.022,0.1875 -0.0269,0.2852 0,0 0,0 0,0.0049 -0.0176,0.0888 -0.022,0.1787 -0.0312,0.2627 C 5.7637,-1.415 5.7505,-1.3525 5.7412,-1.29 5.7461,-1.2988 5.7461,-1.3125 5.7505,-1.3252 5.728,-1.2275 5.71,-1.125 5.6968,-1.0225 5.335,0.1211 4.7368,0.9873 3.6162,1.1123 3.4199,1.1387 3.2192,1.1523 3.0181,1.1523 1.8931,1.1523 0.7187,0.7324 0,0 Z" />
          </g>
          <g
             transform="translate(2631.9414,4246.5937)"
             id="g178"
             style="fill:#000000;fill-opacity:1;stroke:#000000;stroke-opacity:1">
            <path
               id="path180"
               style="fill:#000000;fill-opacity:1;fill-rule:nonzero;stroke:#000000;stroke-opacity:1"
               d="M 0,0 C 0,0 0,-0.0049 0,-0.0049 Z" />
          </g>
          <g
             transform="translate(2786.7905,4284.2422)"
             id="g182"
             style="fill:#000000;fill-opacity:1;stroke:#000000;stroke-opacity:1">
            <path
               id="path184"
               style="fill:#000000;fill-opacity:1;fill-rule:nonzero;stroke:#000000;stroke-opacity:1"
               d="m 0,0 c 0.4106,-2.0186 3.75,-1.335 6.71,-0.6523 1.5669,0.3623 3.0312,0.7236 3.8974,0.6875 0.3438,0.0361 0.6875,0.0625 1.0313,0.0849 0.1963,0.0313 0.3974,0.0537 0.6069,0.0713 0.3662,0.0313 0.7324,0.04 1.0986,0.0361 -0.0068,0.003 -0.0131,0.0039 -0.019,0.0039 0.6758,-0.0127 1.3828,-0.0136 2.0547,-0.0888 0.0132,-0.0049 0.0312,-0.0049 0.0488,-0.0049 2.6475,-0.1465 5.2774,-0.6113 7.8042,-1.2852 0.8345,-0.2412 1.7407,-0.375 2.4863,-0.7949 0.7281,-0.6787 0.9912,-1.6025 1.3887,-2.4463 2.2725,-3.6162 -2.1475,-6.9824 -2.0181,-10.6875 0.1119,-3.4599 1.5625,-6.7597 2.3931,-10.1123 0.8931,-8.3535 3.2857,-16.5859 3.0806,-25.0146 -0.2056,-4.6074 0.6113,-9.21 0.1562,-13.8125 -0.1474,-2.2364 -1.0581,-4.3975 -1.0093,-6.6475 0.8262,-4.8799 2.2637,-9.6748 2.9957,-14.5498 2.1567,-12.3623 -1.2232,-24.9648 -4.3663,-36.9473 -1.5312,-5.0273 -4.9555,-9.3486 -7.3794,-14.0546 -1.3349,-2.7227 -2.2187,-5.6289 -3.7861,-8.2725 -1.0981,-1.6602 -2.4956,-3.125 -3.7412,-4.6963 -0.3525,-0.4512 -0.8569,-1.0801 -0.5889,-1.6523 1.1202,-1.9102 4.8706,-0.9903 5.7276,0.706 5.1655,4.9199 6.6074,11.5137 10.0449,17.2686 7.5049,10.7187 8.9824,23.6074 10.8262,35.8086 1.3174,9.5185 -2.3882,18.8447 -3.5176,28.1709 1.0044,4.3173 1.4194,8.6963 0.9551,13.0937 -0.1695,6.5225 0.1743,13.166 -1.3394,19.5811 -0.915,4.5312 -1.1206,9.1748 -2.2051,13.6797 -0.7861,3.3164 -2.7548,6.7763 -1.6074,10.1601 1.7012,3.7412 3.5313,6.9199 0.9199,10.7461 -1.3842,4.6875 -13.081,5.4111 -17.831,5.541 0,0 0.0176,0 0.0176,0.0039 C 12.103,3.8574 -0.1968,2.9199 0,0 Z m 13.3174,0.2314 c -0.0313,0 -0.0669,0 -0.103,0 0.0361,0 0.0717,0 0.103,0 z" />
          </g>
          <g
             transform="translate(2788.7412,4231.6465)"
             id="g186"
             style="fill:#000000;fill-opacity:1;stroke:#000000;stroke-opacity:1">
            <path
               id="path188"
               style="fill:#000000;fill-opacity:1;fill-rule:nonzero;stroke:#000000;stroke-opacity:1"
               d="m 0,0 c -1.1426,-1.375 3.8799,-8.6162 4.7725,-10.4912 3.1118,-4.6162 2.4287,-10.0274 3.1562,-15.0859 0.9868,-1.6788 4.3574,-0.9278 5.148,0.5585 0.2094,0.5713 0.1157,1.1739 0.0844,1.7676 0.0044,6.21 -1.3481,12.3174 -5.125,17.6573 -1.2949,2.1074 -2.103,3.9462 -3.125,6.0761 C 4.4409,1.0449 3.6943,1.2871 2.9106,1.2871 1.7729,1.2871 0.5581,0.7773 0,0 Z" />
          </g>
          <g
             transform="translate(2752.5303,4282.7598)"
             id="g190"
             style="fill:#000000;fill-opacity:1;stroke:#000000;stroke-opacity:1">
            <path
               id="path192"
               style="fill:#000000;fill-opacity:1;fill-rule:nonzero;stroke:#000000;stroke-opacity:1"
               d="M 0,0 C -0.0132,-0.0088 -0.0225,-0.0176 -0.0356,-0.0264 0.0669,0.0449 0.1699,0.1113 0.2681,0.1787 0.1787,0.1201 0.0894,0.0625 0,0 Z" />
          </g>
          <g
             transform="translate(2777.4063,4285.6348)"
             id="g194"
             style="fill:#000000;fill-opacity:1;stroke:#000000;stroke-opacity:1">
            <path
               id="path196"
               style="fill:#000000;fill-opacity:1;fill-rule:nonzero;stroke:#000000;stroke-opacity:1"
               d="M 0,0 C 0.0063,0 0.0132,-0.001 0.0195,-0.002 0.0161,-0.002 0.0122,0 0.0088,0 0.0044,0 0.0044,0 0,0 Z" />
          </g>
          <g
             transform="translate(2777.4775,4285.6211)"
             id="g198"
             style="fill:#000000;fill-opacity:1;stroke:#000000;stroke-opacity:1">
            <path
               id="path200"
               style="fill:#000000;fill-opacity:1;fill-rule:nonzero;stroke:#000000;stroke-opacity:1"
               d="m 0,0 c -0.0088,0.0049 -0.0181,0.0049 -0.0312,0.0098 -0.0069,0 -0.0132,9e-4 -0.0206,0.0019 C -0.0327,0.0078 -0.0146,0.0039 0,0 Z" />
          </g>
          <g
             transform="translate(2777.1304,4285.6865)"
             id="g202"
             style="fill:#000000;fill-opacity:1;stroke:#000000;stroke-opacity:1">
            <path
               id="path204"
               style="fill:#000000;fill-opacity:1;fill-rule:nonzero;stroke:#000000;stroke-opacity:1"
               d="M 0,0 C -0.0034,0.002 -0.0068,0.002 -0.0098,0.002 -0.0068,0.001 -0.0034,0.001 0,0 Z" />
          </g>
          <g
             transform="translate(2777.1338,4285.6836)"
             id="g206"
             style="fill:#000000;fill-opacity:1;stroke:#000000;stroke-opacity:1">
            <path
               id="path208"
               style="fill:#000000;fill-opacity:1;fill-rule:nonzero;stroke:#000000;stroke-opacity:1"
               d="M 0,0 C 0.0151,-0.002 0.0308,-0.0039 0.0459,-0.0059 0.0298,-0.0039 0.0132,0 -0.0034,0.0029 -0.0024,0.002 -0.001,0.002 0,0 Z" />
          </g>
          <g
             transform="translate(2777.3301,4285.6484)"
             id="g210"
             style="fill:#000000;fill-opacity:1;stroke:#000000;stroke-opacity:1">
            <path
               id="path212"
               style="fill:#000000;fill-opacity:1;fill-rule:nonzero;stroke:#000000;stroke-opacity:1"
               d="M 0,0 C -0.0479,0.0098 -0.0986,0.0205 -0.1504,0.0293 -0.1001,0.0186 -0.0513,0.0098 0,0 Z" />
          </g>
          <g
             transform="translate(2776.897,4285.7285)"
             id="g214"
             style="fill:#000000;fill-opacity:1;stroke:#000000;stroke-opacity:1">
            <path
               id="path216"
               style="fill:#000000;fill-opacity:1;fill-rule:nonzero;stroke:#000000;stroke-opacity:1"
               d="M 0,0 C 0.0049,0 0.0093,0 0.0137,0 0.0093,0 0.0049,0 0,0 Z" />
          </g>
          <g
             transform="translate(2737.8247,4277.3574)"
             id="g218"
             style="fill:#000000;fill-opacity:1;stroke:#000000;stroke-opacity:1">
            <path
               id="path220"
               style="fill:#000000;fill-opacity:1;fill-rule:nonzero;stroke:#000000;stroke-opacity:1"
               d="M 0,0 C 0.0088,0.0049 0.0132,0.0098 0.0176,0.0137 0.0132,0.0137 0.0088,0.0098 0,0 Z" />
          </g>
          <g
             transform="translate(2777.0532,4285.6973)"
             id="g222"
             style="fill:#000000;fill-opacity:1;stroke:#000000;stroke-opacity:1">
            <path
               id="path224"
               style="fill:#000000;fill-opacity:1;fill-rule:nonzero;stroke:#000000;stroke-opacity:1"
               d="M 0,0 C 0,0.0049 -0.0044,0.0049 -0.0088,0.0049 -0.0044,0.0049 -0.0044,0 0,0 Z" />
          </g>
          <g
             transform="translate(2769.0176,4286.1836)"
             id="g226"
             style="fill:#000000;fill-opacity:1;stroke:#000000;stroke-opacity:1">
            <path
               id="path228"
               style="fill:#000000;fill-opacity:1;fill-rule:nonzero;stroke:#000000;stroke-opacity:1"
               d="M 0,0 C -0.0044,0 -0.0137,0 -0.0181,-0.0039 0.0269,-0.0039 0.0669,0 0.1157,0 0.0757,0 0.04,0 0,0 Z" />
          </g>
          <g
             transform="translate(2737.8916,4277.4111)"
             id="g230"
             style="fill:#000000;fill-opacity:1;stroke:#000000;stroke-opacity:1">
            <path
               id="path232"
               style="fill:#000000;fill-opacity:1;fill-rule:nonzero;stroke:#000000;stroke-opacity:1"
               d="m 0,0 c -0.0137,-0.0127 -0.0312,-0.0225 -0.0449,-0.0352 0.018,0.0127 0.0356,0.0264 0.0537,0.0401 C 0.0044,0.0049 0.0044,0 0,0 Z" />
          </g>
          <g
             transform="translate(2737.9219,4277.4277)"
             id="g234"
             style="fill:#000000;fill-opacity:1;stroke:#000000;stroke-opacity:1">
            <path
               id="path236"
               style="fill:#000000;fill-opacity:1;fill-rule:nonzero;stroke:#000000;stroke-opacity:1"
               d="M 0,0 C 0.0029,0.002 0.0063,0.0039 0.0098,0.0059 0.0063,0.0039 0.0034,0.002 0,0 Z" />
          </g>
          <g
             transform="translate(2737.9048,4277.416)"
             id="g238"
             style="fill:#000000;fill-opacity:1;stroke:#000000;stroke-opacity:1">
            <path
               id="path240"
               style="fill:#000000;fill-opacity:1;fill-rule:nonzero;stroke:#000000;stroke-opacity:1"
               d="M 0,0 C 0.0059,0.0029 0.0117,0.0068 0.0171,0.0117 0.0088,0.0068 0.0034,0.0029 0,0 Z" />
          </g>
          <g
             transform="translate(2769.187,4289.041)"
             id="g242"
             style="fill:#000000;fill-opacity:1;stroke:#000000;stroke-opacity:1">
            <path
               id="path244"
               style="fill:#000000;fill-opacity:1;fill-rule:nonzero;stroke:#000000;stroke-opacity:1"
               d="m 0,0 c -2.8125,-0.2275 -5.3574,-0.335 -7.978,-1.1699 -2.6963,-0.2139 -5.4776,-0.2852 -8.0269,-1.1875 -1.9956,-0.6201 -3.6919,-1.7852 -5.3262,-2.8926 -3.3168,-2.1201 -6.8125,-4 -9.9243,-6.3525 0.0181,0.0088 0.0445,0.0263 0.085,0.0537 -1.4243,-1.1436 -7.9961,-4.2725 -3.7324,-5.4112 2.4463,-0.3173 4.0537,1.7539 5.9467,2.7325 3.8882,2.9101 8.2188,5.2588 12.295,7.9511 2.3081,1.8565 5.5224,1.7227 8.4467,2.0176 0.4063,0.1026 0.8082,0.2012 1.2144,0.2949 0.0044,0 0.0088,0.0039 0.0132,0.0039 0.0137,0 0.0224,0.0049 0.0268,0.0049 0.7413,0.2764 1.5044,0.4463 2.2901,0.5449 0.1299,0.044 0.2593,0.0801 0.3974,0.1114 0.5718,0.1338 1.1387,0.125 1.7144,0.1338 0.1699,0.0175 0.3437,0.04 0.5181,0.0625 0.5669,0.0986 1.1294,0.2011 1.7143,0.2363 0.0132,0.0049 0.0269,0.0049 0.0401,0.0049 -0.0044,0 -0.0088,0 -0.0181,0 0.0137,0 0.0268,0 0.0405,0 0.022,0 0.0488,0.0039 0.0757,0.0039 -0.0088,0 -0.0176,0 -0.0225,0 0.0137,0 0.0269,0 0.0406,0 0.0444,0 0.0844,0.0049 0.1294,0.0049 -0.0044,0 -0.0088,0 -0.0137,0 0.4331,0.0088 0.8662,0.0136 1.3081,0.0263 0.25,0.0137 0.5049,0.0225 0.7637,0.0313 0.2319,0.0137 0.4687,0.0224 0.7055,0.0224 1.0401,0 2.1382,-0.1513 3.1695,-0.2724 0.6606,-0.0801 1.3125,-0.1738 1.9643,-0.294 0.8394,-0.1523 1.5762,-0.331 2.3574,-0.6611 0.2857,-0.1387 0.5625,-0.2988 0.8213,-0.4775 5.21,-0.7901 6.0269,-3.6787 5.2549,-7.9512 -0.8618,-1.8486 -2.8081,-3.2949 -2.8843,-5.3975 -0.1831,-1.5761 0.6475,-3.0273 1.42,-4.4023 2.4331,-6.4776 3.6694,-13.3887 3.7187,-20.1973 0.0488,-1.0752 -0.1431,-2.2051 0.3301,-3.2275 0.8843,-1.4287 4.1567,-0.875 4.9023,0.3974 0,0 0,0.0049 0,0.0049 -0.0136,0.0576 -0.0224,0.1201 -0.0224,0.1826 -0.0137,0.0489 -0.0225,0.1075 -0.0269,0.1563 -0.0044,0.0176 -0.0044,0.04 -0.0088,0.0625 -0.018,0.1426 -0.0268,0.29 -0.0093,0.4336 -0.0043,0.0527 -0.0087,0.1025 -0.0087,0.1562 0,0.0625 0.0044,0.125 0.0136,0.1875 -0.0092,0.0176 -0.0224,0.0352 -0.0312,0.0528 0.1025,6.8535 -0.9287,13.6572 -2.7637,20.3222 -0.4106,2.46 -2.8975,4.5899 -2.2588,7.1348 0.8076,1.6963 2.522,3.0439 2.8301,4.9238 0.7905,4.5498 -0.7231,8.8848 -6.5088,9.8174 -3.8306,0.79 -7.853,2.1387 -11.8442,2.1387 C 2.0894,0.3174 1.0405,0.2236 0,0 Z" />
          </g>
          <g
             transform="translate(2714.5962,4292.7686)"
             id="g246"
             style="fill:#000000;fill-opacity:1;stroke:#000000;stroke-opacity:1">
            <path
               id="path248"
               style="fill:#000000;fill-opacity:1;fill-rule:nonzero;stroke:#000000;stroke-opacity:1"
               d="m 0,0 c -1.6431,-0.9727 -1.1343,-2.2227 0.5845,-2.7588 2.3842,-0.8262 3.1967,-3.0801 4.6474,-4.7187 2.6387,-2.8487 6.0274,-5.1924 7.4424,-8.7725 1.8306,-3.6475 2.0313,-7.1563 2.5181,-10.9473 0.6426,-4.3037 1.2051,-8.6386 0.6919,-12.9775 -0.3975,-8.0313 -0.8975,-12.8262 -8.8662,-17.9824 -1.9512,-1.46 -3.5225,-3.2549 -5.5674,-4.626 -2.0225,-1.4951 -5.1699,-2.3301 -6.1343,-4.625 0.0269,-2.0664 3.7993,-1.46 4.6968,-0.1602 2.125,1.6377 5.3305,3.0176 7.1655,4.7901 4.2813,4.0986 10.2949,7.1387 12.2637,12.6924 1.2637,2.7236 1.1699,5.6699 1.3706,8.5488 1.1787,6.9736 -0.2144,13.7685 -1.0625,20.6846 -0.7232,6.0224 -4.5762,11.0537 -9.4824,15.1562 C 8.6157,-3.3174 5.7705,0.5645 2.2812,0.5654 1.5474,0.5654 0.7856,0.3936 0,0 Z" />
          </g>
          <g
             transform="translate(2799.0898,4283.8359)"
             id="g250"
             style="fill:#000000;fill-opacity:1;stroke:#000000;stroke-opacity:1">
            <path
               id="path252"
               style="fill:#000000;fill-opacity:1;fill-rule:nonzero;stroke:#000000;stroke-opacity:1"
               d="M 0,0 C 0.1118,0.0088 0.2187,0.0176 0.3306,0.0264 0.4194,0.0352 0.5044,0.0439 0.5981,0.0537 0.3975,0.0352 0.1963,0.0176 0,0 Z" />
          </g>
          <g
             transform="translate(2801.2104,4284.0186)"
             id="g254"
             style="fill:#000000;fill-opacity:1;stroke:#000000;stroke-opacity:1">
            <path
               id="path256"
               style="fill:#000000;fill-opacity:1;fill-rule:nonzero;stroke:#000000;stroke-opacity:1"
               d="M 0,0 C 0.0493,0.0049 0.0981,0.0088 0.1475,0.0137 0.0981,0.0088 0.0444,0.0049 0,0 Z" />
          </g>
          <g
             transform="translate(2798.5093,4285.6934)"
             id="g258"
             style="fill:#000000;fill-opacity:1;stroke:#000000;stroke-opacity:1">
            <path
               id="path260"
               style="fill:#000000;fill-opacity:1;fill-rule:nonzero;stroke:#000000;stroke-opacity:1"
               d="m 0,0 c -0.6025,-0.2822 -0.9419,-0.9961 -0.5356,-1.4111 0.3393,0.0713 0.6918,0.125 1.0625,0.1562 0.3662,0.0264 0.7324,0.0352 1.0986,0.0313 -0.0449,0.0039 -0.085,0.0039 -0.1299,0.0088 0.71,-0.0137 1.4556,-0.0137 2.1655,-0.0938 0.3794,-0.04 0.7364,-0.1074 1.0757,-0.2012 C 3.9111,-0.4287 2.7456,0.4189 1.4912,0.4189 1.0049,0.4189 0.5,0.29 0,0 Z" />
          </g>
          <g
             transform="translate(2774.5264,4284.2461)"
             id="g262"
             style="fill:#000000;fill-opacity:1;stroke:#000000;stroke-opacity:1">
            <path
               id="path264"
               style="fill:#000000;fill-opacity:1;fill-rule:nonzero;stroke:#000000;stroke-opacity:1"
               d="M 0,0 C 0.0049,0 0.0093,0 0.0093,0 0.0049,0 0.0049,0 0,0 Z" />
          </g>
          <g
             transform="translate(2775.0713,4284.4736)"
             id="g266"
             style="fill:#000000;fill-opacity:1;stroke:#000000;stroke-opacity:1">
            <path
               id="path268"
               style="fill:#000000;fill-opacity:1;fill-rule:nonzero;stroke:#000000;stroke-opacity:1"
               d="M 0,0 C 0,0 0,-0.0039 0,-0.0039 0,0 0.0044,0 0.0044,0 Z" />
          </g>
          <g
             transform="translate(2776.8232,4284.7949)"
             id="g270"
             style="fill:#000000;fill-opacity:1;stroke:#000000;stroke-opacity:1">
            <path
               id="path272"
               style="fill:#000000;fill-opacity:1;fill-rule:nonzero;stroke:#000000;stroke-opacity:1"
               d="M 0,0 C -0.0098,0.002 -0.0195,0.0039 -0.0288,0.0049 -0.019,0.0029 -0.0093,0.002 0,0 Z" />
          </g>
          <g
             transform="translate(2776.897,4284.7773)"
             id="g274"
             style="fill:#000000;fill-opacity:1;stroke:#000000;stroke-opacity:1">
            <path
               id="path276"
               style="fill:#000000;fill-opacity:1;fill-rule:nonzero;stroke:#000000;stroke-opacity:1"
               d="M 0,0 C 0.0249,-0.0029 0.0513,-0.0049 0.0776,-0.0088 0.0269,0 -0.0234,0.0088 -0.0737,0.0176 -0.0498,0.0127 -0.0249,0.0068 0,0 Z" />
          </g>
          <g
             transform="translate(2777.022,4284.7598)"
             id="g278"
             style="fill:#000000;fill-opacity:1;stroke:#000000;stroke-opacity:1">
            <path
               id="path280"
               style="fill:#000000;fill-opacity:1;fill-rule:nonzero;stroke:#000000;stroke-opacity:1"
               d="M 0,0 C -0.0151,0.0029 -0.0312,0.0059 -0.0474,0.0088 -0.0317,0.0059 -0.0156,0.0029 0,0 Z" />
          </g>
          <g
             transform="translate(2777.4644,4285.626)"
             id="g282"
             style="fill:#000000;fill-opacity:1;stroke:#000000;stroke-opacity:1">
            <path
               id="path284"
               style="fill:#000000;fill-opacity:1;fill-rule:nonzero;stroke:#000000;stroke-opacity:1"
               d="M 0,0 C 0.0044,0 0.0088,0 0.0132,0 0,0 -0.0093,0.0049 -0.0225,0.0049 -0.0137,0.0049 -0.0093,0 0,0 Z" />
          </g>
          <g
             transform="translate(2777.4419,4285.6309)"
             id="g286"
             style="fill:#000000;fill-opacity:1;stroke:#000000;stroke-opacity:1">
            <path
               id="path288"
               style="fill:#000000;fill-opacity:1;fill-rule:nonzero;stroke:#000000;stroke-opacity:1"
               d="M 0,0 C -0.0137,0.0039 -0.0269,0.0039 -0.0356,0.0088 -0.0269,0.0039 -0.0137,0.0039 0,0 Z" />
          </g>
          <g
             transform="translate(2777.4419,4285.6309)"
             id="g290"
             style="fill:#000000;fill-opacity:1;stroke:#000000;stroke-opacity:1">
            <path
               id="path292"
               style="fill:#000000;fill-opacity:1;fill-rule:nonzero;stroke:#000000;stroke-opacity:1"
               d="M 0,0 C 0.0132,0 0.0225,-0.0049 0.0356,-0.0049 0.0132,0 -0.0044,0.0039 -0.0269,0.0088 -0.0181,0.0039 -0.0088,0.0039 0,0 Z" />
          </g>
          <g
             transform="translate(2777.3345,4285.6484)"
             id="g294"
             style="fill:#000000;fill-opacity:1;stroke:#000000;stroke-opacity:1">
            <path
               id="path296"
               style="fill:#000000;fill-opacity:1;fill-rule:nonzero;stroke:#000000;stroke-opacity:1"
               d="M 0,0 C 0.0225,0 0.0449,-0.0088 0.0718,-0.0088 0.0449,-0.0049 0.0225,0 -0.0044,0.0039 -0.0044,0 -0.0044,0 0,0 Z" />
          </g>
          <g
             transform="translate(2777.3301,4285.6484)"
             id="g298"
             style="fill:#000000;fill-opacity:1;stroke:#000000;stroke-opacity:1">
            <path
               id="path300"
               style="fill:#000000;fill-opacity:1;fill-rule:nonzero;stroke:#000000;stroke-opacity:1"
               d="M 0,0 C -0.0444,0.0088 -0.0937,0.0176 -0.1382,0.0264 -0.0937,0.0176 -0.0444,0.0088 0,0 Z" />
          </g>
          <g
             transform="translate(2774.2764,4287.2822)"
             id="g302"
             style="fill:#000000;fill-opacity:1;stroke:#000000;stroke-opacity:1">
            <path
               id="path304"
               style="fill:#000000;fill-opacity:1;fill-rule:nonzero;stroke:#000000;stroke-opacity:1"
               d="M 0,0 C -0.6426,-0.2012 -1.0757,-0.5986 -1.165,-1.0713 -0.5044,-1.125 0.1611,-1.2139 0.7993,-1.29 1.394,-1.3584 1.9819,-1.4434 2.5688,-1.5439 2.5786,-1.5459 2.5889,-1.5469 2.5986,-1.5488 2.5537,-1.54 2.5137,-1.5313 2.4692,-1.5225 2.5581,-1.54 2.6431,-1.5537 2.7324,-1.5674 2.8887,-1.5986 3.0449,-1.625 3.2012,-1.6563 2.7593,-0.6826 2.1255,0.2051 1.0093,0.2051 0.71,0.2051 0.375,0.1387 0,0 Z" />
          </g>
          <g
             transform="translate(2776.8374,4285.7393)"
             id="g306"
             style="fill:#000000;fill-opacity:1;stroke:#000000;stroke-opacity:1">
            <path
               id="path308"
               style="fill:#000000;fill-opacity:1;fill-rule:nonzero;stroke:#000000;stroke-opacity:1"
               d="M 0,0 C -0.0054,0.001 -0.0107,0.002 -0.0161,0.0029 -0.0107,0.002 -0.0054,0.001 0,0 Z" />
          </g>
          <g
             transform="translate(2777.0508,4285.7021)"
             id="g310"
             style="fill:#000000;fill-opacity:1;stroke:#000000;stroke-opacity:1">
            <path
               id="path312"
               style="fill:#000000;fill-opacity:1;fill-rule:nonzero;stroke:#000000;stroke-opacity:1"
               d="m 0,0 c 5e-4,0 0.002,0 0.0024,0 -0.0693,0.0117 -0.1386,0.0234 -0.208,0.0361 -0.0029,0 -0.0053,0 -0.0078,0.001 C -0.144,0.0234 -0.0723,0.0107 0,0 Z" />
          </g>
          <g
             transform="translate(2777.0552,4285.7012)"
             id="g314"
             style="fill:#000000;fill-opacity:1;stroke:#000000;stroke-opacity:1">
            <path
               id="path316"
               style="fill:#000000;fill-opacity:1;fill-rule:nonzero;stroke:#000000;stroke-opacity:1"
               d="M 0,0 C -5e-4,0 -0.001,0 -0.002,0.001 -0.001,0 -5e-4,0 0,0 Z" />
          </g>
          <g
             transform="translate(2777.0313,4285.7021)"
             id="g318"
             style="fill:#000000;fill-opacity:1;stroke:#000000;stroke-opacity:1">
            <path
               id="path320"
               style="fill:#000000;fill-opacity:1;fill-rule:nonzero;stroke:#000000;stroke-opacity:1"
               d="m 0,0 c 0.1519,-0.0273 0.3032,-0.0537 0.4463,-0.085 0,0.0039 0,0.0039 0,0.0039 -0.0044,0.0049 -0.0088,0.0049 -0.0132,0.0049 -0.0073,0.001 -0.0151,0.002 -0.0225,0.0039 0.0123,-0.0029 0.0249,-0.0058 0.0357,-0.0088 -0.0151,0.003 -0.0283,0.0069 -0.041,0.0098 -0.0117,0.002 -0.0235,0.0049 -0.0352,0.0068 -0.0239,0.003 -0.0459,0.0069 -0.0713,0.0108 -0.0444,0.0088 -0.0937,0.0176 -0.1382,0.0264 -0.0117,0.0029 -0.0234,0.0048 -0.0356,0.0078 0.0122,-0.002 0.0239,-0.0049 0.0356,-0.0078 -0.0117,0.0029 -0.0234,0.0058 -0.0356,0.0078 -0.0112,0.0019 -0.0225,0.0039 -0.0337,0.0058 -0.0039,0.001 -0.0068,0.002 -0.0112,0.0049 -0.0186,0.002 -0.0376,0.0049 -0.0562,0.0078 0.0083,-0.0039 0.0166,-0.0039 0.0249,-0.0039 -0.0083,0 -0.0166,0 -0.0249,0.0039 C 0.0225,-0.001 0.021,0 0.0195,0 0.0122,0 0.0078,0 0,0 Z" />
          </g>
          <g
             transform="translate(2777.3911,4285.6396)"
             id="g322"
             style="fill:#000000;fill-opacity:1;stroke:#000000;stroke-opacity:1">
            <path
               id="path324"
               style="fill:#000000;fill-opacity:1;fill-rule:nonzero;stroke:#000000;stroke-opacity:1"
               d="M 0,0 C -0.0088,0.001 -0.0171,0.0029 -0.0254,0.0039 -0.0166,0.002 -0.0083,0.001 0,0 Z" />
          </g>
          <g
             transform="translate(2777.4014,4285.6377)"
             id="g326"
             style="fill:#000000;fill-opacity:1;stroke:#000000;stroke-opacity:1">
            <path
               id="path328"
               style="fill:#000000;fill-opacity:1;fill-rule:nonzero;stroke:#000000;stroke-opacity:1"
               d="M 0,0 C 0.0059,-0.001 0.0122,-0.002 0.0181,-0.0029 0.0088,-0.001 -0.001,0.001 -0.0103,0.002 -0.0068,0.001 -0.0034,0.001 0,0 Z" />
          </g>
          <g
             transform="translate(2777.4365,4285.6309)"
             id="g330"
             style="fill:#000000;fill-opacity:1;stroke:#000000;stroke-opacity:1">
            <path
               id="path332"
               style="fill:#000000;fill-opacity:1;fill-rule:nonzero;stroke:#000000;stroke-opacity:1"
               d="M 0,0 C 0.0015,0 0.0034,-0.001 0.0054,-0.001 -0.0024,0.001 -0.0103,0.002 -0.0171,0.0039 -0.0112,0.002 -0.0059,0.001 0,0 Z" />
          </g>
          <g
             transform="translate(2764.0933,4287.041)"
             id="g334"
             style="fill:#000000;fill-opacity:1;stroke:#000000;stroke-opacity:1">
            <path
               id="path336"
               style="fill:#000000;fill-opacity:1;fill-rule:nonzero;stroke:#000000;stroke-opacity:1"
               d="m 0,0 c -0.7144,-0.2227 -1.603,-0.9775 -0.9688,-1.6201 0.0132,-0.0186 0.0313,-0.0313 0.0445,-0.0449 0.4419,0.1113 0.8887,0.1923 1.3481,0.2548 0.125,0.0401 0.2549,0.0752 0.3931,0.1114 0.5713,0.1289 1.1387,0.1201 1.7143,0.1289 0.1744,0.0224 0.3482,0.041 0.5181,0.0674 0.2764,0.0449 0.5532,0.0937 0.8345,0.1386 C 3.125,-0.2812 2.1475,0.1875 1.1113,0.1875 0.7456,0.1875 0.3706,0.1299 0,0 Z" />
          </g>
          <g
             transform="translate(2715.2925,4290.0498)"
             id="g338"
             style="fill:#000000;fill-opacity:1;stroke:#000000;stroke-opacity:1">
            <path
               id="path340"
               style="fill:#000000;fill-opacity:1;fill-rule:nonzero;stroke:#000000;stroke-opacity:1"
               d="m 0,0 c 1.0581,-0.5176 2.3574,-0.5088 3.6206,-0.5039 0.5088,0 1.0137,0.0039 1.4912,-0.0273 3.6875,0.0585 7.4287,-0.1602 10.9468,-1.1788 4.2725,-1.625 8.5581,-3.3613 12.2148,-5.9189 1.3301,-1.6611 4.1739,-1.8711 5.7276,-0.3223 1.2861,1.541 1.25,2.8887 -1.3125,2.8975 C 27.3672,-1.6875 21.2729,1.2949 14.7417,2.3437 10.9438,2.8896 7.1504,2.7314 3.332,2.8369 3.1943,2.8584 3.0459,2.8691 2.8906,2.8691 1.0825,2.8691 -1.7041,1.4756 0,0 Z" />
          </g>
          <g
             transform="translate(2718.2881,4292.1396)"
             id="g342"
             style="fill:#000000;fill-opacity:1;stroke:#000000;stroke-opacity:1">
            <path
               id="path344"
               style="fill:#000000;fill-opacity:1;fill-rule:nonzero;stroke:#000000;stroke-opacity:1"
               d="m 0,0 c 0,0 0.0181,0 0.0181,0 -4.7368,-0.0713 -9.5137,-0.0225 -14.2642,-0.0898 0.0669,0 0.1343,0.0048 0.2012,0.0048 -7.1299,-0.0576 -14.2417,-0.4111 -21.3667,-0.3525 -7.2862,0.2051 -14.5454,-0.2588 -21.3716,-2.5986 -6.625,-1.9551 -13.4556,-4.75 -18.0542,-9.3838 -5.7944,-5.1123 -11.3799,-12.3985 -10.0537,-19.8272 1.1025,-1.29 3.8574,-0.915 4.9687,0.3125 0,0.0098 0,0.0225 0,0.0313 0,0.041 0.0044,0.0762 0.0137,0.1123 0,0.0127 0.0044,0.0224 0.0088,0.0351 -0.0044,0.1299 0,0.2549 0.0181,0.3838 0.0088,0.0625 0.0175,0.125 0.0312,0.1875 -0.0137,0.1475 0.0264,0.2862 0.0576,0.4287 0.0049,0.0313 0.0137,0.0586 0.0181,0.0899 -0.0044,0.0439 -0.0088,0.0889 -0.0044,0.1338 0,0.0976 0.0132,0.2011 0.0356,0.3037 0,0.0039 0,0.0039 0,0.0039 0,0 0,-0.0039 0,-0.0039 0,0.0088 0,0.0127 0.0044,0.0224 0,0.0313 0.0044,0.0665 0.0137,0.0977 0.0132,0.085 0.0357,0.1738 0.0757,0.2461 0.0044,0.0176 0.0044,0.0312 0.0088,0.0439 0.0044,0.045 0.0181,0.0899 0.0356,0.1338 0.0049,0.041 0.0137,0.0762 0.0225,0.1162 0.0044,0.0225 0.0137,0.045 0.0181,0.0713 0.5312,7.7686 6.4687,14.0674 13.0849,18.8184 4.9961,3.0976 11.0811,4.71 16.9517,6.1074 5.8706,0.7813 11.9336,0.7402 17.9648,0.7051 4.2725,-0.0274 8.5318,-0.0537 12.7012,0.2139 -0.04,0 -0.0801,0 -0.1206,0 4.96,0.0712 9.8979,0.0625 14.8267,0.0986 -0.0269,0 -0.0538,0 -0.0806,0 -0.0044,0 -0.0044,0 -0.0088,0 0.7588,0.0576 1.5444,0.0449 2.3306,0.0264 1.7588,-0.0313 3.5312,-0.0625 5.0581,0.7461 2.7412,1.9326 -0.0044,2.83 -2.25,2.83 C 0.5806,0.0488 0.2769,0.0352 0,0 Z" />
          </g>
          <g
             transform="translate(2582.623,4150.5723)"
             id="g346"
             style="fill:#000000;fill-opacity:1;stroke:#000000;stroke-opacity:1">
            <path
               id="path348"
               style="fill:#000000;fill-opacity:1;fill-rule:nonzero;stroke:#000000;stroke-opacity:1"
               d="M 0,0 C -0.04,-0.0176 -0.0806,-0.04 -0.1206,-0.0625 0.0044,0 0.125,0.0625 0.2412,0.1299 0.0937,0.0537 0.0444,0.0273 0,0 Z" />
          </g>
          <g
             transform="translate(2638.0488,4246.2139)"
             id="g350"
             style="fill:#000000;fill-opacity:1;stroke:#000000;stroke-opacity:1">
            <path
               id="path352"
               style="fill:#000000;fill-opacity:1;fill-rule:nonzero;stroke:#000000;stroke-opacity:1"
               d="M 0,0 C 0,-0.0049 0.0044,-0.0049 0.0044,-0.0088 0.0044,-0.0049 0,0 0,0.0049 Z" />
          </g>
          <g
             transform="translate(2638.0488,4246.2187)"
             id="g354"
             style="fill:#000000;fill-opacity:1;stroke:#000000;stroke-opacity:1">
            <path
               id="path356"
               style="fill:#000000;fill-opacity:1;fill-rule:nonzero;stroke:#000000;stroke-opacity:1"
               d="M 0,0 C 0,0.0039 0,0.0088 0,0.0127 0,0.0088 0,0.0039 0,0 Z" />
          </g>
          <g
             transform="translate(2638.0044,4246.7051)"
             id="g358"
             style="fill:#000000;fill-opacity:1;stroke:#000000;stroke-opacity:1">
            <path
               id="path360"
               style="fill:#000000;fill-opacity:1;fill-rule:nonzero;stroke:#000000;stroke-opacity:1"
               d="M 0,0 C 0,0.0088 0,0.0176 -0.0044,0.0225 -0.0044,0.0176 0,0.0088 0,0 Z" />
          </g>
          <g
             transform="translate(2637.9819,4247.1602)"
             id="g362"
             style="fill:#000000;fill-opacity:1;stroke:#000000;stroke-opacity:1">
            <path
               id="path364"
               style="fill:#000000;fill-opacity:1;fill-rule:nonzero;stroke:#000000;stroke-opacity:1"
               d="M 0,0 C 0,0.0049 0,0.0049 0,0.0088 0,0.0137 -0.0044,0.0186 -0.0044,0.0225 -0.0044,0.0137 0,0.0088 0,0 Z" />
          </g>
          <g
             transform="translate(2637.8882,4247.6562)"
             id="g366"
             style="fill:#000000;fill-opacity:1;stroke:#000000;stroke-opacity:1">
            <path
               id="path368"
               style="fill:#000000;fill-opacity:1;fill-rule:nonzero;stroke:#000000;stroke-opacity:1"
               d="M 0,0 C 0,0.0039 0,0.0088 0,0.0088 -0.0044,0.0127 -0.0044,0.0176 -0.0044,0.0176 -0.0044,0.0127 -0.0044,0.0039 0,0 Z" />
          </g>
          <g
             transform="translate(2637.8169,4247.875)"
             id="g370"
             style="fill:#000000;fill-opacity:1;stroke:#000000;stroke-opacity:1">
            <path
               id="path372"
               style="fill:#000000;fill-opacity:1;fill-rule:nonzero;stroke:#000000;stroke-opacity:1"
               d="M 0,0 C 0,0.0039 -0.0044,0.0088 -0.0044,0.0127 -0.0044,0.0088 0,0.0039 0,0 Z" />
          </g>
          <g
             transform="translate(2638.1025,4245.8838)"
             id="g374"
             style="fill:#000000;fill-opacity:1;stroke:#000000;stroke-opacity:1">
            <path
               id="path376"
               style="fill:#000000;fill-opacity:1;fill-rule:nonzero;stroke:#000000;stroke-opacity:1"
               d="m 0,0 c 0,0.0039 0,0.0039 0,0.0039 0,0 0,0 0,-0.0039 C 0,0.0039 0,0.0127 0,0.0176 0,0.0127 0,0.0088 0,0 Z" />
          </g>
          <g
             transform="translate(2638.0488,4246.2275)"
             id="g378"
             style="fill:#000000;fill-opacity:1;stroke:#000000;stroke-opacity:1">
            <path
               id="path380"
               style="fill:#000000;fill-opacity:1;fill-rule:nonzero;stroke:#000000;stroke-opacity:1"
               d="m 0,0 c 0,0 0,0.0039 0,0.0039 0,0 0,0.0049 0,0.0049 C 0,0.0039 0,0 0,0 Z" />
          </g>
          <g
             transform="translate(2638.0444,4246.2627)"
             id="g382"
             style="fill:#000000;fill-opacity:1;stroke:#000000;stroke-opacity:1">
            <path
               id="path384"
               style="fill:#000000;fill-opacity:1;fill-rule:nonzero;stroke:#000000;stroke-opacity:1"
               d="M 0,0 C 0,0 0,0 0,-0.0039 0,0.0049 0,0.0186 0,0.0312 0,0.0186 0,0.0088 0,0 Z" />
          </g>
          <g
             transform="translate(2637.8882,4247.4912)"
             id="g386"
             style="fill:#000000;fill-opacity:1;stroke:#000000;stroke-opacity:1">
            <path
               id="path388"
               style="fill:#000000;fill-opacity:1;fill-rule:nonzero;stroke:#000000;stroke-opacity:1"
               d="M 0,0 C 0.0044,-0.0137 0.0044,-0.0273 0.0088,-0.041 0.0044,-0.0225 0.0044,-0.0049 0,0.0127 0,0.0039 0,0 0,0 Z" />
          </g>
          <g
             transform="translate(2637.8525,4247.6689)"
             id="g390"
             style="fill:#000000;fill-opacity:1;stroke:#000000;stroke-opacity:1">
            <path
               id="path392"
               style="fill:#000000;fill-opacity:1;fill-rule:nonzero;stroke:#000000;stroke-opacity:1"
               d="M 0,0 C 0,0.0049 0,0.0049 0,0.0098 0,0.0049 0,0 0,0 Z" />
          </g>
          <g
             transform="translate(2628.7314,4286.8623)"
             id="g394"
             style="fill:#000000;fill-opacity:1;stroke:#000000;stroke-opacity:1">
            <path
               id="path396"
               style="fill:#000000;fill-opacity:1;fill-rule:nonzero;stroke:#000000;stroke-opacity:1"
               d="m 0,0 c -7.7812,-0.5801 -15.7192,-1.8389 -22.6523,-5.0488 -4.2857,-1.6924 -9.1255,-2.625 -12.4556,-5.71 -6.0405,-5.7187 -11.3355,-12.0185 -13.7061,-19.5459 -4.0537,-11.6963 -3.7055,-24.1074 -2.1743,-36.126 1.2905,-18.2685 15.0855,-34.6884 12.6299,-53.372 -0.9463,-5.6787 -1.3394,-13.041 -7.5044,-16.3662 0.0044,0 0.0088,0.004 0.0132,0.004 -5.5269,-3.0674 -12.188,-4.8262 -16.7012,-9.1114 -6.563,-6.5722 -6.0449,-15.4746 -5.0049,-23.5634 0.8081,-6.7061 3.0357,-14.1299 9.3931,-18.4834 8.2637,-4.8255 17.9561,-8.0267 28.0459,-7.7142 8.5449,0.3526 16.7681,3.0806 24.5542,5.9554 6.8662,3.6963 12.0093,10.1523 15.5718,16.3359 2.8349,8.875 8.3354,16.8975 10.8261,25.8438 3.6343,13.1123 2.8931,26.622 -2.8881,39.1894 -1.6206,4.2861 -2.2813,8.7988 -3.8799,13.0938 -1.3169,3.2187 -3.25,6.2187 -4.2456,9.541 -3.1382,10.2051 -8.2056,20.5185 -7.3081,31.2373 0.5625,4.5488 1.0268,10.6836 6.6342,12.6347 0.0845,0.0528 0.1607,0.1026 0.232,0.1563 0,0.0176 -0.0044,0.0352 -0.0044,0.0527 -0.0044,0.0098 -0.0044,0.0137 -0.0044,0.0186 0,-0.0088 0,-0.0137 0,-0.0186 -0.0044,0.0362 -0.0044,0.0674 -0.0088,0.0987 0,0.0048 0,0.0088 0,0.0136 -0.0049,0 -0.0049,0 -0.0049,0 0,0 0,0 0.0049,0 -0.0049,0.0039 -0.0049,0.0039 -0.0049,0.0088 -0.0176,0.0713 -0.0312,0.1426 -0.0356,0.2188 0,0 0,0 0,0.0039 0,0 0,0.0049 -0.0044,0.0049 0,0.0048 0,0.0048 0,0.0048 0,0.004 0,0.004 0,0.0088 0,0.0127 -0.0044,0.0225 -0.0044,0.0313 0,-0.0049 0,-0.0049 0,-0.0049 0,0.0176 0,0.0361 -0.0044,0.0488 0,0 0,0 0.0044,0 -0.0044,0.0049 -0.0044,0.0137 -0.0044,0.0186 0,-0.0049 0,-0.0088 0.0044,-0.0137 -0.0088,0.0674 -0.0181,0.1299 -0.0225,0.1924 0,-0.0098 0,-0.0225 0,-0.0361 -0.0088,0.0937 -0.0219,0.1875 -0.0268,0.2861 0,0.0039 0,0.0039 0,0.0039 -0.0132,0.0898 -0.022,0.1787 -0.0264,0.2676 -0.0093,0.0625 -0.0225,0.1299 -0.0361,0.1885 0.0049,-0.0098 0.0049,-0.0225 0.0092,-0.0362 -0.0224,0.1026 -0.0405,0.21 -0.0537,0.3174 0,-0.0049 0,-0.0049 0,-0.0049 -0.0088,0.0576 -0.0224,0.1201 -0.0356,0.1826 0,0.0049 -0.0044,0.0137 -0.0044,0.0225 -0.0181,0.0713 -0.0269,0.1387 -0.0405,0.2061 -0.0044,0.0039 -0.0044,0.0087 -0.0044,0.0127 0,-0.004 0.0044,-0.0088 0.0044,-0.0088 -0.022,0.0625 -0.0401,0.1298 -0.0357,0.1963 0,-0.0127 0,-0.0225 0,-0.0352 0,0.0225 0,0.0439 0.0044,0.0625 -0.0044,0.0439 -0.0088,0.0889 -0.0176,0.1338 -0.7949,0.2275 -1.8393,0.1787 -2.7143,-0.3213 -1.1875,-0.375 -2.2236,-0.8799 -3.125,-1.4873 0,-0.0088 -0.0049,-0.0176 -0.0093,-0.0264 -0.0532,-0.1074 -0.1562,-0.1699 -0.2676,-0.1699 -5.0849,-3.6562 -5.7905,-10.7236 -6.1787,-16.2012 -0.3486,-5.6123 1.6206,-11.0049 3.0894,-16.4072 2.0488,-6.8301 4.1382,-13.9375 7.4687,-20.3662 2.0181,-4.1123 2.7056,-8.5811 4.0225,-12.8662 3.6474,-9.5049 7.188,-19.4473 5.8218,-29.5235 -0.7544,-4.9599 -1.5669,-9.9599 -3.1563,-14.7822 -1.7412,-4.4775 -4.1968,-8.7148 -6.2461,-13.0849 -1.6069,-3.5489 -2.4331,-7.2237 -4.3393,-10.6348 -3.0494,-3.9375 -6.0406,-7.9238 -10.1075,-11.0449 -10.4868,-5.0489 -23.4072,-7.906 -35.0727,-4.375 -6.9331,2.5937 -14.7817,5.331 -17.3218,12.0849 -2.1074,4.4287 -2.7412,9.2061 -3.0268,13.9473 -0.6607,5.2549 -0.4869,10.7012 2.7636,15.3447 3.4331,5.2539 10.9107,6.6563 16.3843,9.8262 12.2324,5.8525 11.6118,25.0898 9.2681,35.4873 -2.3931,9.041 -6.0044,17.7549 -9.3394,26.5498 -1.813,5.5986 -1.9424,10.9824 -2.5268,16.6611 -1.2193,9.8575 -0.6387,20.0723 2.5,29.586 1.9956,6.6347 6.7143,12.2685 11.7324,17.4424 2.8794,2.9336 7.6611,3.6298 11.4023,5.2597 7.1118,3.2012 15.0318,4.0801 22.898,4.3389 2.8437,0.0185 5.6562,-0.3125 8.4687,-0.6426 3.1431,-0.3701 6.2862,-0.7412 9.4737,-0.6201 0.5,0.04 1.1294,0.04 1.8125,0.04 2.6923,-0.0088 6.1743,-0.0136 5.6787,2.7364 -0.6607,0.8798 -1.9463,0.8173 -3.107,0.7548 C 24.9341,-1.12 24.6079,-1.1376 24.3091,-1.1288 20.5723,-1.2851 16.8755,-0.8876 13.1836,-0.495 10.0405,-0.1602 6.9023,0.1748 3.7412,0.1748 2.5005,0.1748 1.25,0.125 0,0 Z" />
          </g>
          <g
             transform="translate(2789.6831,4250.7314)"
             id="g398"
             style="fill:#000000;fill-opacity:1;stroke:#000000;stroke-opacity:1">
            <path
               id="path400"
               style="fill:#000000;fill-opacity:1;fill-rule:nonzero;stroke:#000000;stroke-opacity:1"
               d="m 0,0 c -3.5044,-1.9189 -1.7007,-6.0664 -1.8613,-9.0264 0.4463,-5.7373 0.7719,-11.6748 3.7768,-16.9209 1.2051,-3.3037 5.0181,-1.209 4.9463,1.4112 -0.2139,1.455 -1.4595,2.6113 -1.8794,4.04 -0.0849,3.1611 -1.3481,6.6123 -1.3794,9.7061 -0.1074,1.3525 -0.2187,2.705 -0.3481,4.0537 -0.0093,0.04 -0.0137,0.0801 -0.0181,0.1201 C 3.2324,-6.6064 3.2324,-6.5937 3.2324,-6.585 3.21,-6.4639 3.2012,-6.3477 3.2056,-6.2314 3.0449,-4.7002 2.853,-3.1738 2.5894,-1.6514 2.5674,-0.6562 1.9468,0.2598 0.96,0.2598 0.6699,0.2598 0.3486,0.1787 0,0 Z" />
          </g>
          <g
             transform="translate(2814.8228,4085.6238)"
             id="g402"
             style="fill:#000000;fill-opacity:1;stroke:#000000;stroke-opacity:1">
            <path
               id="path404"
               style="fill:#000000;fill-opacity:1;fill-rule:nonzero;stroke:#000000;stroke-opacity:1"
               d="m 0,0 c -5.353,-3.8887 -3.603,-10.3262 -4.4468,-15.6299 -1.04,-5.018 2.96,-6.7012 6.7637,-2.7724 3.9419,3.6967 4.0449,13.9824 1.2143,18.2148 C 3.438,0.6392 2.873,0.9531 2.2002,0.9531 1.4229,0.9531 0.5024,0.5337 0,0 Z" />
          </g>
          <g
             transform="translate(2756.1689,4093.718)"
             id="g406"
             style="fill:#000000;fill-opacity:1;stroke:#000000;stroke-opacity:1">
            <path
               id="path408"
               style="fill:#000000;fill-opacity:1;fill-rule:nonzero;stroke:#000000;stroke-opacity:1"
               d="m 0,0 c -5.4512,-1.8662 -5.5317,-7.7417 -5.0225,-12.063 0.5713,-3.6743 -0.1474,-7.8618 2.0894,-11.1431 1.2588,-1.0449 3.1562,-0.2548 4.3213,0.522 2.2012,1.4063 2.9424,3.8755 2.8843,6.1387 1.3081,4.1118 1.3169,8.6299 -0.25,12.6748 C 3.3525,-2.4399 2.6206,0.0488 0.5254,0.0488 0.3594,0.0488 0.1841,0.0332 0,0 Z" />
          </g>
          <g
             transform="translate(2794.5854,4099.2715)"
             id="g410"
             style="fill:#000000;fill-opacity:1;stroke:#000000;stroke-opacity:1">
            <path
               id="path412"
               style="fill:#000000;fill-opacity:1;fill-rule:nonzero;stroke:#000000;stroke-opacity:1"
               d="m 0,0 c 0.0044,0 0.0044,0 0.0088,0 -0.0137,0.0049 -0.0181,0.0049 -0.0269,0.0049 0.0044,0 0.0132,0 0.0181,-0.0049 z" />
          </g>
          <g
             transform="translate(2793.9512,4100.2891)"
             id="g414"
             style="fill:#000000;fill-opacity:1;stroke:#000000;stroke-opacity:1">
            <path
               id="path416"
               style="fill:#000000;fill-opacity:1;fill-rule:nonzero;stroke:#000000;stroke-opacity:1"
               d="m 0,0 c -1.1919,-1.1875 -0.0044,-3.2412 1.5,-3.7676 -0.0132,0.0049 -0.04,0.0137 -0.0132,0.0049 0.3931,-0.8484 0.6607,-1.8083 1.6382,-2.3176 0.5361,-0.3169 1.228,-0.3926 1.688,-0.0576 0,0 0,-0.0049 0.0044,-0.0049 0.5444,0.3974 0.5532,1.1655 0.4018,1.7236 -0.0761,0.5842 -0.375,1.1965 -0.6118,1.5403 -0.0893,0.1338 -0.1831,0.2627 -0.0981,0.125 C 4.4238,-2.6182 4.3271,-2.4883 4.2339,-2.3555 3.7134,-1.3174 2.7173,-0.3076 1.4912,0.0527 1.2383,0.1475 0.9624,0.2207 0.6938,0.2207 0.4487,0.2207 0.2104,0.1602 0,0 Z M 1.5928,0.0137 C 1.603,0.0098 1.6133,0.0059 1.625,0 1.6143,0.0049 1.6035,0.0098 1.5928,0.0137 Z M 4.0537,-2.0801 C 4.1118,-2.167 4.1699,-2.2578 4.2241,-2.3418 4.165,-2.2568 4.1064,-2.1699 4.0537,-2.0801 Z" />
          </g>
          <g
             transform="translate(2794.3442,4100.4414)"
             id="g418"
             style="fill:#000000;fill-opacity:1;stroke:#000000;stroke-opacity:1">
            <path
               id="path420"
               style="fill:#000000;fill-opacity:1;fill-rule:nonzero;stroke:#000000;stroke-opacity:1"
               d="m 0,0 c -0.8931,-0.4111 -1.7012,-1.2412 -1.6074,-2.1299 -0.25,-0.9912 0.3843,-2.4104 1.6611,-2.4148 0.9151,-0.478 1.0444,-1.4287 1.6563,-2.103 -0.0088,0.0088 -0.0157,0.0171 -0.023,0.0244 1.1021,-1.2295 3.3345,-0.5644 3.8711,0.8062 0.2856,1.0268 0.2275,2.3034 -0.5225,3.1784 -0.415,0.5362 -0.5893,1.1699 -1.1919,1.6026 C 3.4512,-0.3887 2.9062,0.0088 2.0581,0.1162 1.7666,0.2324 1.4341,0.2988 1.1021,0.2988 0.7109,0.2988 0.3208,0.207 0,0 Z" />
          </g>
          <g
             transform="translate(2796.0186,4093.8293)"
             id="g422"
             style="fill:#000000;fill-opacity:1;stroke:#000000;stroke-opacity:1">
            <path
               id="path424"
               style="fill:#000000;fill-opacity:1;fill-rule:nonzero;stroke:#000000;stroke-opacity:1"
               d="M 0,0 C 0.0044,-0.0034 0.0088,-0.0073 0.0127,-0.0112 0.0059,-0.0029 -0.002,0.0054 -0.0093,0.0137 -0.0049,0.0093 -0.0049,0.0044 0,0 Z" />
          </g>
          <g
             transform="translate(2647.3394,4068.1726)"
             id="g426"
             style="fill:#000000;fill-opacity:1;stroke:#000000;stroke-opacity:1">
            <path
               id="path428"
               style="fill:#000000;fill-opacity:1;fill-rule:nonzero;stroke:#000000;stroke-opacity:1"
               d="m 0,0 c -0.3081,-0.7456 -0.1025,-1.4912 0.1069,-2.0581 0.8887,-2.9868 2.3262,-5.7681 3.1524,-8.7817 1.8481,-4.7188 5.3349,-8.7413 8.7544,-12.4292 4.3486,-4.4688 10.1435,-8.7544 16.456,-9.2637 -1.3574,0.625 -2.5849,2.5268 -3.6875,3.3799 -5.4468,4.8213 -10.978,9.5356 -14.938,15.728 C 8.0806,-10.2061 7.2861,-6.4917 5.3931,-3.2861 4.6787,-1.603 3.6074,0.1338 1.7368,0.6606 1.5654,0.7134 1.3838,0.7412 1.2046,0.7412 0.7002,0.7412 0.2104,0.52 0,0 Z" />
          </g>
          <g
             transform="translate(2637.8125,4247.8877)"
             id="g430"
             style="fill:#000000;fill-opacity:1;stroke:#000000;stroke-opacity:1">
            <path
               id="path432"
               style="fill:#000000;fill-opacity:1;fill-rule:nonzero;stroke:#000000;stroke-opacity:1"
               d="M 0,0 C 0,0.0049 0,0.0049 0,0.0049 Z" />
          </g>
          <g
             transform="translate(2637.8076,4247.8975)"
             id="g434"
             style="fill:#000000;fill-opacity:1;stroke:#000000;stroke-opacity:1">
            <path
               id="path436"
               style="fill:#000000;fill-opacity:1;fill-rule:nonzero;stroke:#000000;stroke-opacity:1"
               d="M 0,0 C 0,0 0,0.0039 0,0.0039 0,0.0088 0,0.0088 0,0.0088 0,0.0039 0,0.0039 0,0 Z" />
          </g>
          <g
             transform="translate(2634.1426,4266.3311)"
             id="g438"
             style="fill:#000000;fill-opacity:1;stroke:#000000;stroke-opacity:1">
            <path
               id="path440"
               style="fill:#000000;fill-opacity:1;fill-rule:nonzero;stroke:#000000;stroke-opacity:1"
               d="m 0,0 c -1.9419,-3.4248 -1.8481,-7.9248 -1.728,-11.7959 -0.1563,-2.0352 -0.3794,-4.0937 -0.1875,-6.1162 0.0092,-0.044 0.0136,-0.0889 0.0136,-0.1338 0.085,-0.7852 0.2276,-1.5625 0.4688,-2.3262 0.3213,-1.8525 1.7856,-3.665 3.8213,-3.7002 0.6299,0.0127 1.2768,0.3526 1.4018,1.0264 0.1075,1.4063 0.0225,2.8174 -0.0488,4.2324 -0.0044,0.0489 -0.0181,0.1026 -0.0268,0.1514 0,-0.0039 0,-0.0039 0,-0.0088 0,0.0049 0,0.0088 -0.0044,0.0137 0,0.0088 -0.0044,0.0136 -0.0044,0.0224 0,-0.0048 0.0044,-0.0088 0.0044,-0.0088 -0.0181,0.0713 -0.0269,0.1426 -0.045,0.2139 0,0.0049 0,0.0049 -0.0044,0.0088 0,0 0.0044,0 0.0044,0 -0.0219,0.0537 -0.0312,0.1074 -0.0356,0.165 0,0.0098 0,0.0186 0,0.0274 0,-0.0088 0,-0.0176 0,-0.0274 0,0.0186 0.0044,0.0362 0.0044,0.0538 -0.0088,0.0673 -0.0176,0.1386 -0.022,0.2099 -0.0044,0.1299 0,0.2588 0.0044,0.3887 0,0 0,0 0,0.0039 0,0.1748 0.0044,0.3398 0.0313,0.5098 -0.0044,-0.0098 -0.0044,-0.0225 -0.0088,-0.0362 0.0088,0.0625 0.0219,0.1338 0.04,0.2051 -0.0088,0.8174 0.0225,1.6299 0.125,2.4473 0.4019,2.7675 0.29,5.5263 0.4287,8.2812 -0.0049,0.0313 -0.0093,0.0664 -0.0093,0.0977 0,0.041 0.0044,0.081 0.0137,0.1123 0,0.0127 0.0044,0.0263 0.0088,0.0351 0,0.0137 0,0.0225 0.0044,0.0362 -0.0044,0.1201 0,0.2363 0.0181,0.3525 0,0.0176 0.0044,0.0361 0.0088,0.0537 0.0537,0.8076 0.1337,1.6162 0.2587,2.4238 -0.0044,0 -0.0087,0 -0.0175,0.0049 0,1.5576 -1.8218,3.3526 -3.4781,3.3526 C 0.6787,0.2764 0.3257,0.1914 0,0 Z" />
          </g>
          <g
             transform="translate(2789.2637,4230.9727)"
             id="g442"
             style="fill:#000000;fill-opacity:1;stroke:#000000;stroke-opacity:1">
            <path
               id="path444"
               style="fill:#000000;fill-opacity:1;fill-rule:nonzero;stroke:#000000;stroke-opacity:1"
               d="M 0,0 C -0.2187,0.9912 -0.1118,2.1963 -0.5713,3.1113 -0.8262,2.6875 -0.875,-0.4824 0,0 Z" />
          </g>
          <g
             transform="translate(2788.6699,4234.6514)"
             id="g446"
             style="fill:#000000;fill-opacity:1;stroke:#000000;stroke-opacity:1">
            <path
               id="path448"
               style="fill:#000000;fill-opacity:1;fill-rule:nonzero;stroke:#000000;stroke-opacity:1"
               d="m 0,0 c -0.2681,-1.125 -0.415,-2.4961 0.1919,-3.5186 0.335,0.9776 0,2.4463 -0.1875,3.5225 C 0,0.0039 0,0.0039 0,0 Z" />
          </g>
          <g
             transform="translate(2788.5,4231.4326)"
             id="g450"
             style="fill:#000000;fill-opacity:1;stroke:#000000;stroke-opacity:1">
            <path
               id="path452"
               style="fill:#000000;fill-opacity:1;fill-rule:nonzero;stroke:#000000;stroke-opacity:1"
               d="m 0,0 c 0.0449,-0.1348 0.1431,-0.3086 0.2905,-0.3437 0.107,0.0175 0.2051,0.1376 0.21,0.2402 C 0.4956,0.7588 0.4199,1.7188 0.2456,2.5127 0.0137,1.7188 -0.0757,0.8438 0,0 Z" />
          </g>
          <g
             transform="translate(2788.3486,4238.8252)"
             id="g454"
             style="fill:#000000;fill-opacity:1;stroke:#000000;stroke-opacity:1">
            <path
               id="path456"
               style="fill:#000000;fill-opacity:1;fill-rule:nonzero;stroke:#000000;stroke-opacity:1"
               d="M 0,0 C -0.5,-1.04 -0.0049,-2.3037 -0.0937,-3.4375 0.1782,-4.6836 -0.1562,-6.125 0.4194,-7.2588 0.9019,-6.1475 0.4775,-4.79 0.4282,-3.6113 0.2944,-2.4199 0.5532,-1.085 0.0044,0.0049 0.0044,0.0049 0,0.0049 0,0 Z" />
          </g>
          <g
             transform="translate(2793.2593,4235.5488)"
             id="g458"
             style="fill:#000000;fill-opacity:1;stroke:#000000;stroke-opacity:1">
            <path
               id="path460"
               style="fill:#000000;fill-opacity:1;fill-rule:nonzero;stroke:#000000;stroke-opacity:1"
               d="m 0,0 c -0.0625,-0.0449 -0.0894,-0.1348 -0.0981,-0.2061 0.143,-0.7724 0.3837,-1.6201 0.6025,-2.3388 0.5806,-2.1074 1.1875,-4.2549 2.0806,-6.291 0.2143,-0.6827 0.4687,-1.3389 0.7768,-1.9952 0.2319,-0.33 0.3794,-1.0937 0.8526,-1.0761 0.2724,0.2636 -0.357,0.8711 -0.4151,1.165 C 3.353,-9.791 3.0625,-8.751 2.6343,-7.7998 1.7949,-5.5723 1.1787,-3.2725 0.5625,-0.9785 0.5117,-0.707 0.3291,0.0068 0.0488,0.0068 0.0327,0.0068 0.0166,0.0049 0,0 Z" />
          </g>
          <g
             transform="translate(2791.96,4110.8389)"
             id="g462"
             style="fill:#000000;fill-opacity:1;stroke:#000000;stroke-opacity:1">
            <path
               id="path464"
               style="fill:#000000;fill-opacity:1;fill-rule:nonzero;stroke:#000000;stroke-opacity:1"
               d="m 0,0 c -0.4907,-0.1289 -1.4644,-0.0937 -1.4331,-0.7861 0.0268,-0.2276 0.2368,-0.4327 0.4736,-0.4151 0.9864,0.1787 2.0176,0.3174 3.0088,0.2149 1.1519,-0.0987 2.1699,-0.3623 3.2012,-0.835 0.3706,-0.1699 0.9912,-0.375 1.1518,0.1563 0.0625,0.2363 -0.0805,0.5351 -0.3349,0.5849 C 4.5391,-0.3955 2.8877,0.0859 1.2065,0.0859 0.8057,0.0859 0.4033,0.0586 0,0 Z" />
          </g>
          <g
             transform="translate(2790.9111,4111.5977)"
             id="g466"
             style="fill:#000000;fill-opacity:1;stroke:#000000;stroke-opacity:1">
            <path
               id="path468"
               style="fill:#000000;fill-opacity:1;fill-rule:nonzero;stroke:#000000;stroke-opacity:1"
               d="m 0,0 c -0.1875,-0.4238 -0.2856,-0.8838 -0.4287,-1.3213 -0.0625,-0.2275 0.1787,-0.46 0.3975,-0.3574 0.2319,0.1074 0.1738,0.4336 0.2812,0.6211 0.0444,-0.1074 0.1919,-0.1748 0.2769,-0.1612 0,0 0.0043,0 0.0087,0 0.0938,0 0.1788,0.0362 0.2456,0.0938 C 1.5073,-1.1016 0.7061,0.1152 0.2134,0.1152 0.1304,0.1152 0.0566,0.0811 0,0 Z" />
          </g>
          <g
             transform="translate(2798.0093,4110.5977)"
             id="g470"
             style="fill:#000000;fill-opacity:1;stroke:#000000;stroke-opacity:1">
            <path
               id="path472"
               style="fill:#000000;fill-opacity:1;fill-rule:nonzero;stroke:#000000;stroke-opacity:1"
               d="m 0,0 c -0.2944,-0.0889 -0.6426,-0.3613 -0.7144,-0.6738 0.0049,-0.2774 0.3394,-0.3614 0.5269,-0.1924 -0.0615,-0.4092 0.2163,-0.9971 0.5752,-0.502 0.0732,0.2481 -0.0391,0.6446 -0.0303,0.8858 C 0.374,-0.2676 0.292,0.0029 0.0464,0.0029 0.0312,0.0029 0.0161,0.002 0,0 Z" />
          </g>
          <g
             transform="translate(2798.397,4109.2295)"
             id="g474"
             style="fill:#000000;fill-opacity:1;stroke:#000000;stroke-opacity:1">
            <path
               id="path476"
               style="fill:#000000;fill-opacity:1;fill-rule:nonzero;stroke:#000000;stroke-opacity:1"
               d="M 0,0 C -0.0024,-0.0088 -0.0054,-0.0166 -0.0078,-0.0244 0.001,-0.0068 0.0098,0.002 0.0142,0.0205 0.0098,0.0127 0.0049,0.0068 0,0 Z" />
          </g>
        </g>
      </g>
    </g>
  </g>
</svg>
