<?xml version="1.0" encoding="UTF-8" standalone="no"?>
<!-- Created with Inkscape (http://www.inkscape.org/) -->

<svg
   width="210mm"
   height="233mm"
   viewBox="0 0 210 233"
   version="1.1"
   id="svg1"
   inkscape:version="1.4.2 (ebf0e940, 2025-05-08)"
   sodipodi:docname="void_keety.svg"
   xmlns:inkscape="http://www.inkscape.org/namespaces/inkscape"
   xmlns:sodipodi="http://sodipodi.sourceforge.net/DTD/sodipodi-0.dtd"
   xmlns="http://www.w3.org/2000/svg"
   xmlns:svg="http://www.w3.org/2000/svg">
  <sodipodi:namedview
     id="namedview1"
     pagecolor="#ffffff"
     bordercolor="#000000"
     borderopacity="0.25"
     inkscape:showpageshadow="2"
     inkscape:pageopacity="0.0"
     inkscape:pagecheckerboard="0"
     inkscape:deskcolor="#d1d1d1"
     inkscape:document-units="mm"
     inkscape:zoom="0.56344098"
     inkscape:cx="229.83774"
     inkscape:cy="364.7232"
     inkscape:window-width="1712"
     inkscape:window-height="987"
     inkscape:window-x="0"
     inkscape:window-y="40"
     inkscape:window-maximized="0"
     inkscape:current-layer="g12" />
  <defs
     id="defs1" />
  <g
     inkscape:label="Layer 1"
     inkscape:groupmode="layer"
     id="layer1">
    <g
       transform="matrix(0.64345367,0,0,0.64345367,-1637.1484,-2545.3106)"
       id="g12"
       style="fill:#000000;fill-opacity:1;stroke:#000000;stroke-opacity:1">
      <g
         id="g4"
         inkscape:label="headpat zone"
         style="display:inline;fill:#000000;fill-opacity:1;stroke:#000000;stroke-opacity:1">
        <path
           id="path48"
           style="display:inline;fill:#000000;fill-opacity:1;fill-rule:nonzero;stroke:#000000;stroke-opacity:1"
           d="m 2755.9902,4011.9832 c -7.0669,-3.4337 9.6311,-0.01 0,0 z m 3.5406,-1.0938 h 0.013 z m -11.9424,-0.5625 c 7.2162,0.095 20.6588,0.6034 6.0026,3.1379 -1.6061,0.8241 -8.6913,-0.1121 -6.0026,-3.1379 z m 9.7768,4.3394 c -9.417,-5.4567 13.5155,-4.4216 0.7544,0.058 z m -3.5981,-0.2994 c -8.6756,-5.242 16.4922,-4.6217 3.2185,-0.1315 l -1.821,0.3283 z m -0.9287,-1.4506 c -4.0708,-5.0594 14.9164,-1.3232 2.2588,0.6562 z m 34.8491,7.1025 c -19.7634,-5.5235 -40.6367,-6.6642 -60.9462,-5.0496 -4.0396,-7.8811 20.1353,-4.2059 26.9116,-4.3928 11.5563,1.4804 32.4935,1.0325 37.5177,9.3736 l -1.7863,0.2163 z" />
      </g>
      <path
         id="path84"
         style="display:inline;fill:#000000;fill-opacity:1;fill-rule:nonzero;stroke:#000000;stroke-opacity:1"
         d="m 2798.3759,3979.0519 c -14.9626,1.0609 -28.2074,11.8072 -37.4792,22.9032 -6.21,4.0417 -14.0734,16.8297 -1.5923,9.7881 8.7458,-10.5809 18.2686,-20.5793 30.8663,-26.6465 16.2686,-9.6286 18.7547,15.2557 24.3088,25.4337 6.2449,11.4417 7.4904,25.4573 14.1242,36.0711 7.1668,-9.9828 -7.4463,-28.6389 -10.0856,-40.8916 -5.3358,-9.0254 -6.8638,-26.5409 -20.1422,-26.658 z" />
      <path
         id="path56"
         style="display:inline;fill:#000000;fill-opacity:1;fill-rule:nonzero;stroke:#000000;stroke-opacity:1"
         d="m 2802.8749,4024.1875 c -0.4878,0.022 -0.9597,0.1373 -1.3701,0.3766 -1.8925,1.1074 0.9381,2.9642 1.8664,3.6654 7.9511,5.6074 16.6208,11.0716 22.1033,18.7727 3.0669,6.42 5.9737,13.1341 7.2593,20.0272 0.3522,1.4854 -0.052,3.7341 0.2473,5.5607 -0.4151,0.2083 -0.7226,0.5214 -0.685,0.9573 0.2364,1.3082 1.7861,1.938 2.5498,3.0093 3.1562,3.2549 5.0977,6.7775 6.9815,10.8219 2.1387,6.7236 1.4738,14.0625 -1.803,20.4737 -1.295,2.3164 -3.3756,4.223 -4.8444,6.4642 -3.5044,3.0498 -7.3837,5.9021 -11.4467,8.3757 -3.5312,1.8076 -6.4864,4.4069 -10.2364,5.9157 -3.5893,1.2138 -6.8755,2.1468 -10.6123,3.2269 -1.9155,0.4111 -3.6876,1.4066 -1.7364,3.0004 0.7876,0.6475 1.7514,0.8955 2.7499,0.8955 1.062,0 2.1634,-0.2815 3.1297,-0.6634 1.79,-0.6611 3.7233,-0.9113 5.5495,-1.4777 2.3081,-0.8799 4.7582,-1.4819 6.9501,-2.5708 3.5049,-1.6875 6.4028,-4.2418 9.9072,-5.943 4.1118,-3.0224 8.8575,-5.661 12.0587,-9.4823 1.6206,-2.3486 3.8656,-4.3798 4.8925,-7.0136 4.4331,-9.456 3.4376,-20.2639 -3.0004,-28.8308 -1.2928,-1.6791 -2.6154,-3.8413 -4.3769,-5.4122 -0.4682,-4.111 -0.2064,-8.3491 -1.7837,-12.3077 -1.9419,-4.7774 -3.2101,-9.3483 -5.5407,-14.1564 -5.8574,-9.8399 -16.8922,-16.233 -26.4464,-23.1705 -0.6919,-0.332 -1.5497,-0.552 -2.3628,-0.5148 z" />
      <path
         id="path184"
         style="fill:#000000;fill-opacity:1;fill-rule:nonzero;stroke:#000000;stroke-opacity:1"
         d="m 2786.7905,4284.2422 c 7.5792,-2.8314 21.0819,4.5238 27.1079,-4.3887 -4.4251,-15.8083 4.8384,-32.4909 3.4573,-49.2691 -0.087,-11.5293 -1.0324,-22.6129 2.4818,-33.8756 0.9802,-16.837 -2.6364,-34.5275 -12.0866,-48.6814 -2.9023,-5.9519 -13.389,-21.9775 -0.6149,-11.9966 7.4228,13.1945 16.0466,26.44 17.6833,41.9235 3.661,12.5048 0.1731,25.0649 -2.1035,37.4061 2.7756,17.9976 -0.2158,36.4483 -4.5402,53.9659 10.539,18.4849 -15.1319,21.5102 -27.498,17.4231 -1.2643,-0.5615 -3.623,-0.6896 -3.8871,-2.5072 z m 13.3174,0.2314 h -0.103 z" />
      <path
         id="path340"
         style="fill:#000000;fill-opacity:1;fill-rule:nonzero;stroke:#000000;stroke-opacity:1"
         d="m 2715.2925,4290.0498 c 12.4075,2.4065 23.5113,-7.5326 34.001,-7.9512 -3.7461,8.6929 -23.3338,12.7339 -33.8728,9.9391 l -0.6497,-0.9171 z" />
      <g
         id="g5"
         style="display:inline;fill:#000000;fill-opacity:1;stroke:#000000;stroke-opacity:1"
         inkscape:label="left leg">
        <path
           id="path176"
           style="display:inline;fill:#000000;fill-opacity:1;fill-rule:nonzero;stroke:#000000;stroke-opacity:1"
           d="m 2693.6399,4139.7719 c -12.898,6.9547 -23.8253,18.4032 -32.1466,30.4853 -11.8947,13.9995 -17.1239,32.0069 -23.4499,48.9108 -2.3762,9.0501 -5.3637,18.6506 -5.9949,27.836 0.1196,11.0094 0.1073,23.5992 9.7427,31.1821 15.7025,15.7997 39.4019,13.3905 59.7574,13.8341 12.552,1.9698 23.363,1.3255 29.6252,-11.8064 5.408,-12.8986 7.9745,-30.9796 -0.7517,-42.9072 -4.5085,-3.2749 -18.4175,-17.8496 -19.4287,-10.4658 15.0785,6.8431 23.9348,22.1231 18.7953,38.7303 -0.4013,14.3689 -12.1659,27.2133 -26.7676,22.9564 -19.1978,-0.9727 -43.4014,3.3941 -58.1205,-13.0606 -7.4252,-7.2219 -7.0351,-19.0365 -6.9677,-28.2532 2.8826,-17.2522 7.8933,-35.3933 15.6399,-51.3831 4.7879,-14.2081 14.6371,-26.1634 24.5425,-37.0891 3.8029,-6.8788 18.564,-11.5471 17.8094,-18.4034 l -2.2848,-0.5661 z" />
      </g>
      <g
         id="g6"
         inkscape:label="left arm"
         style="display:inline;fill:#000000;fill-opacity:1;stroke:#000000;stroke-opacity:1">
        <path
           id="path188"
           style="display:inline;fill:#000000;fill-opacity:1;fill-rule:nonzero;stroke:#000000;stroke-opacity:1"
           d="m 2798.5237,4205.1162 c -1.947,9.1113 -8.3525,20.0129 -10.2692,30.2716 2.944,15.2902 -8.8283,30.516 -2.5384,44.1349 -3.0642,7.6898 -13.8631,7.1702 -21.1985,6.0993 -10.4268,-0.5252 -18.7401,-6.838 -27.0515,-12.6612 -6.3721,-3.3436 -4.301,3.6036 0.4631,4.469 9.3459,8.2728 21.9186,11.6324 34.3939,11.8917 11.5674,1.3757 24.3151,-7.1483 15.5483,-18.7222 8.3327,-15.1006 1.0871,-34.266 11.2934,-48.6908 1.1711,-4.0233 6.4331,-16.171 -0.6411,-16.7923 z m -46.0086,77.6319 c 0.1675,0.143 0.5855,0.3667 0,0 z" />
      </g>
      <path
         id="path404"
         style="fill:#000000;fill-opacity:1;fill-rule:nonzero;stroke:#000000;stroke-opacity:1"
         d="m 2814.8228,4085.6238 c -8.4809,-5.1252 -4.602,-31.3977 4.5677,-14.5919 1.2814,3.1375 2.0451,18.6488 -4.5677,14.5919 z" />
      <path
         id="path80"
         style="fill:#000000;fill-opacity:1;fill-rule:nonzero;stroke:#000000;stroke-opacity:1"
         d="m 2712.6318,4143.1074 c -21.9332,0.2411 -47.1298,-6.3918 -58.6087,-26.7709 -6.7901,-15.6361 -6.3791,-33.2676 -7.9611,-49.9679 -1.0798,-17.7039 6.2698,-34.3143 7.9269,-51.7679 1.9112,-12.7816 7.1458,-25.9665 16.9139,-34.6179 13.1849,-8.5439 27.6742,2.2509 38.5454,9.6219 6.1449,8.0527 20.111,16.3194 21.5234,24.6196 -13.8044,-5.552 -20.8322,-22.5314 -35.0033,-28.8405 -9.9255,-9.5616 -25.375,-4.0977 -28.9278,8.6994 -9.8889,16.8859 -7.8774,37.5122 -14.0275,55.7073 -2.6187,19.4511 0.2851,39.3128 3.7028,58.4872 5.4495,22.2799 30.5364,31.5044 51.307,31.3456 6.3025,-1.776 20.4405,3.6826 4.609,3.4841 z m -48.6895,-143.4866 c 0.018,-0.011 0.026,-0.062 0,0 z" />
      <path
         id="path428"
         style="fill:#000000;fill-opacity:1;fill-rule:nonzero;stroke:#000000;stroke-opacity:1"
         d="m 2647.3394,4068.1726 c 2.3883,-14.5267 13.2796,-29.6676 28.4697,-32.5327 -13.4928,7.3913 -18.4166,24.3457 -27.9777,33.0983 z" />
      <path
         id="path408"
         style="fill:#000000;fill-opacity:1;fill-rule:nonzero;stroke:#000000;stroke-opacity:1"
         d="m 2756.1689,4093.718 c -12.1028,-3.6733 -1.7016,-36.6229 4.2725,-16.5454 1.3646,4.59 1.9939,15.5117 -4.2725,16.5454 z" />
      <g
         id="g2"
         inkscape:label="nose"
         transform="translate(-38.240912,-29.606005)"
         style="display:inline;fill:#000000;fill-opacity:1;stroke:#000000;stroke-opacity:1">
        <g
           transform="translate(2833.3206,4129.6554)"
           id="g410"
           style="fill:#000000;fill-opacity:1;stroke:#000000;stroke-opacity:1">
          <path
             id="path412"
             style="fill:#000000;fill-opacity:1;fill-rule:nonzero;stroke:#000000;stroke-opacity:1"
             d="M 0,0 C 0.03743845,-0.00233729 -0.06016744,0.01224267 0,0 Z" />
        </g>
        <g
           transform="translate(2832.6864,4130.673)"
           id="g414"
           style="display:inline;fill:#000000;fill-opacity:1;stroke:#000000;stroke-opacity:1">
          <path
             id="path416"
             style="fill:#000000;fill-opacity:1;fill-rule:nonzero;stroke:#000000;stroke-opacity:1"
             d="M 0,0 C 0.28552173,-10.396201 12.135889,-5.0239258 0,0 Z M 1.5928,0.0137 1.625,0 Z m 2.4609,-2.0938 0.1704,-0.2617 z" />
        </g>
        <g
           transform="translate(2833.0794,4130.8253)"
           id="g418"
           style="fill:#000000;fill-opacity:1;stroke:#000000;stroke-opacity:1">
          <path
             id="path420"
             style="fill:#000000;fill-opacity:1;fill-rule:nonzero;stroke:#000000;stroke-opacity:1"
             d="M 0,0 C -6.283269,-7.1670347 12.501226,-9.6926907 3.12175,-0.25745 2.1454251,0.07057532 1.0118563,0.66087545 0,0 Z" />
        </g>
        <g
           transform="translate(2834.7538,4124.2132)"
           id="g422"
           style="fill:#000000;fill-opacity:1;stroke:#000000;stroke-opacity:1">
          <path
             id="path424"
             style="fill:#000000;fill-opacity:1;fill-rule:nonzero;stroke:#000000;stroke-opacity:1"
             d="M 0,0 C 0.04221149,-0.04223178 -0.03603316,0.0464951 0,0 Z" />
        </g>
      </g>
      <g
         transform="translate(2626.1498,4289.4204)"
         id="g394"
         style="display:inline;fill:#000000;fill-opacity:1;stroke:#000000;stroke-opacity:1"
         inkscape:label="tail">
        <path
           id="path396"
           style="fill:#000000;fill-opacity:1;fill-rule:nonzero;stroke:#000000;stroke-opacity:1"
           d="m 0,0 c -14.78835,-1.769797 -31.959698,-4.790593 -41.474052,-17.471582 -13.965045,-17.401706 -12.070559,-42.059208 -6.651078,-62.378135 5.944658,-16.182296 14.686418,-33.926473 7.096485,-51.176863 -10.144617,-10.60827 -32.804063,-14.2037 -26.87978,-34.74782 -0.886651,-15.61805 12.391718,-26.18706 26.662738,-28.23176 16.276239,-2.80424 35.8160716,1.00533 46.5728442,14.34859 6.7155418,9.97776 11.1272528,21.53753 15.5082428,32.75537 4.715396,14.72506 1.347359,30.23992 -4.406396,44.08343 -4.571577,17.907486 -17.23011477,35.175298 -13.0475229,54.460302 -0.3261298,3.947885 4.5779252,5.652408 5.9359189,7.723768 0.5778243,4.46907 -6.4284451,0.699872 -8.1157912,-1.494807 -9.8559792,-14.342178 -0.91239215,-31.986291 3.8049646,-46.519549 5.0236956,-10.937884 8.0655696,-22.688504 11.5057406,-34.200794 3.279713,-15.30086 -2.97348,-30.34423 -9.8677812,-43.66904 -3.6201457,-13.85365 -16.4171818,-23.28613 -30.4532708,-24.40547 -14.526855,-2.27768 -35.11995,3.10176 -37.496737,19.97132 -4.226237,13.24573 1.186551,28.5555 16.182951,31.1449 15.7038,6.95028 14.307044,27.8907 9.938075,41.657894 -4.312829,13.15759 -10.840025,25.79684 -10.608792,40.009356 -1.976544,17.800859 2.609385,39.503994 19.817716,48.2949275 C -10.752097,-2.0936386 6.3103691,-3.2866995 22.7017,-4.5888 39.17181,-1.2312337 15.593177,-0.1407658 0,0 Z" />
      </g>
      <g
         id="g1"
         inkscape:label="teeth"
         style="fill:#000000;fill-opacity:1;stroke:#000000;stroke-opacity:1;display:inline"
         transform="translate(-1.6188674e-6,-1.6836228e-5)">
        <path
           id="path464-2"
           style="fill:#000000;fill-opacity:1;fill-rule:nonzero;stroke:#000000;stroke-opacity:1"
           d="m 2791.9069,4110.7343 c -0.4907,-0.1289 -1.4644,-0.094 -1.4331,-0.7861 0.027,-0.2276 0.2368,-0.4327 0.4736,-0.4151 0.9864,0.1787 2.0176,0.3174 3.0088,0.2149 1.1519,-0.099 2.1699,-0.3623 3.2012,-0.835 0.3706,-0.1699 0.9912,-0.375 1.1518,0.1563 0.062,0.2363 -0.081,0.5351 -0.3349,0.5849 -1.5283,0.6846 -3.1797,1.166 -4.8609,1.166 -0.4008,0 -0.8032,-0.027 -1.2065,-0.086 z" />
        <path
           id="path472-9"
           style="fill:#000000;fill-opacity:1;fill-rule:nonzero;stroke:#000000;stroke-opacity:1"
           d="m 2797.9562,4110.4931 c -0.2944,-0.089 -0.6426,-0.3613 -0.7144,-0.6738 0,-0.2774 0.3394,-0.3614 0.5269,-0.1924 -0.062,-0.4092 0.2163,-0.9971 0.5752,-0.502 0.073,0.2481 -0.039,0.6446 -0.03,0.8858 0.017,0.2148 -0.065,0.4853 -0.311,0.4853 -0.015,0 -0.03,-9e-4 -0.046,-0 z" />
        <path
           id="path476-7"
           style="fill:#000000;fill-opacity:1;fill-rule:nonzero;stroke:#000000;stroke-opacity:1"
           d="m 2798.3439,4109.1249 c -0,-0.01 -0.01,-0.017 -0.01,-0.024 0.01,0.018 0.018,0.026 0.022,0.045 -0,-0.01 -0.01,-0.014 -0.014,-0.021 z" />
        <path
           id="path468-3"
           style="fill:#000000;fill-opacity:1;fill-rule:nonzero;stroke:#000000;stroke-opacity:1"
           d="m 2790.8581,4111.4931 c -0.1875,-0.4238 -0.2856,-0.8838 -0.4287,-1.3213 -0.062,-0.2275 0.1787,-0.46 0.3975,-0.3574 0.2319,0.1074 0.1738,0.4336 0.2812,0.6211 0.044,-0.1074 0.1919,-0.1748 0.2769,-0.1612 0,0 0,0 0.01,0 0.094,0 0.1788,0.036 0.2456,0.094 0.7261,0.023 -0.075,1.2402 -0.5678,1.2402 -0.083,0 -0.1568,-0.034 -0.2134,-0.1152 z" />
      </g>
      <g
         id="g3"
         inkscape:label="whiskers"
         transform="translate(68.062119,-72.650577)"
         style="display:inline">
        <path
           id="path64-3"
           style="fill:#000000;fill-opacity:1;fill-rule:nonzero;stroke:#000000;stroke-opacity:1"
           d="m 2776.3658,4158.6021 c -1.3887,-0.3081 -3.4419,-1.8262 -1.7993,-2.9868 2.8706,-1.2012 6.3574,-0.8081 9.4199,-0.3931 -1.0635,2.0244 -3.7085,3.5073 -6.3232,3.5073 -0.4361,0 -0.8706,-0.041 -1.2974,-0.1274 z" />
        <path
           id="path68-5"
           style="fill:#000000;fill-opacity:1;fill-rule:nonzero;stroke:#000000;stroke-opacity:1"
           d="m 2776.9059,4166.4596 c -0.5625,-0.3574 -1.1606,-0.875 -1.1338,-1.5313 0.7901,-2.8037 9.0361,-0.7861 11.2637,-0.027 -1.8447,1.2266 -4.4546,2.3027 -6.9326,2.3032 -1.1202,0 -2.2129,-0.2197 -3.1973,-0.7451 z" />
        <path
           id="path72-5"
           style="fill:#000000;fill-opacity:1;fill-rule:nonzero;stroke:#000000;stroke-opacity:1"
           d="m 2651.2901,4170.5306 c -1.8882,-0.25 -3.7725,-2.6067 -1.1738,-3.3254 3.3037,-0.563 6.79,0.2451 9.7949,1.4282 -1.5679,1.489 -3.8755,2.1462 -6.1719,2.1472 -0.8296,0 -1.6577,-0.086 -2.4492,-0.25 z" />
        <path
           id="path76-9"
           style="fill:#000000;fill-opacity:1;fill-rule:nonzero;stroke:#000000;stroke-opacity:1"
           d="m 2652.4688,4181.183 c -1.0132,-1.2363 0.4375,-1.96 1.4106,-2.5312 2.2188,-1.2413 4.96,-1.5762 7.5494,-1.5 0.1909,2.6816 -2.9322,5.3398 -5.8702,5.3398 -1.122,0 -2.2163,-0.3867 -3.0898,-1.3086 z" />
      </g>
    </g>
  </g>
</svg>
